STARTFONT 2.1
FONT -Adobe-Courier-Medium-R-Normal--25-180-100-100-M-150-ISO10646-1
SIZE 18 100 100
FONTBOUNDINGBOX 23 32 -5 -8
COMMENT ISO10646-1 extension by Markus Kuhn <mkuhn@acm.org>, 2001-03-20
COMMENT 
COMMENT +
COMMENT  Copyright 1984-1989, 1994 Adobe Systems Incorporated.
COMMENT  Copyright 1988, 1994 Digital Equipment Corporation.
COMMENT
COMMENT  Adobe is a trademark of Adobe Systems Incorporated which may be
COMMENT  registered in certain jurisdictions.
COMMENT  Permission to use these trademarks is hereby granted only in
COMMENT  association with the images described in this file.
COMMENT
COMMENT  Permission to use, copy, modify, distribute and sell this software
COMMENT  and its documentation for any purpose and without fee is hereby
COMMENT  granted, provided that the above copyright notices appear in all
COMMENT  copies and that both those copyright notices and this permission
COMMENT  notice appear in supporting documentation, and that the names of
COMMENT  Adobe Systems and Digital Equipment Corporation not be used in
COMMENT  advertising or publicity pertaining to distribution of the software
COMMENT  without specific, written prior permission.  Adobe Systems and
COMMENT  Digital Equipment Corporation make no representations about the
COMMENT  suitability of this software for any purpose.  It is provided "as
COMMENT  is" without express or implied warranty.
COMMENT -
STARTPROPERTIES 26
FOUNDRY "Adobe"
FAMILY_NAME "Courier"
WEIGHT_NAME "Medium"
SLANT "R"
SETWIDTH_NAME "Normal"
ADD_STYLE_NAME ""
PIXEL_SIZE 25
POINT_SIZE 180
RESOLUTION_X 100
RESOLUTION_Y 100
SPACING "M"
AVERAGE_WIDTH 150
CHARSET_REGISTRY "ISO10646"
CHARSET_ENCODING "1"
CAP_HEIGHT 14
X_HEIGHT 11
FONT_ASCENT 17
FONT_DESCENT 5
FACE_NAME "Courier"
COPYRIGHT "Copyright (c) 1984, 1987 Adobe Systems Incorporated. All Rights Reserved. Copyright (c) 1988, 1991 Digital Equipment Corporation. All Rights Reserved."
NOTICE "No mark"
_DEC_DEVICE_FONTNAMES "PS=Courier"
DEFAULT_CHAR 0

STARTCHAR char0
ENCODING 0
SWIDTH 600 0
DWIDTH 15 0
BBX 13 13 1 0
BITMAP
AAA8
0000
8008
0000
8008
0000
8008
0000
8008
0000
8008
0000
AAA8
ENDCHAR
STARTCHAR space
ENCODING 32
SWIDTH 600 0
DWIDTH 15 0
BBX 1 1 0 0
BITMAP
00
ENDCHAR
STARTCHAR exclam
ENCODING 33
SWIDTH 600 0
DWIDTH 15 0
BBX 2 16 6 0
BITMAP
C0
C0
C0
C0
C0
C0
C0
C0
80
80
80
00
00
00
C0
C0
ENDCHAR
STARTCHAR quotedbl
ENCODING 34
SWIDTH 600 0
DWIDTH 15 0
BBX 8 7 3 9
BITMAP
E7
E7
E7
E7
42
42
42
ENDCHAR
STARTCHAR numbersign
ENCODING 35
SWIDTH 600 0
DWIDTH 15 0
BBX 10 17 2 -1
BITMAP
0900
0900
0900
0900
0900
0900
7FC0
1200
1200
1200
FF80
1200
1200
1200
1200
1200
1200
ENDCHAR
STARTCHAR dollar
ENCODING 36
SWIDTH 600 0
DWIDTH 15 0
BBX 9 20 3 -3
BITMAP
0800
0800
0800
1E80
2180
4080
4000
4000
2000
1E00
0100
0080
0080
8080
C100
BE00
0800
0800
0800
0800
ENDCHAR
STARTCHAR percent
ENCODING 37
SWIDTH 600 0
DWIDTH 15 0
BBX 12 16 1 0
BITMAP
1C00
2200
4100
4100
4100
2200
1C70
0380
1C00
E1C0
0220
0410
0410
0410
0220
01C0
ENDCHAR
STARTCHAR ampersand
ENCODING 38
SWIDTH 600 0
DWIDTH 15 0
BBX 10 13 2 0
BITMAP
1D00
2600
2000
2000
1000
3000
4980
8900
8600
8200
8300
4500
38C0
ENDCHAR
STARTCHAR quotesingle
ENCODING 39
SWIDTH 600 0
DWIDTH 15 0
BBX 3 7 6 8
BITMAP
E0
E0
E0
E0
E0
40
40
ENDCHAR
STARTCHAR parenleft
ENCODING 40
SWIDTH 600 0
DWIDTH 15 0
BBX 4 19 7 -3
BITMAP
10
20
20
40
40
40
80
80
80
80
80
80
80
40
40
40
20
20
10
ENDCHAR
STARTCHAR parenright
ENCODING 41
SWIDTH 600 0
DWIDTH 15 0
BBX 4 19 3 -3
BITMAP
80
40
40
20
20
20
10
10
10
10
10
10
10
20
20
20
40
40
80
ENDCHAR
STARTCHAR asterisk
ENCODING 42
SWIDTH 600 0
DWIDTH 15 0
BBX 9 9 3 7
BITMAP
0800
0800
0800
C980
7F00
1C00
3600
6300
C180
ENDCHAR
STARTCHAR plus
ENCODING 43
SWIDTH 600 0
DWIDTH 15 0
BBX 11 11 2 2
BITMAP
0400
0400
0400
0400
0400
FFE0
0400
0400
0400
0400
0400
ENDCHAR
STARTCHAR comma
ENCODING 44
SWIDTH 600 0
DWIDTH 15 0
BBX 5 6 4 -3
BITMAP
38
38
70
60
C0
80
ENDCHAR
STARTCHAR hyphen
ENCODING 45
SWIDTH 600 0
DWIDTH 15 0
BBX 10 1 2 7
BITMAP
FFC0
ENDCHAR
STARTCHAR period
ENCODING 46
SWIDTH 600 0
DWIDTH 15 0
BBX 3 3 6 0
BITMAP
E0
E0
E0
ENDCHAR
STARTCHAR slash
ENCODING 47
SWIDTH 600 0
DWIDTH 15 0
BBX 9 18 3 -2
BITMAP
0080
0080
0100
0100
0200
0200
0400
0400
0800
0800
1000
1000
2000
2000
4000
4000
8000
8000
ENDCHAR
STARTCHAR zero
ENCODING 48
SWIDTH 600 0
DWIDTH 15 0
BBX 9 15 3 0
BITMAP
1C00
6300
4100
8080
8080
8080
8080
8080
8080
8080
8080
8080
4100
6300
1C00
ENDCHAR
STARTCHAR one
ENCODING 49
SWIDTH 600 0
DWIDTH 15 0
BBX 9 15 3 0
BITMAP
1800
E800
0800
0800
0800
0800
0800
0800
0800
0800
0800
0800
0800
0800
FF80
ENDCHAR
STARTCHAR two
ENCODING 50
SWIDTH 600 0
DWIDTH 15 0
BBX 10 15 2 0
BITMAP
1E00
6100
8080
8080
0080
0080
0100
0200
0400
0800
1000
2000
4000
8040
FFC0
ENDCHAR
STARTCHAR three
ENCODING 51
SWIDTH 600 0
DWIDTH 15 0
BBX 10 15 2 0
BITMAP
3E00
4180
0080
0080
0080
0100
1E00
0180
0040
0040
0040
0040
8040
6180
1E00
ENDCHAR
STARTCHAR four
ENCODING 52
SWIDTH 600 0
DWIDTH 15 0
BBX 10 15 2 0
BITMAP
0300
0500
0900
0900
1100
2100
2100
4100
4100
8100
FFC0
0100
0100
0100
0FC0
ENDCHAR
STARTCHAR five
ENCODING 53
SWIDTH 600 0
DWIDTH 15 0
BBX 10 15 2 0
BITMAP
7F80
4000
4000
4000
4000
5E00
6180
0080
0040
0040
0040
0040
0080
C180
3E00
ENDCHAR
STARTCHAR six
ENCODING 54
SWIDTH 600 0
DWIDTH 15 0
BBX 9 15 3 0
BITMAP
0F00
3000
6000
4000
8000
9E00
A100
C080
8080
8080
8080
8080
4080
6100
1E00
ENDCHAR
STARTCHAR seven
ENCODING 55
SWIDTH 600 0
DWIDTH 15 0
BBX 9 15 2 0
BITMAP
FF80
8080
8100
0100
0100
0200
0200
0200
0200
0400
0400
0400
0800
0800
0800
ENDCHAR
STARTCHAR eight
ENCODING 56
SWIDTH 600 0
DWIDTH 15 0
BBX 10 15 2 0
BITMAP
1E00
2100
4080
4080
4080
4080
2100
3F00
4080
8040
8040
8040
4080
6180
1E00
ENDCHAR
STARTCHAR nine
ENCODING 57
SWIDTH 600 0
DWIDTH 15 0
BBX 9 15 3 0
BITMAP
1C00
6300
C180
8080
8080
8080
4180
6280
1C80
0080
0080
0100
0100
0600
F800
ENDCHAR
STARTCHAR colon
ENCODING 58
SWIDTH 600 0
DWIDTH 15 0
BBX 3 11 6 0
BITMAP
E0
E0
E0
00
00
00
00
00
E0
E0
E0
ENDCHAR
STARTCHAR semicolon
ENCODING 59
SWIDTH 600 0
DWIDTH 15 0
BBX 5 14 4 -3
BITMAP
38
38
38
00
00
00
00
00
38
38
70
60
C0
80
ENDCHAR
STARTCHAR less
ENCODING 60
SWIDTH 600 0
DWIDTH 15 0
BBX 11 11 1 2
BITMAP
0060
0180
0600
1800
6000
C000
6000
1800
0600
0180
0060
ENDCHAR
STARTCHAR equal
ENCODING 61
SWIDTH 600 0
DWIDTH 15 0
BBX 12 4 1 5
BITMAP
FFF0
0000
0000
FFF0
ENDCHAR
STARTCHAR greater
ENCODING 62
SWIDTH 600 0
DWIDTH 15 0
BBX 11 11 2 2
BITMAP
C000
3000
0C00
0300
00C0
0060
00C0
0300
0C00
3000
C000
ENDCHAR
STARTCHAR question
ENCODING 63
SWIDTH 600 0
DWIDTH 15 0
BBX 8 14 3 0
BITMAP
7C
82
81
01
01
01
02
0C
10
10
00
00
18
18
ENDCHAR
STARTCHAR at
ENCODING 64
SWIDTH 600 0
DWIDTH 15 0
BBX 10 18 2 -2
BITMAP
1E00
6100
4080
8080
8080
8380
8480
8880
8880
8880
8880
8480
83C0
8000
8000
4000
6180
1F00
ENDCHAR
STARTCHAR A
ENCODING 65
SWIDTH 600 0
DWIDTH 15 0
BBX 13 14 1 0
BITMAP
3F00
0500
0880
0880
0880
1040
1040
1040
3FE0
2020
2020
4010
4010
F078
ENDCHAR
STARTCHAR B
ENCODING 66
SWIDTH 600 0
DWIDTH 15 0
BBX 12 14 1 0
BITMAP
FFC0
2020
2010
2010
2010
2020
3FC0
2020
2010
2010
2010
2010
2020
FFC0
ENDCHAR
STARTCHAR C
ENCODING 67
SWIDTH 600 0
DWIDTH 15 0
BBX 11 14 2 0
BITMAP
0F20
30A0
6060
4020
8000
8000
8000
8000
8000
8000
4020
6060
30C0
0F00
ENDCHAR
STARTCHAR D
ENCODING 68
SWIDTH 600 0
DWIDTH 15 0
BBX 12 14 1 0
BITMAP
FF80
4060
4020
4010
4010
4010
4010
4010
4010
4010
4010
4020
4060
FF80
ENDCHAR
STARTCHAR E
ENCODING 69
SWIDTH 600 0
DWIDTH 15 0
BBX 12 14 1 0
BITMAP
FFE0
2020
2020
2020
2200
2200
3E00
2200
2200
2010
2010
2010
2010
FFF0
ENDCHAR
STARTCHAR F
ENCODING 70
SWIDTH 600 0
DWIDTH 15 0
BBX 11 14 2 0
BITMAP
FFE0
2020
2020
2020
2200
2200
3E00
2200
2200
2000
2000
2000
2000
FE00
ENDCHAR
STARTCHAR G
ENCODING 71
SWIDTH 600 0
DWIDTH 15 0
BBX 12 14 1 0
BITMAP
0F20
30A0
6060
4020
8000
8000
8000
8000
83F0
8020
4020
6020
3040
0F80
ENDCHAR
STARTCHAR H
ENCODING 72
SWIDTH 600 0
DWIDTH 15 0
BBX 13 14 1 0
BITMAP
F8F8
2020
2020
2020
2020
2020
3FE0
2020
2020
2020
2020
2020
2020
F8F8
ENDCHAR
STARTCHAR I
ENCODING 73
SWIDTH 600 0
DWIDTH 15 0
BBX 9 14 3 0
BITMAP
FF80
0800
0800
0800
0800
0800
0800
0800
0800
0800
0800
0800
0800
FF80
ENDCHAR
STARTCHAR J
ENCODING 74
SWIDTH 600 0
DWIDTH 15 0
BBX 12 14 2 0
BITMAP
1FF0
0080
0080
0080
0080
0080
0080
0080
8080
8080
8080
8100
4300
3C00
ENDCHAR
STARTCHAR K
ENCODING 75
SWIDTH 600 0
DWIDTH 15 0
BBX 13 14 1 0
BITMAP
F8F0
2040
2080
2100
2200
2400
2C00
3200
2100
2080
2040
2040
2020
F878
ENDCHAR
STARTCHAR L
ENCODING 76
SWIDTH 600 0
DWIDTH 15 0
BBX 12 14 1 0
BITMAP
FE00
1000
1000
1000
1000
1000
1000
1000
1000
1010
1010
1010
1010
FFF0
ENDCHAR
STARTCHAR M
ENCODING 77
SWIDTH 600 0
DWIDTH 15 0
BBX 13 14 1 0
BITMAP
E038
6030
6030
5050
5050
4890
4890
4510
4710
4010
4010
4010
4010
F078
ENDCHAR
STARTCHAR N
ENCODING 78
SWIDTH 600 0
DWIDTH 15 0
BBX 14 14 0 0
BITMAP
F0FC
3010
2810
2410
2410
2210
2210
2110
2110
2090
2090
2050
2030
FC30
ENDCHAR
STARTCHAR O
ENCODING 79
SWIDTH 600 0
DWIDTH 15 0
BBX 13 14 1 0
BITMAP
0F80
3060
6030
4010
8008
8008
8008
8008
8008
8008
4010
6030
3060
0F80
ENDCHAR
STARTCHAR P
ENCODING 80
SWIDTH 600 0
DWIDTH 15 0
BBX 11 14 2 0
BITMAP
FF80
2040
2020
2020
2020
2020
2040
3F80
2000
2000
2000
2000
2000
FE00
ENDCHAR
STARTCHAR Q
ENCODING 81
SWIDTH 600 0
DWIDTH 15 0
BBX 13 16 1 -2
BITMAP
0F80
3060
6030
4010
8008
8008
8008
8008
8008
8008
4010
6030
3060
0F80
0630
1BC0
ENDCHAR
STARTCHAR R
ENCODING 82
SWIDTH 600 0
DWIDTH 15 0
BBX 13 14 1 0
BITMAP
FF80
2040
2020
2020
2020
2020
2040
3F80
2100
2080
2040
2040
2020
F838
ENDCHAR
STARTCHAR S
ENCODING 83
SWIDTH 600 0
DWIDTH 15 0
BBX 10 14 2 0
BITMAP
1E40
6140
80C0
8040
8000
6000
1E00
0180
0040
0040
8040
C040
A080
9F00
ENDCHAR
STARTCHAR T
ENCODING 84
SWIDTH 600 0
DWIDTH 15 0
BBX 11 14 2 0
BITMAP
FFE0
8420
8420
8420
8420
0400
0400
0400
0400
0400
0400
0400
0400
3F80
ENDCHAR
STARTCHAR U
ENCODING 85
SWIDTH 600 0
DWIDTH 15 0
BBX 12 14 1 0
BITMAP
F9F0
4020
4020
4020
4020
4020
4020
4020
4020
4020
4020
4020
2040
1F80
ENDCHAR
STARTCHAR V
ENCODING 86
SWIDTH 600 0
DWIDTH 15 0
BBX 13 14 1 0
BITMAP
F8F8
4010
4010
2020
2020
1040
1040
1040
0880
0880
0880
0500
0700
0200
ENDCHAR
STARTCHAR W
ENCODING 87
SWIDTH 600 0
DWIDTH 15 0
BBX 13 14 1 0
BITMAP
F8F8
4010
4010
4210
4210
4510
4510
2520
28A0
28A0
28A0
3060
3060
3060
ENDCHAR
STARTCHAR X
ENCODING 88
SWIDTH 600 0
DWIDTH 15 0
BBX 13 14 1 0
BITMAP
F8F8
2020
1040
1040
0880
0500
0200
0500
0880
0880
1040
2020
2020
F8F8
ENDCHAR
STARTCHAR Y
ENCODING 89
SWIDTH 600 0
DWIDTH 15 0
BBX 13 14 1 0
BITMAP
F078
2020
1040
1040
0880
0880
0500
0200
0200
0200
0200
0200
0200
1FC0
ENDCHAR
STARTCHAR Z
ENCODING 90
SWIDTH 600 0
DWIDTH 15 0
BBX 10 14 2 0
BITMAP
FFC0
8040
8080
8100
8200
0200
0400
0800
1000
1040
2040
4040
8040
FFC0
ENDCHAR
STARTCHAR bracketleft
ENCODING 91
SWIDTH 600 0
DWIDTH 15 0
BBX 3 19 7 -3
BITMAP
E0
80
80
80
80
80
80
80
80
80
80
80
80
80
80
80
80
80
E0
ENDCHAR
STARTCHAR backslash
ENCODING 92
SWIDTH 600 0
DWIDTH 15 0
BBX 9 18 3 -2
BITMAP
8000
8000
4000
4000
2000
2000
1000
1000
0800
0800
0400
0400
0200
0200
0100
0100
0080
0080
ENDCHAR
STARTCHAR bracketright
ENCODING 93
SWIDTH 600 0
DWIDTH 15 0
BBX 3 19 5 -3
BITMAP
E0
20
20
20
20
20
20
20
20
20
20
20
20
20
20
20
20
20
E0
ENDCHAR
STARTCHAR asciicircum
ENCODING 94
SWIDTH 600 0
DWIDTH 15 0
BBX 9 5 3 11
BITMAP
0800
1C00
2200
4100
8080
ENDCHAR
STARTCHAR underscore
ENCODING 95
SWIDTH 600 0
DWIDTH 15 0
BBX 15 1 0 -5
BITMAP
FFFE
ENDCHAR
STARTCHAR grave
ENCODING 96
SWIDTH 600 0
DWIDTH 15 0
BBX 5 4 4 12
BITMAP
C0
60
30
18
ENDCHAR
STARTCHAR a
ENCODING 97
SWIDTH 600 0
DWIDTH 15 0
BBX 11 11 2 0
BITMAP
3E00
4100
0080
0080
3E80
4180
8080
8080
8080
4180
3EE0
ENDCHAR
STARTCHAR b
ENCODING 98
SWIDTH 600 0
DWIDTH 15 0
BBX 13 15 1 0
BITMAP
E000
2000
2000
2000
27C0
2830
3010
2008
2008
2008
2008
2008
3010
2830
E7C0
ENDCHAR
STARTCHAR c
ENCODING 99
SWIDTH 600 0
DWIDTH 15 0
BBX 11 11 2 0
BITMAP
1F40
60C0
4040
8040
8000
8000
8000
8000
4060
60C0
1F00
ENDCHAR
STARTCHAR d
ENCODING 100
SWIDTH 600 0
DWIDTH 15 0
BBX 13 15 1 0
BITMAP
00E0
0020
0020
0020
1F20
60A0
4060
8020
8020
8020
8020
8020
4060
60A0
1F38
ENDCHAR
STARTCHAR e
ENCODING 101
SWIDTH 600 0
DWIDTH 15 0
BBX 11 11 2 0
BITMAP
1F00
60C0
4040
8020
8020
FFE0
8000
8000
4000
6060
1F80
ENDCHAR
STARTCHAR f
ENCODING 102
SWIDTH 600 0
DWIDTH 15 0
BBX 10 15 3 0
BITMAP
0F80
1840
1000
1000
FF80
1000
1000
1000
1000
1000
1000
1000
1000
1000
FF80
ENDCHAR
STARTCHAR g
ENCODING 103
SWIDTH 600 0
DWIDTH 15 0
BBX 13 16 1 -5
BITMAP
1F38
60A0
4060
8020
8020
8020
8020
8020
4060
60A0
1F20
0020
0020
0040
00C0
3F00
ENDCHAR
STARTCHAR h
ENCODING 104
SWIDTH 600 0
DWIDTH 15 0
BBX 13 15 1 0
BITMAP
E000
2000
2000
2000
2780
2840
3020
2020
2020
2020
2020
2020
2020
2020
F8F8
ENDCHAR
STARTCHAR i
ENCODING 105
SWIDTH 600 0
DWIDTH 15 0
BBX 9 16 3 0
BITMAP
0800
0800
0800
0000
0000
7800
0800
0800
0800
0800
0800
0800
0800
0800
0800
FF80
ENDCHAR
STARTCHAR j
ENCODING 106
SWIDTH 600 0
DWIDTH 15 0
BBX 8 21 3 -5
BITMAP
02
02
02
00
00
FF
01
01
01
01
01
01
01
01
01
01
01
01
02
06
F8
ENDCHAR
STARTCHAR k
ENCODING 107
SWIDTH 600 0
DWIDTH 15 0
BBX 11 15 2 0
BITMAP
E000
2000
2000
2000
23C0
2100
2200
2400
2800
3800
2400
2200
2100
2080
E1E0
ENDCHAR
STARTCHAR l
ENCODING 108
SWIDTH 600 0
DWIDTH 15 0
BBX 11 15 2 0
BITMAP
7C00
0400
0400
0400
0400
0400
0400
0400
0400
0400
0400
0400
0400
0400
FFE0
ENDCHAR
STARTCHAR m
ENCODING 109
SWIDTH 600 0
DWIDTH 15 0
BBX 14 11 0 0
BITMAP
EE70
3188
2108
2108
2108
2108
2108
2108
2108
2108
F98C
ENDCHAR
STARTCHAR n
ENCODING 110
SWIDTH 600 0
DWIDTH 15 0
BBX 13 11 1 0
BITMAP
E780
2840
3020
2020
2020
2020
2020
2020
2020
2020
F8F8
ENDCHAR
STARTCHAR o
ENCODING 111
SWIDTH 600 0
DWIDTH 15 0
BBX 11 11 2 0
BITMAP
1F00
60C0
4040
8020
8020
8020
8020
8020
4040
60C0
1F00
ENDCHAR
STARTCHAR p
ENCODING 112
SWIDTH 600 0
DWIDTH 15 0
BBX 13 16 1 -5
BITMAP
E7C0
2830
3010
2008
2008
2008
2008
2008
3010
2830
27C0
2000
2000
2000
2000
FC00
ENDCHAR
STARTCHAR q
ENCODING 113
SWIDTH 600 0
DWIDTH 15 0
BBX 13 16 1 -5
BITMAP
1F38
60A0
4060
8020
8020
8020
8020
8020
4060
60A0
1F20
0020
0020
0020
0020
01F8
ENDCHAR
STARTCHAR r
ENCODING 114
SWIDTH 600 0
DWIDTH 15 0
BBX 11 11 2 0
BITMAP
71C0
1620
1800
1000
1000
1000
1000
1000
1000
1000
FF80
ENDCHAR
STARTCHAR s
ENCODING 115
SWIDTH 600 0
DWIDTH 15 0
BBX 9 11 3 0
BITMAP
3E80
4180
4080
4000
3800
0700
0080
0080
8080
C100
BE00
ENDCHAR
STARTCHAR t
ENCODING 116
SWIDTH 600 0
DWIDTH 15 0
BBX 10 15 2 0
BITMAP
2000
2000
2000
2000
FF80
2000
2000
2000
2000
2000
2000
2000
2000
10C0
0F00
ENDCHAR
STARTCHAR u
ENCODING 117
SWIDTH 600 0
DWIDTH 15 0
BBX 12 11 1 0
BITMAP
E0E0
2020
2020
2020
2020
2020
2020
2020
2060
10A0
0F30
ENDCHAR
STARTCHAR v
ENCODING 118
SWIDTH 600 0
DWIDTH 15 0
BBX 13 11 1 0
BITMAP
F8F8
2020
2020
1040
1040
1040
0880
0880
0500
0700
0200
ENDCHAR
STARTCHAR w
ENCODING 119
SWIDTH 600 0
DWIDTH 15 0
BBX 13 11 1 0
BITMAP
F078
4010
4010
4210
2220
2520
2520
2520
1540
18C0
18C0
ENDCHAR
STARTCHAR x
ENCODING 120
SWIDTH 600 0
DWIDTH 15 0
BBX 11 11 2 0
BITMAP
F1E0
4040
2080
1100
0A00
0400
0A00
1100
2080
4040
F1E0
ENDCHAR
STARTCHAR y
ENCODING 121
SWIDTH 600 0
DWIDTH 15 0
BBX 12 16 1 -5
BITMAP
F0F0
4020
4020
2040
2040
2080
1080
1100
0900
0A00
0600
0400
0400
0800
0800
FE00
ENDCHAR
STARTCHAR z
ENCODING 122
SWIDTH 600 0
DWIDTH 15 0
BBX 9 11 3 0
BITMAP
FF80
8080
8100
0200
0400
0800
1000
2000
4080
8080
FF80
ENDCHAR
STARTCHAR braceleft
ENCODING 123
SWIDTH 600 0
DWIDTH 15 0
BBX 5 19 5 -3
BITMAP
18
20
20
20
20
20
20
20
20
C0
20
20
20
20
20
20
20
20
18
ENDCHAR
STARTCHAR bar
ENCODING 124
SWIDTH 600 0
DWIDTH 15 0
BBX 1 17 7 -3
BITMAP
80
80
80
80
80
80
80
80
80
80
80
80
80
80
80
80
80
ENDCHAR
STARTCHAR braceright
ENCODING 125
SWIDTH 600 0
DWIDTH 15 0
BBX 5 19 5 -3
BITMAP
C0
20
20
20
20
20
20
20
20
18
20
20
20
20
20
20
20
20
C0
ENDCHAR
STARTCHAR asciitilde
ENCODING 126
SWIDTH 600 0
DWIDTH 15 0
BBX 12 3 1 6
BITMAP
3C30
6660
C3C0
ENDCHAR
STARTCHAR space
ENCODING 160
SWIDTH 600 0
DWIDTH 15 0
BBX 1 1 0 0
BITMAP
00
ENDCHAR
STARTCHAR exclamdown
ENCODING 161
SWIDTH 600 0
DWIDTH 15 0
BBX 2 16 6 -5
BITMAP
C0
C0
00
00
00
80
80
80
C0
C0
C0
C0
C0
C0
C0
C0
ENDCHAR
STARTCHAR cent
ENCODING 162
SWIDTH 600 0
DWIDTH 15 0
BBX 8 16 3 0
BITMAP
08
08
08
08
1D
63
41
80
80
80
40
63
1C
08
08
08
ENDCHAR
STARTCHAR sterling
ENCODING 163
SWIDTH 600 0
DWIDTH 15 0
BBX 10 14 2 0
BITMAP
0E00
1180
2000
2000
2000
2000
FE00
1000
1000
1000
1000
2040
4040
FF80
ENDCHAR
STARTCHAR currency
ENCODING 164
SWIDTH 600 0
DWIDTH 15 0
BBX 10 10 2 2
BITMAP
8040
5E80
2100
4080
4080
4080
4080
2100
5E80
8040
ENDCHAR
STARTCHAR yen
ENCODING 165
SWIDTH 600 0
DWIDTH 15 0
BBX 11 14 2 0
BITMAP
F1E0
4040
2080
2080
1100
1100
0A00
7FC0
0400
0400
7FC0
0400
0400
3F80
ENDCHAR
STARTCHAR brokenbar
ENCODING 166
SWIDTH 600 0
DWIDTH 15 0
BBX 1 19 7 -3
BITMAP
80
80
80
80
80
80
80
80
00
00
00
80
80
80
80
80
80
80
80
ENDCHAR
STARTCHAR section
ENCODING 167
SWIDTH 600 0
DWIDTH 15 0
BBX 10 18 2 -2
BITMAP
0FC0
1040
2040
2040
2000
7000
8C00
8200
4100
2080
1040
0C40
0380
0100
8100
8100
8200
FC00
ENDCHAR
STARTCHAR dieresis
ENCODING 168
SWIDTH 600 0
DWIDTH 15 0
BBX 7 2 4 12
BITMAP
C6
C6
ENDCHAR
STARTCHAR copyright
ENCODING 169
SWIDTH 600 0
DWIDTH 15 0
BBX 13 13 1 1
BITMAP
0F80
3060
4010
4690
8988
9088
9008
9008
8888
4710
4010
3060
0F80
ENDCHAR
STARTCHAR ordfeminine
ENCODING 170
SWIDTH 600 0
DWIDTH 15 0
BBX 7 9 4 5
BITMAP
78
84
3C
44
84
8C
76
00
FE
ENDCHAR
STARTCHAR guillemotleft
ENCODING 171
SWIDTH 600 0
DWIDTH 15 0
BBX 12 11 1 0
BITMAP
0630
0C60
18C0
3180
6300
C600
6300
3180
18C0
0C60
0630
ENDCHAR
STARTCHAR logicalnot
ENCODING 172
SWIDTH 600 0
DWIDTH 15 0
BBX 11 4 2 5
BITMAP
FFE0
0020
0020
0020
ENDCHAR
STARTCHAR hyphen
ENCODING 173
SWIDTH 600 0
DWIDTH 15 0
BBX 10 1 2 7
BITMAP
FFC0
ENDCHAR
STARTCHAR registered
ENCODING 174
SWIDTH 600 0
DWIDTH 15 0
BBX 13 13 1 1
BITMAP
0F80
3060
4010
4F10
8888
8888
8F08
8908
8888
4890
4010
3060
0F80
ENDCHAR
STARTCHAR macron
ENCODING 175
SWIDTH 600 0
DWIDTH 15 0
BBX 7 1 4 12
BITMAP
FE
ENDCHAR
STARTCHAR degree
ENCODING 176
SWIDTH 600 0
DWIDTH 15 0
BBX 7 7 4 9
BITMAP
38
44
82
82
82
44
38
ENDCHAR
STARTCHAR plusminus
ENCODING 177
SWIDTH 600 0
DWIDTH 15 0
BBX 11 13 2 1
BITMAP
0400
0400
0400
0400
0400
FFE0
0400
0400
0400
0400
0400
0000
FFE0
ENDCHAR
STARTCHAR twosuperior
ENCODING 178
SWIDTH 600 0
DWIDTH 15 0
BBX 6 9 4 7
BITMAP
38
44
84
04
08
10
20
44
FC
ENDCHAR
STARTCHAR threesuperior
ENCODING 179
SWIDTH 600 0
DWIDTH 15 0
BBX 6 9 4 7
BITMAP
78
84
04
08
38
04
04
84
78
ENDCHAR
STARTCHAR acute
ENCODING 180
SWIDTH 600 0
DWIDTH 15 0
BBX 5 4 5 12
BITMAP
18
30
60
C0
ENDCHAR
STARTCHAR mu
ENCODING 181
SWIDTH 600 0
DWIDTH 15 0
BBX 12 16 1 -5
BITMAP
E0E0
2020
2020
2020
2020
2020
2020
2020
2060
30A0
2F30
2000
2000
2000
2000
2000
ENDCHAR
STARTCHAR paragraph
ENCODING 182
SWIDTH 600 0
DWIDTH 15 0
BBX 11 18 2 -2
BITMAP
1FE0
6480
C480
C480
C480
C480
C480
6480
1C80
0480
0480
0480
0480
0480
0480
0480
0480
3CE0
ENDCHAR
STARTCHAR periodcentered
ENCODING 183
SWIDTH 600 0
DWIDTH 15 0
BBX 3 3 6 6
BITMAP
E0
E0
E0
ENDCHAR
STARTCHAR cedilla
ENCODING 184
SWIDTH 600 0
DWIDTH 15 0
BBX 4 5 5 -4
BITMAP
20
20
10
90
60
ENDCHAR
STARTCHAR onesuperior
ENCODING 185
SWIDTH 600 0
DWIDTH 15 0
BBX 7 9 4 7
BITMAP
30
D0
10
10
10
10
10
10
FE
ENDCHAR
STARTCHAR ordmasculine
ENCODING 186
SWIDTH 600 0
DWIDTH 15 0
BBX 7 9 4 5
BITMAP
38
44
82
82
82
44
38
00
FE
ENDCHAR
STARTCHAR guillemotright
ENCODING 187
SWIDTH 600 0
DWIDTH 15 0
BBX 12 11 1 0
BITMAP
C600
6300
3180
18C0
0C60
0630
0C60
18C0
3180
6300
C600
ENDCHAR
STARTCHAR onequarter
ENCODING 188
SWIDTH 600 0
DWIDTH 15 0
BBX 14 16 0 0
BITMAP
3000
D000
1008
1010
1020
1020
1040
1098
FF28
0248
0448
0488
0908
11FC
0008
001C
ENDCHAR
STARTCHAR onehalf
ENCODING 189
SWIDTH 600 0
DWIDTH 15 0
BBX 14 16 0 0
BITMAP
3000
D000
1008
1010
1020
1020
1040
10B8
FF44
0284
0404
0408
0810
1020
0044
00FC
ENDCHAR
STARTCHAR threequarters
ENCODING 190
SWIDTH 600 0
DWIDTH 15 0
BBX 14 16 0 0
BITMAP
7800
8400
0408
0810
3820
0420
0440
8498
7928
0248
0448
0488
0908
11FC
0008
001C
ENDCHAR
STARTCHAR questiondown
ENCODING 191
SWIDTH 600 0
DWIDTH 15 0
BBX 8 14 3 -3
BITMAP
18
18
00
00
08
08
30
40
80
80
80
81
41
3E
ENDCHAR
STARTCHAR Agrave
ENCODING 192
SWIDTH 600 0
DWIDTH 15 0
BBX 13 19 1 0
BITMAP
1800
0C00
0600
0300
0000
3F00
0500
0880
0880
0880
1040
1040
1040
3FE0
2020
2020
4010
4010
F078
ENDCHAR
STARTCHAR Aacute
ENCODING 193
SWIDTH 600 0
DWIDTH 15 0
BBX 13 19 1 0
BITMAP
00C0
0180
0300
0600
0000
3F00
0500
0880
0880
0880
1040
1040
1040
3FE0
2020
2020
4010
4010
F078
ENDCHAR
STARTCHAR Acircumflex
ENCODING 194
SWIDTH 600 0
DWIDTH 15 0
BBX 13 19 1 0
BITMAP
0600
0F00
1980
30C0
0000
3F00
0500
0880
0880
0880
1040
1040
1040
3FE0
2020
2020
4010
4010
F078
ENDCHAR
STARTCHAR Atilde
ENCODING 195
SWIDTH 600 0
DWIDTH 15 0
BBX 13 18 1 0
BITMAP
1C40
36C0
2380
0000
3F00
0500
0880
0880
0880
1040
1040
1040
3FE0
2020
2020
4010
4010
F078
ENDCHAR
STARTCHAR Adieresis
ENCODING 196
SWIDTH 600 0
DWIDTH 15 0
BBX 13 18 1 0
BITMAP
18C0
18C0
0000
0000
3F00
0500
0880
0880
0880
1040
1040
1040
3FE0
2020
2020
4010
4010
F078
ENDCHAR
STARTCHAR Aring
ENCODING 197
SWIDTH 600 0
DWIDTH 15 0
BBX 13 19 1 0
BITMAP
0700
0880
0880
0880
0700
3F00
0500
0880
0880
0880
1040
1040
1040
3FE0
2020
2020
4010
4010
F078
ENDCHAR
STARTCHAR AE
ENCODING 198
SWIDTH 600 0
DWIDTH 15 0
BBX 15 14 -1 0
BITMAP
0FFE
0282
0482
0482
0488
0888
08F8
0888
1F88
1082
1082
2082
2082
F3FE
ENDCHAR
STARTCHAR Ccedilla
ENCODING 199
SWIDTH 600 0
DWIDTH 15 0
BBX 11 18 2 -4
BITMAP
0F20
30E0
6060
4020
8000
8000
8000
8000
8000
8000
4020
6060
30C0
0F00
0400
0200
1200
0C00
ENDCHAR
STARTCHAR Egrave
ENCODING 200
SWIDTH 600 0
DWIDTH 15 0
BBX 12 19 1 0
BITMAP
1800
0C00
0600
0300
0000
FFE0
2020
2020
2020
2200
2200
3E00
2200
2200
2010
2010
2010
2010
FFF0
ENDCHAR
STARTCHAR Eacute
ENCODING 201
SWIDTH 600 0
DWIDTH 15 0
BBX 12 19 1 0
BITMAP
00C0
0180
0300
0600
0000
FFE0
2020
2020
2020
2200
2200
3E00
2200
2200
2010
2010
2010
2010
FFF0
ENDCHAR
STARTCHAR Ecircumflex
ENCODING 202
SWIDTH 600 0
DWIDTH 15 0
BBX 12 19 1 0
BITMAP
0600
0F00
1980
30C0
0000
FFE0
2020
2020
2020
2200
2200
3E00
2200
2200
2010
2010
2010
2010
FFF0
ENDCHAR
STARTCHAR Edieresis
ENCODING 203
SWIDTH 600 0
DWIDTH 15 0
BBX 12 18 1 0
BITMAP
1980
1980
0000
0000
FFE0
2020
2020
2020
2200
2200
3E00
2200
2200
2010
2010
2010
2010
FFF0
ENDCHAR
STARTCHAR Igrave
ENCODING 204
SWIDTH 600 0
DWIDTH 15 0
BBX 9 19 3 0
BITMAP
6000
3000
1800
0C00
0000
FF80
0800
0800
0800
0800
0800
0800
0800
0800
0800
0800
0800
0800
FF80
ENDCHAR
STARTCHAR Iacute
ENCODING 205
SWIDTH 600 0
DWIDTH 15 0
BBX 9 19 3 0
BITMAP
0300
0600
0C00
1800
0000
FF80
0800
0800
0800
0800
0800
0800
0800
0800
0800
0800
0800
0800
FF80
ENDCHAR
STARTCHAR Icircumflex
ENCODING 206
SWIDTH 600 0
DWIDTH 15 0
BBX 9 19 3 0
BITMAP
1800
3C00
6600
C300
0000
FF80
0800
0800
0800
0800
0800
0800
0800
0800
0800
0800
0800
0800
FF80
ENDCHAR
STARTCHAR Idieresis
ENCODING 207
SWIDTH 600 0
DWIDTH 15 0
BBX 9 18 3 0
BITMAP
6300
6300
0000
0000
FF80
0800
0800
0800
0800
0800
0800
0800
0800
0800
0800
0800
0800
FF80
ENDCHAR
STARTCHAR Eth
ENCODING 208
SWIDTH 600 0
DWIDTH 15 0
BBX 13 14 0 0
BITMAP
7FC0
2030
2010
2008
2008
2008
FC08
2008
2008
2008
2008
2010
2030
7FC0
ENDCHAR
STARTCHAR Ntilde
ENCODING 209
SWIDTH 600 0
DWIDTH 15 0
BBX 14 18 0 0
BITMAP
0E20
1B60
11C0
0000
F0FC
3010
2810
2410
2410
2210
2210
2110
2110
2090
2090
2050
2030
FC30
ENDCHAR
STARTCHAR Ograve
ENCODING 210
SWIDTH 600 0
DWIDTH 15 0
BBX 13 19 1 0
BITMAP
1800
0C00
0600
0300
0000
0F80
3060
6030
4010
8008
8008
8008
8008
8008
8008
4010
6030
3060
0F80
ENDCHAR
STARTCHAR Oacute
ENCODING 211
SWIDTH 600 0
DWIDTH 15 0
BBX 13 19 1 0
BITMAP
0060
00C0
0180
0300
0000
0F80
3060
6030
4010
8008
8008
8008
8008
8008
8008
4010
6030
3060
0F80
ENDCHAR
STARTCHAR Ocircumflex
ENCODING 212
SWIDTH 600 0
DWIDTH 15 0
BBX 13 19 1 0
BITMAP
0300
0780
0CC0
1860
0000
0F80
3060
6030
4010
8008
8008
8008
8008
8008
8008
4010
6030
3060
0F80
ENDCHAR
STARTCHAR Otilde
ENCODING 213
SWIDTH 600 0
DWIDTH 15 0
BBX 13 18 1 0
BITMAP
0E20
1B60
11C0
0000
0F80
3060
6030
4010
8008
8008
8008
8008
8008
8008
4010
6030
3060
0F80
ENDCHAR
STARTCHAR Odieresis
ENCODING 214
SWIDTH 600 0
DWIDTH 15 0
BBX 13 18 1 0
BITMAP
18C0
18C0
0000
0000
0F80
3060
6030
4010
8008
8008
8008
8008
8008
8008
4010
6030
3060
0F80
ENDCHAR
STARTCHAR multiply
ENCODING 215
SWIDTH 600 0
DWIDTH 15 0
BBX 11 11 2 2
BITMAP
8020
4040
2080
1100
0A00
0400
0A00
1100
2080
4040
8020
ENDCHAR
STARTCHAR Oslash
ENCODING 216
SWIDTH 600 0
DWIDTH 15 0
BBX 14 15 0 0
BITMAP
0004
07C8
1830
3030
2048
4088
4088
4108
4208
4408
4808
3010
3030
5860
8780
ENDCHAR
STARTCHAR Ugrave
ENCODING 217
SWIDTH 600 0
DWIDTH 15 0
BBX 12 19 1 0
BITMAP
1800
0C00
0600
0300
0000
F9F0
4020
4020
4020
4020
4020
4020
4020
4020
4020
4020
4020
2040
1F80
ENDCHAR
STARTCHAR Uacute
ENCODING 218
SWIDTH 600 0
DWIDTH 15 0
BBX 12 19 1 0
BITMAP
00C0
0180
0300
0600
0000
F9F0
4020
4020
4020
4020
4020
4020
4020
4020
4020
4020
4020
2040
1F80
ENDCHAR
STARTCHAR Ucircumflex
ENCODING 219
SWIDTH 600 0
DWIDTH 15 0
BBX 12 19 1 0
BITMAP
0600
0F00
1980
30C0
0000
F9F0
4020
4020
4020
4020
4020
4020
4020
4020
4020
4020
4020
2040
1F80
ENDCHAR
STARTCHAR Udieresis
ENCODING 220
SWIDTH 600 0
DWIDTH 15 0
BBX 12 18 1 0
BITMAP
1980
1980
0000
0000
F9F0
4020
4020
4020
4020
4020
4020
4020
4020
4020
4020
4020
2040
1F80
ENDCHAR
STARTCHAR Yacute
ENCODING 221
SWIDTH 600 0
DWIDTH 15 0
BBX 13 19 1 0
BITMAP
00C0
0180
0300
0600
0000
F078
2020
1040
1040
0880
0880
0500
0200
0200
0200
0200
0200
0200
1FC0
ENDCHAR
STARTCHAR Thorn
ENCODING 222
SWIDTH 600 0
DWIDTH 15 0
BBX 11 14 2 0
BITMAP
F800
2000
2000
3F80
2040
2020
2020
2020
2020
2040
3F80
2000
2000
F800
ENDCHAR
STARTCHAR germandbls
ENCODING 223
SWIDTH 600 0
DWIDTH 15 0
BBX 11 16 2 0
BITMAP
0E00
1100
2080
2080
2080
2080
2100
2700
20C0
2040
2020
2020
2020
2420
2440
F380
ENDCHAR
STARTCHAR agrave
ENCODING 224
SWIDTH 600 0
DWIDTH 15 0
BBX 11 16 2 0
BITMAP
3000
1800
0C00
0600
0000
1E00
6100
0080
0080
0080
3F80
4080
8080
8080
8180
7EE0
ENDCHAR
STARTCHAR aacute
ENCODING 225
SWIDTH 600 0
DWIDTH 15 0
BBX 11 16 2 0
BITMAP
0180
0300
0600
0C00
0000
1E00
6100
0080
0080
0080
3F80
4080
8080
8080
8180
7EE0
ENDCHAR
STARTCHAR acircumflex
ENCODING 226
SWIDTH 600 0
DWIDTH 15 0
BBX 11 16 2 0
BITMAP
0C00
1E00
3300
6180
0000
1E00
6100
0080
0080
0080
3F80
4080
8080
8080
8180
7EE0
ENDCHAR
STARTCHAR atilde
ENCODING 227
SWIDTH 600 0
DWIDTH 15 0
BBX 11 15 2 0
BITMAP
3880
6D80
4700
0000
1E00
6100
0080
0080
0080
3F80
4080
8080
8080
8180
7EE0
ENDCHAR
STARTCHAR adieresis
ENCODING 228
SWIDTH 600 0
DWIDTH 15 0
BBX 11 15 2 0
BITMAP
3180
3180
0000
0000
1E00
6100
0080
0080
0080
3F80
4080
8080
8080
8180
7EE0
ENDCHAR
STARTCHAR aring
ENCODING 229
SWIDTH 600 0
DWIDTH 15 0
BBX 11 17 2 0
BITMAP
0E00
1100
1100
1100
0E00
0000
1E00
6100
0080
0080
0080
3F80
4080
8080
8080
8180
7EE0
ENDCHAR
STARTCHAR ae
ENCODING 230
SWIDTH 600 0
DWIDTH 15 0
BBX 15 11 0 0
BITMAP
1C70
628C
4104
0102
0102
3FFE
4100
8100
8102
8284
7C78
ENDCHAR
STARTCHAR ccedilla
ENCODING 231
SWIDTH 600 0
DWIDTH 15 0
BBX 11 15 2 -4
BITMAP
1F40
60C0
4040
8040
8000
8000
8000
8000
4060
60C0
1F00
0400
0200
1200
0C00
ENDCHAR
STARTCHAR egrave
ENCODING 232
SWIDTH 600 0
DWIDTH 15 0
BBX 11 16 2 0
BITMAP
3000
1800
0C00
0600
0000
1F00
60C0
4040
8020
8020
FFE0
8000
8000
4000
6060
1F80
ENDCHAR
STARTCHAR eacute
ENCODING 233
SWIDTH 600 0
DWIDTH 15 0
BBX 11 16 2 0
BITMAP
0180
0300
0600
0C00
0000
1F00
60C0
4040
8020
8020
FFE0
8000
8000
4000
6060
1F80
ENDCHAR
STARTCHAR ecircumflex
ENCODING 234
SWIDTH 600 0
DWIDTH 15 0
BBX 11 16 2 0
BITMAP
0C00
1E00
3300
6180
0000
1F00
60C0
4040
8020
8020
FFE0
8000
8000
4000
6060
1F80
ENDCHAR
STARTCHAR edieresis
ENCODING 235
SWIDTH 600 0
DWIDTH 15 0
BBX 11 15 2 0
BITMAP
3180
3180
0000
0000
1F00
60C0
4040
8020
8020
FFE0
8000
8000
4000
6060
1F80
ENDCHAR
STARTCHAR igrave
ENCODING 236
SWIDTH 600 0
DWIDTH 15 0
BBX 9 16 3 0
BITMAP
6000
3000
1800
0C00
0000
7800
0800
0800
0800
0800
0800
0800
0800
0800
0800
FF80
ENDCHAR
STARTCHAR iacute
ENCODING 237
SWIDTH 600 0
DWIDTH 15 0
BBX 9 16 3 0
BITMAP
0300
0600
0C00
1800
0000
7800
0800
0800
0800
0800
0800
0800
0800
0800
0800
FF80
ENDCHAR
STARTCHAR icircumflex
ENCODING 238
SWIDTH 600 0
DWIDTH 15 0
BBX 9 16 3 0
BITMAP
1800
3C00
6600
C300
0000
7800
0800
0800
0800
0800
0800
0800
0800
0800
0800
FF80
ENDCHAR
STARTCHAR idieresis
ENCODING 239
SWIDTH 600 0
DWIDTH 15 0
BBX 9 15 3 0
BITMAP
6300
6300
0000
0000
7800
0800
0800
0800
0800
0800
0800
0800
0800
0800
FF80
ENDCHAR
STARTCHAR eth
ENCODING 240
SWIDTH 600 0
DWIDTH 15 0
BBX 12 16 1 0
BITMAP
7CC0
8700
0D00
3080
0040
0FE0
3060
2030
4010
4010
4010
4010
4010
2020
3060
0F80
ENDCHAR
STARTCHAR ntilde
ENCODING 241
SWIDTH 600 0
DWIDTH 15 0
BBX 13 15 1 0
BITMAP
1C40
36C0
2380
0000
E780
2840
3020
2020
2020
2020
2020
2020
2020
2020
F8F8
ENDCHAR
STARTCHAR ograve
ENCODING 242
SWIDTH 600 0
DWIDTH 15 0
BBX 11 16 2 0
BITMAP
1800
0C00
0600
0300
0000
1F00
60C0
4040
8020
8020
8020
8020
8020
4040
60C0
1F00
ENDCHAR
STARTCHAR oacute
ENCODING 243
SWIDTH 600 0
DWIDTH 15 0
BBX 11 16 2 0
BITMAP
0180
0300
0600
0C00
0000
1F00
60C0
4040
8020
8020
8020
8020
8020
4040
60C0
1F00
ENDCHAR
STARTCHAR ocircumflex
ENCODING 244
SWIDTH 600 0
DWIDTH 15 0
BBX 11 16 2 0
BITMAP
0C00
1E00
3300
6180
0000
1F00
60C0
4040
8020
8020
8020
8020
8020
4040
60C0
1F00
ENDCHAR
STARTCHAR otilde
ENCODING 245
SWIDTH 600 0
DWIDTH 15 0
BBX 11 15 2 0
BITMAP
1C40
36C0
2380
0000
1F00
60C0
4040
8020
8020
8020
8020
8020
4040
60C0
1F00
ENDCHAR
STARTCHAR odieresis
ENCODING 246
SWIDTH 600 0
DWIDTH 15 0
BBX 11 15 2 0
BITMAP
3180
3180
0000
0000
1F00
60C0
4040
8020
8020
8020
8020
8020
4040
60C0
1F00
ENDCHAR
STARTCHAR divide
ENCODING 247
SWIDTH 600 0
DWIDTH 15 0
BBX 11 9 2 3
BITMAP
0E00
0E00
0000
0000
FFE0
0000
0000
0E00
0E00
ENDCHAR
STARTCHAR oslash
ENCODING 248
SWIDTH 600 0
DWIDTH 15 0
BBX 12 12 1 0
BITMAP
0010
0FA0
3040
20A0
4110
4210
4410
4810
5010
2020
5060
8F80
ENDCHAR
STARTCHAR ugrave
ENCODING 249
SWIDTH 600 0
DWIDTH 15 0
BBX 12 16 1 0
BITMAP
1800
0C00
0600
0300
0000
E0E0
2020
2020
2020
2020
2020
2020
2020
2060
10A0
0F30
ENDCHAR
STARTCHAR uacute
ENCODING 250
SWIDTH 600 0
DWIDTH 15 0
BBX 12 16 1 0
BITMAP
00C0
0180
0300
0600
0000
E0E0
2020
2020
2020
2020
2020
2020
2020
2060
10A0
0F30
ENDCHAR
STARTCHAR ucircumflex
ENCODING 251
SWIDTH 600 0
DWIDTH 15 0
BBX 12 16 1 0
BITMAP
0600
0F00
1980
30C0
0000
E0E0
2020
2020
2020
2020
2020
2020
2020
2060
10A0
0F30
ENDCHAR
STARTCHAR udieresis
ENCODING 252
SWIDTH 600 0
DWIDTH 15 0
BBX 12 15 1 0
BITMAP
1980
1980
0000
0000
E0E0
2020
2020
2020
2020
2020
2020
2020
2060
10A0
0F30
ENDCHAR
STARTCHAR yacute
ENCODING 253
SWIDTH 600 0
DWIDTH 15 0
BBX 12 21 1 -5
BITMAP
00C0
0180
0300
0600
0000
F0F0
4020
4020
2040
2040
2080
1080
1100
0900
0A00
0600
0400
0400
0800
0800
FE00
ENDCHAR
STARTCHAR thorn
ENCODING 254
SWIDTH 600 0
DWIDTH 15 0
BBX 13 21 1 -5
BITMAP
E000
2000
2000
2000
2000
27C0
3830
3010
2008
2008
2008
2008
2008
3010
3830
27C0
2000
2000
2000
2000
FC00
ENDCHAR
STARTCHAR ydieresis
ENCODING 255
SWIDTH 600 0
DWIDTH 15 0
BBX 12 20 1 -5
BITMAP
1980
1980
0000
0000
F0F0
4020
4020
2040
2040
2080
1080
1100
0900
0A00
0600
0400
0400
0800
0800
FE00
ENDCHAR
STARTCHAR Amacron
ENCODING 256
SWIDTH 600 0
DWIDTH 15 0
BBX 13 16 1 0
BITMAP
1FC0
0000
3F00
0500
0880
0880
0880
1040
1040
1040
3FE0
2020
2020
4010
4010
F078
ENDCHAR
STARTCHAR amacron
ENCODING 257
SWIDTH 600 0
DWIDTH 15 0
BBX 11 13 2 0
BITMAP
3F80
0000
3E00
4100
0080
0080
3E80
4180
8080
8080
8080
4180
3EE0
ENDCHAR
STARTCHAR Abreve
ENCODING 258
SWIDTH 600 0
DWIDTH 15 0
BBX 13 18 1 0
BITMAP
30C0
1980
0F00
0000
3F00
0500
0880
0880
0880
1040
1040
1040
3FE0
2020
2020
4010
4010
F078
ENDCHAR
STARTCHAR abreve
ENCODING 259
SWIDTH 600 0
DWIDTH 15 0
BBX 11 15 2 0
BITMAP
6180
3300
1E00
0000
3E00
4100
0080
0080
3E80
4180
8080
8080
8080
4180
3EE0
ENDCHAR
STARTCHAR Aogonek
ENCODING 260
SWIDTH 600 0
DWIDTH 15 0
BBX 13 18 1 -4
BITMAP
3F00
0500
0880
0880
0880
1040
1040
1040
3FE0
2020
2020
4010
4010
F178
0200
0400
0480
0300
ENDCHAR
STARTCHAR aogonek
ENCODING 261
SWIDTH 600 0
DWIDTH 15 0
BBX 11 15 2 -4
BITMAP
3E00
4100
0080
0080
3E80
4180
8080
8080
8080
4180
3EE0
0400
0800
0900
0600
ENDCHAR
STARTCHAR Cacute
ENCODING 262
SWIDTH 600 0
DWIDTH 15 0
BBX 11 19 2 0
BITMAP
0180
0300
0600
0C00
0000
0F20
30A0
6060
4020
8000
8000
8000
8000
8000
8000
4020
6060
30C0
0F00
ENDCHAR
STARTCHAR cacute
ENCODING 263
SWIDTH 600 0
DWIDTH 15 0
BBX 11 16 2 0
BITMAP
0180
0300
0600
0C00
0000
1F40
60C0
4040
8040
8000
8000
8000
8000
4060
60C0
1F00
ENDCHAR
STARTCHAR Ccircumflex
ENCODING 264
SWIDTH 600 0
DWIDTH 15 0
BBX 11 19 2 0
BITMAP
0600
0F00
1980
30C0
0000
0F20
30A0
6060
4020
8000
8000
8000
8000
8000
8000
4020
6060
30C0
0F00
ENDCHAR
STARTCHAR ccircumflex
ENCODING 265
SWIDTH 600 0
DWIDTH 15 0
BBX 11 16 2 0
BITMAP
0600
0F00
1980
30C0
0000
1F40
60C0
4040
8040
8000
8000
8000
8000
4060
60C0
1F00
ENDCHAR
STARTCHAR Cdotaccent
ENCODING 266
SWIDTH 600 0
DWIDTH 15 0
BBX 11 17 2 0
BITMAP
0600
0600
0000
0F20
30A0
6060
4020
8000
8000
8000
8000
8000
8000
4020
6060
30C0
0F00
ENDCHAR
STARTCHAR cdotaccent
ENCODING 267
SWIDTH 600 0
DWIDTH 15 0
BBX 11 14 2 0
BITMAP
0600
0600
0000
1F40
60C0
4040
8040
8000
8000
8000
8000
4060
60C0
1F00
ENDCHAR
STARTCHAR Ccaron
ENCODING 268
SWIDTH 600 0
DWIDTH 15 0
BBX 11 19 2 0
BITMAP
30C0
1980
0F00
0600
0000
0F20
30A0
6060
4020
8000
8000
8000
8000
8000
8000
4020
6060
30C0
0F00
ENDCHAR
STARTCHAR ccaron
ENCODING 269
SWIDTH 600 0
DWIDTH 15 0
BBX 11 16 2 0
BITMAP
30C0
1980
0F00
0600
0000
1F40
60C0
4040
8040
8000
8000
8000
8000
4060
60C0
1F00
ENDCHAR
STARTCHAR Dcaron
ENCODING 270
SWIDTH 600 0
DWIDTH 15 0
BBX 12 19 1 0
BITMAP
30C0
1980
0F00
0600
0000
FF80
4060
4020
4010
4010
4010
4010
4010
4010
4010
4010
4020
4060
FF80
ENDCHAR
STARTCHAR dcaron
ENCODING 271
SWIDTH 600 0
DWIDTH 15 0
BBX 13 20 1 0
BITMAP
0618
0330
01E0
00C0
0000
00E0
0020
0020
0020
1F20
60A0
4060
8020
8020
8020
8020
8020
4060
60A0
1F38
ENDCHAR
STARTCHAR Dcroat
ENCODING 272
SWIDTH 600 0
DWIDTH 15 0
BBX 13 14 0 0
BITMAP
7FC0
2030
2010
2008
2008
2008
FC08
2008
2008
2008
2008
2010
2030
7FC0
ENDCHAR
STARTCHAR dcroat
ENCODING 273
SWIDTH 600 0
DWIDTH 15 0
BBX 14 15 1 0
BITMAP
00E0
0020
07FC
0020
1F20
60A0
4060
8020
8020
8020
8020
8020
4060
60A0
1F38
ENDCHAR
STARTCHAR Emacron
ENCODING 274
SWIDTH 600 0
DWIDTH 15 0
BBX 12 16 1 0
BITMAP
3F80
0000
FFE0
2020
2020
2020
2200
2200
3E00
2200
2200
2010
2010
2010
2010
FFF0
ENDCHAR
STARTCHAR emacron
ENCODING 275
SWIDTH 600 0
DWIDTH 15 0
BBX 11 13 2 0
BITMAP
3F80
0000
1F00
60C0
4040
8020
8020
FFE0
8000
8000
4000
6060
1F80
ENDCHAR
STARTCHAR Ebreve
ENCODING 276
SWIDTH 600 0
DWIDTH 15 0
BBX 12 18 1 0
BITMAP
30C0
1980
0F00
0000
FFE0
2020
2020
2020
2200
2200
3E00
2200
2200
2010
2010
2010
2010
FFF0
ENDCHAR
STARTCHAR ebreve
ENCODING 277
SWIDTH 600 0
DWIDTH 15 0
BBX 11 15 2 0
BITMAP
30C0
1980
0F00
0000
1F00
60C0
4040
8020
8020
FFE0
8000
8000
4000
6060
1F80
ENDCHAR
STARTCHAR Edotaccent
ENCODING 278
SWIDTH 600 0
DWIDTH 15 0
BBX 12 17 1 0
BITMAP
0600
0600
0000
FFE0
2020
2020
2020
2200
2200
3E00
2200
2200
2010
2010
2010
2010
FFF0
ENDCHAR
STARTCHAR edotaccent
ENCODING 279
SWIDTH 600 0
DWIDTH 15 0
BBX 11 14 2 0
BITMAP
0600
0600
0000
1F00
60C0
4040
8020
8020
FFE0
8000
8000
4000
6060
1F80
ENDCHAR
STARTCHAR Eogonek
ENCODING 280
SWIDTH 600 0
DWIDTH 15 0
BBX 12 18 1 -4
BITMAP
FFE0
2020
2020
2020
2200
2200
3E00
2200
2200
2010
2010
2010
2010
FFF0
0400
0800
0900
0600
ENDCHAR
STARTCHAR eogonek
ENCODING 281
SWIDTH 600 0
DWIDTH 15 0
BBX 11 15 2 -4
BITMAP
1F00
60C0
4040
8020
8020
FFE0
8000
8000
4000
6060
1F80
0400
0800
0900
0600
ENDCHAR
STARTCHAR Ecaron
ENCODING 282
SWIDTH 600 0
DWIDTH 15 0
BBX 12 19 1 0
BITMAP
30C0
1980
0F00
0600
0000
FFE0
2020
2020
2020
2200
2200
3E00
2200
2200
2010
2010
2010
2010
FFF0
ENDCHAR
STARTCHAR ecaron
ENCODING 283
SWIDTH 600 0
DWIDTH 15 0
BBX 11 16 2 0
BITMAP
30C0
1980
0F00
0600
0000
1F00
60C0
4040
8020
8020
FFE0
8000
8000
4000
6060
1F80
ENDCHAR
STARTCHAR Gcircumflex
ENCODING 284
SWIDTH 600 0
DWIDTH 15 0
BBX 12 19 1 0
BITMAP
0600
0F00
1980
30C0
0000
0F20
30A0
6060
4020
8000
8000
8000
8000
83F0
8020
4020
6020
3040
0F80
ENDCHAR
STARTCHAR gcircumflex
ENCODING 285
SWIDTH 600 0
DWIDTH 15 0
BBX 13 21 1 -5
BITMAP
0300
0780
0CC0
1860
0000
1F38
60A0
4060
8020
8020
8020
8020
8020
4060
60A0
1F20
0020
0020
0040
00C0
3F00
ENDCHAR
STARTCHAR Gbreve
ENCODING 286
SWIDTH 600 0
DWIDTH 15 0
BBX 12 18 1 0
BITMAP
30C0
1980
0F00
0000
0F20
30A0
6060
4020
8000
8000
8000
8000
83F0
8020
4020
6020
3040
0F80
ENDCHAR
STARTCHAR gbreve
ENCODING 287
SWIDTH 600 0
DWIDTH 15 0
BBX 13 20 1 -5
BITMAP
1860
0CC0
0780
0000
1F38
60A0
4060
8020
8020
8020
8020
8020
4060
60A0
1F20
0020
0020
0040
00C0
3F00
ENDCHAR
STARTCHAR Gdotaccent
ENCODING 288
SWIDTH 600 0
DWIDTH 15 0
BBX 12 17 1 0
BITMAP
0600
0600
0000
0F20
30A0
6060
4020
8000
8000
8000
8000
83F0
8020
4020
6020
3040
0F80
ENDCHAR
STARTCHAR gdotaccent
ENCODING 289
SWIDTH 600 0
DWIDTH 15 0
BBX 13 19 1 -5
BITMAP
0300
0300
0000
1F38
60A0
4060
8020
8020
8020
8020
8020
4060
60A0
1F20
0020
0020
0040
00C0
3F00
ENDCHAR
STARTCHAR Gcommaaccent
ENCODING 290
SWIDTH 600 0
DWIDTH 15 0
BBX 12 21 1 -7
BITMAP
0F20
30A0
6060
4020
8000
8000
8000
8000
83F0
8020
4020
6020
3040
0F80
0000
0700
0700
0E00
0C00
1800
1000
ENDCHAR
STARTCHAR gcommaaccent
ENCODING 291
SWIDTH 600 0
DWIDTH 15 0
BBX 13 23 1 -5
BITMAP
1C00
1C00
0E00
0600
0300
0100
0000
1F38
60A0
4060
8020
8020
8020
8020
8020
4060
60A0
1F20
0020
0020
0040
00C0
3F00
ENDCHAR
STARTCHAR Hcircumflex
ENCODING 292
SWIDTH 600 0
DWIDTH 15 0
BBX 13 19 1 0
BITMAP
0300
0780
0CC0
1860
0000
F8F8
2020
2020
2020
2020
2020
3FE0
2020
2020
2020
2020
2020
2020
F8F8
ENDCHAR
STARTCHAR hcircumflex
ENCODING 293
SWIDTH 600 0
DWIDTH 15 0
BBX 13 20 1 0
BITMAP
1800
3C00
6600
C300
0000
E000
2000
2000
2000
2780
2840
3020
2020
2020
2020
2020
2020
2020
2020
F8F8
ENDCHAR
STARTCHAR Hbar
ENCODING 294
SWIDTH 600 0
DWIDTH 15 0
BBX 13 14 1 0
BITMAP
F8F8
2020
FFF8
2020
2020
2020
3FE0
2020
2020
2020
2020
2020
2020
F8F8
ENDCHAR
STARTCHAR hbar
ENCODING 295
SWIDTH 600 0
DWIDTH 15 0
BBX 14 15 0 0
BITMAP
7000
1000
FF80
1000
13C0
1420
1810
1010
1010
1010
1010
1010
1010
1010
7C7C
ENDCHAR
STARTCHAR Itilde
ENCODING 296
SWIDTH 600 0
DWIDTH 15 0
BBX 9 18 3 0
BITMAP
7100
DB00
8E00
0000
FF80
0800
0800
0800
0800
0800
0800
0800
0800
0800
0800
0800
0800
FF80
ENDCHAR
STARTCHAR itilde
ENCODING 297
SWIDTH 600 0
DWIDTH 15 0
BBX 9 15 3 0
BITMAP
7100
DB00
8E00
0000
7800
0800
0800
0800
0800
0800
0800
0800
0800
0800
FF80
ENDCHAR
STARTCHAR Imacron
ENCODING 298
SWIDTH 600 0
DWIDTH 15 0
BBX 9 16 3 0
BITMAP
7F00
0000
FF80
0800
0800
0800
0800
0800
0800
0800
0800
0800
0800
0800
0800
FF80
ENDCHAR
STARTCHAR imacron
ENCODING 299
SWIDTH 600 0
DWIDTH 15 0
BBX 9 13 3 0
BITMAP
FE00
0000
7800
0800
0800
0800
0800
0800
0800
0800
0800
0800
FF80
ENDCHAR
STARTCHAR Ibreve
ENCODING 300
SWIDTH 600 0
DWIDTH 15 0
BBX 9 18 3 0
BITMAP
6180
3300
1E00
0000
FF80
0800
0800
0800
0800
0800
0800
0800
0800
0800
0800
0800
0800
FF80
ENDCHAR
STARTCHAR ibreve
ENCODING 301
SWIDTH 600 0
DWIDTH 15 0
BBX 9 15 3 0
BITMAP
C300
6600
3C00
0000
7800
0800
0800
0800
0800
0800
0800
0800
0800
0800
FF80
ENDCHAR
STARTCHAR Iogonek
ENCODING 302
SWIDTH 600 0
DWIDTH 15 0
BBX 9 18 3 -4
BITMAP
FF80
0800
0800
0800
0800
0800
0800
0800
0800
0800
0800
0800
0800
FF80
0800
1000
1200
0C00
ENDCHAR
STARTCHAR iogonek
ENCODING 303
SWIDTH 600 0
DWIDTH 15 0
BBX 9 20 3 -4
BITMAP
0800
0800
0800
0000
0000
7800
0800
0800
0800
0800
0800
0800
0800
0800
0800
FF80
0800
1000
1200
0C00
ENDCHAR
STARTCHAR Idotaccent
ENCODING 304
SWIDTH 600 0
DWIDTH 15 0
BBX 9 17 3 0
BITMAP
0C00
0C00
0000
FF80
0800
0800
0800
0800
0800
0800
0800
0800
0800
0800
0800
0800
FF80
ENDCHAR
STARTCHAR dotlessi
ENCODING 305
SWIDTH 600 0
DWIDTH 15 0
BBX 9 11 3 0
BITMAP
7800
0800
0800
0800
0800
0800
0800
0800
0800
0800
FF80
ENDCHAR
STARTCHAR IJ
ENCODING 306
SWIDTH 600 0
DWIDTH 15 0
BBX 15 14 3 0
BITMAP
FFFE
0810
0810
0810
0810
0810
0810
0810
1810
1810
1810
1820
0860
FF80
ENDCHAR
STARTCHAR ij
ENCODING 307
SWIDTH 600 0
DWIDTH 15 0
BBX 12 21 3 -5
BITMAP
0820
0820
0820
0000
0000
7FF0
0810
0810
0810
0810
0810
0810
0810
0810
0810
FF90
0010
0010
0020
0060
0F80
ENDCHAR
STARTCHAR Jcircumflex
ENCODING 308
SWIDTH 600 0
DWIDTH 15 0
BBX 12 19 2 0
BITMAP
0300
0780
0CC0
1860
0000
1FF0
0080
0080
0080
0080
0080
0080
0080
8080
8080
8080
8100
4300
3C00
ENDCHAR
STARTCHAR jcircumflex
ENCODING 309
SWIDTH 600 0
DWIDTH 15 0
BBX 9 21 3 -5
BITMAP
0C00
1E00
3300
6180
0000
FF00
0100
0100
0100
0100
0100
0100
0100
0100
0100
0100
0100
0100
0200
0600
F800
ENDCHAR
STARTCHAR Kcommaaccent
ENCODING 310
SWIDTH 600 0
DWIDTH 15 0
BBX 13 21 1 -7
BITMAP
F8F0
2040
2080
2100
2200
2400
2C00
3200
2100
2080
2040
2040
2020
F878
0000
0700
0700
0E00
0C00
1800
1000
ENDCHAR
STARTCHAR kcommaaccent
ENCODING 311
SWIDTH 600 0
DWIDTH 15 0
BBX 11 22 2 -7
BITMAP
E000
2000
2000
2000
23C0
2100
2200
2400
2800
3800
2400
2200
2100
2080
E1E0
0000
0E00
0E00
1C00
1800
3000
2000
ENDCHAR
STARTCHAR kgreenlandic
ENCODING 312
SWIDTH 600 0
DWIDTH 15 0
BBX 11 11 2 0
BITMAP
23C0
2100
2200
2400
2800
3800
2400
2200
2100
2080
E1E0
ENDCHAR
STARTCHAR Lacute
ENCODING 313
SWIDTH 600 0
DWIDTH 15 0
BBX 12 19 1 0
BITMAP
0300
0600
0C00
1800
0000
FE00
1000
1000
1000
1000
1000
1000
1000
1000
1010
1010
1010
1010
FFF0
ENDCHAR
STARTCHAR lacute
ENCODING 314
SWIDTH 600 0
DWIDTH 15 0
BBX 11 20 2 0
BITMAP
0300
0600
0C00
1800
0000
7C00
0400
0400
0400
0400
0400
0400
0400
0400
0400
0400
0400
0400
0400
FFE0
ENDCHAR
STARTCHAR Lcommaaccent
ENCODING 315
SWIDTH 600 0
DWIDTH 15 0
BBX 12 21 1 -7
BITMAP
FE00
1000
1000
1000
1000
1000
1000
1000
1000
1010
1010
1010
1010
FFF0
0000
0700
0700
0E00
0C00
1800
1000
ENDCHAR
STARTCHAR lcommaaccent
ENCODING 316
SWIDTH 600 0
DWIDTH 15 0
BBX 11 22 2 -7
BITMAP
7C00
0400
0400
0400
0400
0400
0400
0400
0400
0400
0400
0400
0400
0400
FFE0
0000
0E00
0E00
1C00
1800
3000
2000
ENDCHAR
STARTCHAR Lcaron
ENCODING 317
SWIDTH 600 0
DWIDTH 15 0
BBX 12 19 1 0
BITMAP
C300
6600
3C00
1800
0000
FE00
1000
1000
1000
1000
1000
1000
1000
1000
1010
1010
1010
1010
FFF0
ENDCHAR
STARTCHAR lcaron
ENCODING 318
SWIDTH 600 0
DWIDTH 15 0
BBX 11 20 2 0
BITMAP
6180
3300
1E00
0C00
0000
7C00
0400
0400
0400
0400
0400
0400
0400
0400
0400
0400
0400
0400
0400
FFE0
ENDCHAR
STARTCHAR Ldot
ENCODING 319
SWIDTH 600 0
DWIDTH 15 0
BBX 12 14 1 0
BITMAP
FE00
1000
1000
1000
1000
1380
1380
1380
1000
1010
1010
1010
1010
FFF0
ENDCHAR
STARTCHAR ldot
ENCODING 320
SWIDTH 600 0
DWIDTH 15 0
BBX 12 15 2 0
BITMAP
7C00
0400
0400
0400
0400
0400
0470
0470
0470
0400
0400
0400
0400
0400
FFE0
ENDCHAR
STARTCHAR Lslash
ENCODING 321
SWIDTH 600 0
DWIDTH 15 0
BBX 12 14 1 0
BITMAP
FE00
1000
1000
1000
1200
1400
1800
3000
5000
9010
1010
1010
1010
FFF0
ENDCHAR
STARTCHAR lslash
ENCODING 322
SWIDTH 600 0
DWIDTH 15 0
BBX 11 16 2 0
BITMAP
7C00
0400
0400
0400
0400
0400
0580
0600
0C00
3400
0400
0400
0400
0400
0400
FFE0
ENDCHAR
STARTCHAR Nacute
ENCODING 323
SWIDTH 600 0
DWIDTH 15 0
BBX 14 19 0 0
BITMAP
00C0
0180
0300
0600
0000
F0FC
3010
2810
2410
2410
2210
2210
2110
2110
2090
2090
2050
2030
FC30
ENDCHAR
STARTCHAR nacute
ENCODING 324
SWIDTH 600 0
DWIDTH 15 0
BBX 13 16 1 0
BITMAP
0180
0300
0600
0C00
0000
E780
2840
3020
2020
2020
2020
2020
2020
2020
2020
F8F8
ENDCHAR
STARTCHAR Ncommaaccent
ENCODING 325
SWIDTH 600 0
DWIDTH 15 0
BBX 14 21 0 -7
BITMAP
F0FC
3010
2810
2410
2410
2210
2210
2110
2110
2090
2090
2050
2030
FC30
0000
0380
0380
0700
0600
0C00
0800
ENDCHAR
STARTCHAR ncommaaccent
ENCODING 326
SWIDTH 600 0
DWIDTH 15 0
BBX 13 18 1 -7
BITMAP
E780
2840
3020
2020
2020
2020
2020
2020
2020
2020
F8F8
0000
0700
0700
0E00
0C00
1800
1000
ENDCHAR
STARTCHAR Ncaron
ENCODING 327
SWIDTH 600 0
DWIDTH 15 0
BBX 14 19 0 0
BITMAP
1860
0CC0
0780
0300
0000
F0FC
3010
2810
2410
2410
2210
2210
2110
2110
2090
2090
2050
2030
FC30
ENDCHAR
STARTCHAR ncaron
ENCODING 328
SWIDTH 600 0
DWIDTH 15 0
BBX 13 16 1 0
BITMAP
30C0
1980
0F00
0600
0000
E780
2840
3020
2020
2020
2020
2020
2020
2020
2020
F8F8
ENDCHAR
STARTCHAR napostrophe
ENCODING 329
SWIDTH 600 0
DWIDTH 15 0
BBX 17 16 -3 0
BITMAP
380000
380000
700000
600000
C00000
8E7800
028400
030200
020200
020200
020200
020200
020200
020200
020200
0F8F80
ENDCHAR
STARTCHAR Eng
ENCODING 330
SWIDTH 600 0
DWIDTH 15 0
BBX 14 19 0 -5
BITMAP
F0FC
3010
2810
2410
2410
2210
2210
2110
2110
2090
2090
2050
2030
FC30
0010
0010
0020
0060
0F80
ENDCHAR
STARTCHAR eng
ENCODING 331
SWIDTH 600 0
DWIDTH 15 0
BBX 11 16 1 -5
BITMAP
E780
2840
3020
2020
2020
2020
2020
2020
2020
2020
F820
0020
0020
0040
00C0
1F00
ENDCHAR
STARTCHAR Omacron
ENCODING 332
SWIDTH 600 0
DWIDTH 15 0
BBX 13 16 1 0
BITMAP
1FC0
0000
0F80
3060
6030
4010
8008
8008
8008
8008
8008
8008
4010
6030
3060
0F80
ENDCHAR
STARTCHAR omacron
ENCODING 333
SWIDTH 600 0
DWIDTH 15 0
BBX 11 13 2 0
BITMAP
3F80
0000
1F00
60C0
4040
8020
8020
8020
8020
8020
4040
60C0
1F00
ENDCHAR
STARTCHAR Obreve
ENCODING 334
SWIDTH 600 0
DWIDTH 15 0
BBX 13 18 1 0
BITMAP
1860
0CC0
0780
0000
0F80
3060
6030
4010
8008
8008
8008
8008
8008
8008
4010
6030
3060
0F80
ENDCHAR
STARTCHAR obreve
ENCODING 335
SWIDTH 600 0
DWIDTH 15 0
BBX 11 15 2 0
BITMAP
30C0
1980
0F00
0000
1F00
60C0
4040
8020
8020
8020
8020
8020
4040
60C0
1F00
ENDCHAR
STARTCHAR Ohungarumlaut
ENCODING 336
SWIDTH 600 0
DWIDTH 15 0
BBX 13 19 1 0
BITMAP
0330
0660
0CC0
1980
0000
0F80
3060
6030
4010
8008
8008
8008
8008
8008
8008
4010
6030
3060
0F80
ENDCHAR
STARTCHAR ohungarumlaut
ENCODING 337
SWIDTH 600 0
DWIDTH 15 0
BBX 11 16 2 0
BITMAP
0660
0CC0
1980
3300
0000
1F00
60C0
4040
8020
8020
8020
8020
8020
4040
60C0
1F00
ENDCHAR
STARTCHAR OE
ENCODING 338
SWIDTH 600 0
DWIDTH 15 0
BBX 15 14 0 0
BITMAP
1EFE
2182
4082
4082
8088
8088
80F8
8088
8088
8082
4082
4082
2182
1EFE
ENDCHAR
STARTCHAR oe
ENCODING 339
SWIDTH 600 0
DWIDTH 15 0
BBX 15 11 0 0
BITMAP
1C70
628C
4104
8102
8102
81FE
8100
8100
4102
6284
1C78
ENDCHAR
STARTCHAR Racute
ENCODING 340
SWIDTH 600 0
DWIDTH 15 0
BBX 13 19 1 0
BITMAP
0180
0300
0600
0C00
0000
FF80
2040
2020
2020
2020
2020
2040
3F80
2100
2080
2040
2040
2020
F838
ENDCHAR
STARTCHAR racute
ENCODING 341
SWIDTH 600 0
DWIDTH 15 0
BBX 11 16 2 0
BITMAP
0180
0300
0600
0C00
0000
71C0
1620
1800
1000
1000
1000
1000
1000
1000
1000
FF80
ENDCHAR
STARTCHAR Rcommaaccent
ENCODING 342
SWIDTH 600 0
DWIDTH 15 0
BBX 13 21 1 -7
BITMAP
FF80
2040
2020
2020
2020
2020
2040
3F80
2100
2080
2040
2040
2020
F838
0000
0700
0700
0E00
0C00
1800
1000
ENDCHAR
STARTCHAR rcommaaccent
ENCODING 343
SWIDTH 600 0
DWIDTH 15 0
BBX 11 18 2 -7
BITMAP
71C0
1620
1800
1000
1000
1000
1000
1000
1000
1000
FF80
0000
0E00
0E00
1C00
1800
3000
2000
ENDCHAR
STARTCHAR Rcaron
ENCODING 344
SWIDTH 600 0
DWIDTH 15 0
BBX 13 19 1 0
BITMAP
30C0
1980
0F00
0600
0000
FF80
2040
2020
2020
2020
2020
2040
3F80
2100
2080
2040
2040
2020
F838
ENDCHAR
STARTCHAR rcaron
ENCODING 345
SWIDTH 600 0
DWIDTH 15 0
BBX 11 16 2 0
BITMAP
30C0
1980
0F00
0600
0000
71C0
1620
1800
1000
1000
1000
1000
1000
1000
1000
FF80
ENDCHAR
STARTCHAR Sacute
ENCODING 346
SWIDTH 600 0
DWIDTH 15 0
BBX 10 19 2 0
BITMAP
0180
0300
0600
0C00
0000
1E40
6140
80C0
8040
8000
6000
1E00
0180
0040
0040
8040
C040
A080
9F00
ENDCHAR
STARTCHAR sacute
ENCODING 347
SWIDTH 600 0
DWIDTH 15 0
BBX 9 16 3 0
BITMAP
0300
0600
0C00
1800
0000
3E80
4180
4080
4000
3800
0700
0080
0080
8080
C100
BE00
ENDCHAR
STARTCHAR Scircumflex
ENCODING 348
SWIDTH 600 0
DWIDTH 15 0
BBX 10 19 2 0
BITMAP
0C00
1E00
3300
6180
0000
1E40
6140
80C0
8040
8000
6000
1E00
0180
0040
0040
8040
C040
A080
9F00
ENDCHAR
STARTCHAR scircumflex
ENCODING 349
SWIDTH 600 0
DWIDTH 15 0
BBX 9 16 3 0
BITMAP
0C00
1E00
3300
6180
0000
3E80
4180
4080
4000
3800
0700
0080
0080
8080
C100
BE00
ENDCHAR
STARTCHAR Scedilla
ENCODING 350
SWIDTH 600 0
DWIDTH 15 0
BBX 10 18 2 -4
BITMAP
1E40
6140
80C0
8040
8000
6000
1E00
0180
0040
0040
8040
C040
A080
9F00
0800
0400
2400
1800
ENDCHAR
STARTCHAR scedilla
ENCODING 351
SWIDTH 600 0
DWIDTH 15 0
BBX 9 15 3 -4
BITMAP
3E80
4180
4080
4000
3800
0700
0080
0080
8080
C100
BE00
0800
0400
2400
1800
ENDCHAR
STARTCHAR Scaron
ENCODING 352
SWIDTH 600 0
DWIDTH 15 0
BBX 10 19 2 0
BITMAP
6180
3300
1E00
0C00
0000
1E40
61C0
80C0
8040
8000
6000
1E00
0180
0040
0040
8040
C040
E080
9F00
ENDCHAR
STARTCHAR scaron
ENCODING 353
SWIDTH 600 0
DWIDTH 15 0
BBX 9 16 3 0
BITMAP
C300
6600
3C00
1800
0000
3E80
4180
4080
4000
3C00
0300
0080
0080
8080
C100
BE00
ENDCHAR
STARTCHAR Tcommaaccent
ENCODING 354
SWIDTH 600 0
DWIDTH 15 0
BBX 11 18 2 -4
BITMAP
FFE0
8420
8420
8420
8420
0400
0400
0400
0400
0400
0400
0400
0400
3F80
0400
0200
1200
0C00
ENDCHAR
STARTCHAR tcommaaccent
ENCODING 355
SWIDTH 600 0
DWIDTH 15 0
BBX 10 19 2 -4
BITMAP
2000
2000
2000
2000
FF80
2000
2000
2000
2000
2000
2000
2000
2000
10C0
0F00
0400
0200
1200
0C00
ENDCHAR
STARTCHAR Tcaron
ENCODING 356
SWIDTH 600 0
DWIDTH 15 0
BBX 11 19 2 0
BITMAP
30C0
1980
0F00
0600
0000
FFE0
8420
8420
8420
8420
0400
0400
0400
0400
0400
0400
0400
0400
3F80
ENDCHAR
STARTCHAR tcaron
ENCODING 357
SWIDTH 600 0
DWIDTH 15 0
BBX 11 20 1 0
BITMAP
C300
6600
3C00
1800
0000
1000
1000
1000
1000
7FC0
1000
1000
1000
1000
1000
1000
1000
1000
0860
0780
ENDCHAR
STARTCHAR Tbar
ENCODING 358
SWIDTH 600 0
DWIDTH 15 0
BBX 11 14 2 0
BITMAP
FFE0
8420
8420
8420
8420
0400
7FC0
0400
0400
0400
0400
0400
0400
3F80
ENDCHAR
STARTCHAR tbar
ENCODING 359
SWIDTH 600 0
DWIDTH 15 0
BBX 10 15 2 0
BITMAP
2000
2000
2000
2000
FF80
2000
2000
2000
2000
7FC0
2000
2000
2000
10C0
0F00
ENDCHAR
STARTCHAR Utilde
ENCODING 360
SWIDTH 600 0
DWIDTH 15 0
BBX 12 18 1 0
BITMAP
1C40
36C0
2380
0000
F9F0
4020
4020
4020
4020
4020
4020
4020
4020
4020
4020
4020
2040
1F80
ENDCHAR
STARTCHAR utilde
ENCODING 361
SWIDTH 600 0
DWIDTH 15 0
BBX 12 15 1 0
BITMAP
1C40
36C0
2380
0000
E0E0
2020
2020
2020
2020
2020
2020
2020
2060
10A0
0F30
ENDCHAR
STARTCHAR Umacron
ENCODING 362
SWIDTH 600 0
DWIDTH 15 0
BBX 12 16 1 0
BITMAP
1FC0
0000
F9F0
4020
4020
4020
4020
4020
4020
4020
4020
4020
4020
4020
2040
1F80
ENDCHAR
STARTCHAR umacron
ENCODING 363
SWIDTH 600 0
DWIDTH 15 0
BBX 12 13 1 0
BITMAP
3F80
0000
E0E0
2020
2020
2020
2020
2020
2020
2020
2060
10A0
0F30
ENDCHAR
STARTCHAR Ubreve
ENCODING 364
SWIDTH 600 0
DWIDTH 15 0
BBX 12 18 1 0
BITMAP
30C0
1980
0F00
0000
F9F0
4020
4020
4020
4020
4020
4020
4020
4020
4020
4020
4020
2040
1F80
ENDCHAR
STARTCHAR ubreve
ENCODING 365
SWIDTH 600 0
DWIDTH 15 0
BBX 12 15 1 0
BITMAP
30C0
1980
0F00
0000
E0E0
2020
2020
2020
2020
2020
2020
2020
2060
10A0
0F30
ENDCHAR
STARTCHAR Uring
ENCODING 366
SWIDTH 600 0
DWIDTH 15 0
BBX 12 20 1 0
BITMAP
0700
0880
0880
0880
0700
0000
F9F0
4020
4020
4020
4020
4020
4020
4020
4020
4020
4020
4020
2040
1F80
ENDCHAR
STARTCHAR uring
ENCODING 367
SWIDTH 600 0
DWIDTH 15 0
BBX 12 17 1 0
BITMAP
0E00
1100
1100
1100
0E00
0000
E0E0
2020
2020
2020
2020
2020
2020
2020
2060
10A0
0F30
ENDCHAR
STARTCHAR Uhungarumlaut
ENCODING 368
SWIDTH 600 0
DWIDTH 15 0
BBX 12 19 1 0
BITMAP
0660
0CC0
1980
3300
0000
F9F0
4020
4020
4020
4020
4020
4020
4020
4020
4020
4020
4020
2040
1F80
ENDCHAR
STARTCHAR uhungarumlaut
ENCODING 369
SWIDTH 600 0
DWIDTH 15 0
BBX 12 16 1 0
BITMAP
0660
0CC0
1980
3300
0000
E0E0
2020
2020
2020
2020
2020
2020
2020
2060
10A0
0F30
ENDCHAR
STARTCHAR Uogonek
ENCODING 370
SWIDTH 600 0
DWIDTH 15 0
BBX 12 18 1 -4
BITMAP
F9F0
4020
4020
4020
4020
4020
4020
4020
4020
4020
4020
4020
2040
1F80
0400
0800
0900
0600
ENDCHAR
STARTCHAR uogonek
ENCODING 371
SWIDTH 600 0
DWIDTH 15 0
BBX 12 15 1 -4
BITMAP
E0E0
2020
2020
2020
2020
2020
2020
2020
2060
10A0
0F30
0200
0400
0480
0300
ENDCHAR
STARTCHAR Wcircumflex
ENCODING 372
SWIDTH 600 0
DWIDTH 15 0
BBX 13 19 1 0
BITMAP
0300
0780
0CC0
1860
0000
F8F8
4010
4010
4210
4210
4510
4510
2520
28A0
28A0
28A0
3060
3060
3060
ENDCHAR
STARTCHAR wcircumflex
ENCODING 373
SWIDTH 600 0
DWIDTH 15 0
BBX 13 16 1 0
BITMAP
0300
0780
0CC0
1860
0000
F078
4010
4010
4210
2220
2520
2520
2520
1540
18C0
18C0
ENDCHAR
STARTCHAR Ycircumflex
ENCODING 374
SWIDTH 600 0
DWIDTH 15 0
BBX 13 19 1 0
BITMAP
0300
0780
0CC0
1860
0000
F078
2020
1040
1040
0880
0880
0500
0200
0200
0200
0200
0200
0200
1FC0
ENDCHAR
STARTCHAR ycircumflex
ENCODING 375
SWIDTH 600 0
DWIDTH 15 0
BBX 12 21 1 -5
BITMAP
0600
0F00
1980
30C0
0000
F0F0
4020
4020
2040
2040
2080
1080
1100
0900
0A00
0600
0400
0400
0800
0800
FE00
ENDCHAR
STARTCHAR Ydieresis
ENCODING 376
SWIDTH 600 0
DWIDTH 15 0
BBX 13 17 1 0
BITMAP
18C0
18C0
0000
F078
2020
1040
1040
0880
0880
0500
0200
0200
0200
0200
0200
0200
1FC0
ENDCHAR
STARTCHAR Zacute
ENCODING 377
SWIDTH 600 0
DWIDTH 15 0
BBX 10 19 2 0
BITMAP
0300
0600
0C00
1800
0000
FFC0
8040
8080
8100
8200
0200
0400
0800
1000
1040
2040
4040
8040
FFC0
ENDCHAR
STARTCHAR zacute
ENCODING 378
SWIDTH 600 0
DWIDTH 15 0
BBX 9 16 3 0
BITMAP
0300
0600
0C00
1800
0000
FF80
8080
8100
0200
0400
0800
1000
2000
4080
8080
FF80
ENDCHAR
STARTCHAR Zdotaccent
ENCODING 379
SWIDTH 600 0
DWIDTH 15 0
BBX 10 17 2 0
BITMAP
0C00
0C00
0000
FFC0
8040
8080
8100
8200
0200
0400
0800
1000
1040
2040
4040
8040
FFC0
ENDCHAR
STARTCHAR zdotaccent
ENCODING 380
SWIDTH 600 0
DWIDTH 15 0
BBX 9 14 3 0
BITMAP
1800
1800
0000
FF80
8080
8100
0200
0400
0800
1000
2000
4080
8080
FF80
ENDCHAR
STARTCHAR Zcaron
ENCODING 381
SWIDTH 600 0
DWIDTH 15 0
BBX 10 19 2 0
BITMAP
6180
3300
1E00
0C00
0000
FFC0
8040
8080
8100
8200
0200
0400
0800
1000
1040
2040
4040
8040
FFC0
ENDCHAR
STARTCHAR zcaron
ENCODING 382
SWIDTH 600 0
DWIDTH 15 0
BBX 9 16 3 0
BITMAP
C300
6600
3C00
1800
0000
FF80
8080
8100
0200
0400
0800
1000
2000
4080
8080
FF80
ENDCHAR
STARTCHAR uni0186
ENCODING 390
SWIDTH 600 0
DWIDTH 15 0
BBX 11 14 2 0
BITMAP
1E00
6180
C0C0
8040
0020
0020
0020
0020
0020
0020
8040
C0C0
A180
9E00
ENDCHAR
STARTCHAR uni0189
ENCODING 393
SWIDTH 600 0
DWIDTH 15 0
BBX 13 14 0 0
BITMAP
7FC0
2030
2010
2008
2008
2008
FC08
2008
2008
2008
2008
2010
2030
7FC0
ENDCHAR
STARTCHAR uni018E
ENCODING 398
SWIDTH 600 0
DWIDTH 15 0
BBX 12 14 1 0
BITMAP
FFF0
8040
8040
8040
8040
0440
0440
07C0
0440
0440
4040
4040
4040
7FF0
ENDCHAR
STARTCHAR florin
ENCODING 402
SWIDTH 600 0
DWIDTH 15 0
BBX 11 18 2 -2
BITMAP
01E0
0200
0400
0400
0400
0400
0400
3F80
0400
0400
0400
0400
0400
0400
0400
0400
0800
F000
ENDCHAR
STARTCHAR uni0197
ENCODING 407
SWIDTH 600 0
DWIDTH 15 0
BBX 9 14 3 0
BITMAP
FF80
0800
0800
0800
0800
0800
FF80
0800
0800
0800
0800
0800
0800
FF80
ENDCHAR
STARTCHAR uni019A
ENCODING 410
SWIDTH 600 0
DWIDTH 15 0
BBX 11 15 2 0
BITMAP
7C00
0400
0400
0400
0400
0400
0400
7FC0
0400
0400
0400
0400
0400
0400
FFE0
ENDCHAR
STARTCHAR uni019D
ENCODING 413
SWIDTH 600 0
DWIDTH 15 0
BBX 19 19 -5 -5
BITMAP
0787E0
018080
014080
012080
012080
011080
011080
010880
010880
010480
010480
010280
010180
010180
010000
010000
020000
060000
F80000
ENDCHAR
STARTCHAR uni019F
ENCODING 415
SWIDTH 600 0
DWIDTH 15 0
BBX 13 14 1 0
BITMAP
0F80
3060
6030
4010
8008
8008
FFF8
8008
8008
8008
4010
6030
3060
0F80
ENDCHAR
STARTCHAR Ohorn
ENCODING 416
SWIDTH 600 0
DWIDTH 15 0
BBX 17 14 1 0
BITMAP
0F8380
306380
603700
401600
800C00
800800
800800
800800
800800
800800
401000
603000
306000
0F8000
ENDCHAR
STARTCHAR ohorn
ENCODING 417
SWIDTH 600 0
DWIDTH 15 0
BBX 15 11 2 0
BITMAP
1F0E
60CE
405C
8038
8030
8020
8020
8020
4040
60C0
1F00
ENDCHAR
STARTCHAR uni01A7
ENCODING 423
SWIDTH 600 0
DWIDTH 15 0
BBX 10 14 2 0
BITMAP
9E00
A180
C040
8040
0040
0180
1E00
6000
8000
8000
8040
80C0
4140
3E40
ENDCHAR
STARTCHAR uni01A8
ENCODING 424
SWIDTH 600 0
DWIDTH 15 0
BBX 9 11 3 0
BITMAP
BE00
C100
8100
0100
0E00
7000
8000
8000
8080
4180
3E80
ENDCHAR
STARTCHAR uni01AE
ENCODING 430
SWIDTH 600 0
DWIDTH 15 0
BBX 13 19 2 -5
BITMAP
FFE0
8420
8420
8420
8420
0400
0400
0400
0400
0400
0400
0400
0400
0400
0400
0400
0200
0300
00F8
ENDCHAR
STARTCHAR Uhorn
ENCODING 431
SWIDTH 600 0
DWIDTH 15 0
BBX 16 14 1 0
BITMAP
F9F7
4027
402E
402C
4038
4030
4020
4020
4020
4020
4020
4020
2040
1F80
ENDCHAR
STARTCHAR uhorn
ENCODING 432
SWIDTH 600 0
DWIDTH 15 0
BBX 16 11 1 0
BITMAP
E0E7
2027
202E
202C
2038
2030
2020
2020
2060
10A0
0F30
ENDCHAR
STARTCHAR uni01B5
ENCODING 437
SWIDTH 600 0
DWIDTH 15 0
BBX 10 14 2 0
BITMAP
FFC0
8040
8080
8100
8200
0200
7FC0
0800
1000
1040
2040
4040
8040
FFC0
ENDCHAR
STARTCHAR uni01B6
ENCODING 438
SWIDTH 600 0
DWIDTH 15 0
BBX 9 11 3 0
BITMAP
FF80
8080
8100
0200
0400
FF80
1000
2000
4080
8080
FF80
ENDCHAR
STARTCHAR uni01BB
ENCODING 443
SWIDTH 600 0
DWIDTH 15 0
BBX 10 15 2 0
BITMAP
1E00
6100
8080
8080
0080
0080
0100
FFC0
0400
0800
1000
2000
4000
8040
FFC0
ENDCHAR
STARTCHAR uni01BC
ENCODING 444
SWIDTH 600 0
DWIDTH 15 0
BBX 10 15 2 0
BITMAP
7F80
4000
4000
4000
4000
5E00
6180
0080
0040
0040
0040
0040
0080
C180
3E00
ENDCHAR
STARTCHAR uni01C0
ENCODING 448
SWIDTH 600 0
DWIDTH 15 0
BBX 1 17 7 -3
BITMAP
80
80
80
80
80
80
80
80
80
80
80
80
80
80
80
80
80
ENDCHAR
STARTCHAR uni01C2
ENCODING 450
SWIDTH 600 0
DWIDTH 15 0
BBX 12 17 1 -1
BITMAP
0200
0200
0200
0200
0200
0200
0200
FFF0
0200
0200
FFF0
0200
0200
0200
0200
0200
0200
ENDCHAR
STARTCHAR uni01C3
ENCODING 451
SWIDTH 600 0
DWIDTH 15 0
BBX 2 16 6 0
BITMAP
C0
C0
C0
C0
C0
C0
C0
C0
80
80
80
00
00
00
C0
C0
ENDCHAR
STARTCHAR uni01CD
ENCODING 461
SWIDTH 600 0
DWIDTH 15 0
BBX 13 19 1 0
BITMAP
30C0
1980
0F00
0600
0000
3F00
0500
0880
0880
0880
1040
1040
1040
3FE0
2020
2020
4010
4010
F078
ENDCHAR
STARTCHAR uni01CE
ENCODING 462
SWIDTH 600 0
DWIDTH 15 0
BBX 11 16 2 0
BITMAP
6180
3300
1E00
0C00
0000
3E00
4100
0080
0080
3E80
4180
8080
8080
8080
4180
3EE0
ENDCHAR
STARTCHAR uni01CF
ENCODING 463
SWIDTH 600 0
DWIDTH 15 0
BBX 9 19 3 0
BITMAP
6180
3300
1E00
0C00
0000
FF80
0800
0800
0800
0800
0800
0800
0800
0800
0800
0800
0800
0800
FF80
ENDCHAR
STARTCHAR uni01D0
ENCODING 464
SWIDTH 600 0
DWIDTH 15 0
BBX 9 16 3 0
BITMAP
C300
6600
3C00
1800
0000
7800
0800
0800
0800
0800
0800
0800
0800
0800
0800
FF80
ENDCHAR
STARTCHAR uni01D1
ENCODING 465
SWIDTH 600 0
DWIDTH 15 0
BBX 13 19 1 0
BITMAP
1860
0CC0
0780
0300
0000
0F80
3060
6030
4010
8008
8008
8008
8008
8008
8008
4010
6030
3060
0F80
ENDCHAR
STARTCHAR uni01D2
ENCODING 466
SWIDTH 600 0
DWIDTH 15 0
BBX 11 16 2 0
BITMAP
30C0
1980
0F00
0600
0000
1F00
60C0
4040
8020
8020
8020
8020
8020
4040
60C0
1F00
ENDCHAR
STARTCHAR uni01D3
ENCODING 467
SWIDTH 600 0
DWIDTH 15 0
BBX 12 19 1 0
BITMAP
30C0
1980
0F00
0600
0000
F9F0
4020
4020
4020
4020
4020
4020
4020
4020
4020
4020
4020
2040
1F80
ENDCHAR
STARTCHAR uni01D4
ENCODING 468
SWIDTH 600 0
DWIDTH 15 0
BBX 12 16 1 0
BITMAP
30C0
1980
0F00
0600
0000
E0E0
2020
2020
2020
2020
2020
2020
2020
2060
10A0
0F30
ENDCHAR
STARTCHAR uni01D5
ENCODING 469
SWIDTH 600 0
DWIDTH 15 0
BBX 12 20 1 0
BITMAP
1FC0
0000
1980
1980
0000
0000
F9F0
4020
4020
4020
4020
4020
4020
4020
4020
4020
4020
4020
2040
1F80
ENDCHAR
STARTCHAR uni01D6
ENCODING 470
SWIDTH 600 0
DWIDTH 15 0
BBX 12 17 1 0
BITMAP
1FC0
0000
1980
1980
0000
0000
E0E0
2020
2020
2020
2020
2020
2020
2020
2060
10A0
0F30
ENDCHAR
STARTCHAR uni01D7
ENCODING 471
SWIDTH 600 0
DWIDTH 15 0
BBX 12 23 1 0
BITMAP
0180
0300
0600
0C00
0000
1980
1980
0000
0000
F9F0
4020
4020
4020
4020
4020
4020
4020
4020
4020
4020
4020
2040
1F80
ENDCHAR
STARTCHAR uni01D8
ENCODING 472
SWIDTH 600 0
DWIDTH 15 0
BBX 12 20 1 0
BITMAP
0180
0300
0600
0C00
0000
1980
1980
0000
0000
E0E0
2020
2020
2020
2020
2020
2020
2020
2060
10A0
0F30
ENDCHAR
STARTCHAR uni01D9
ENCODING 473
SWIDTH 600 0
DWIDTH 15 0
BBX 12 23 1 0
BITMAP
30C0
1980
0F00
0600
0000
1980
1980
0000
0000
F9F0
4020
4020
4020
4020
4020
4020
4020
4020
4020
4020
4020
2040
1F80
ENDCHAR
STARTCHAR uni01DA
ENCODING 474
SWIDTH 600 0
DWIDTH 15 0
BBX 12 20 1 0
BITMAP
30C0
1980
0F00
0600
0000
1980
1980
0000
0000
E0E0
2020
2020
2020
2020
2020
2020
2020
2060
10A0
0F30
ENDCHAR
STARTCHAR uni01DB
ENCODING 475
SWIDTH 600 0
DWIDTH 15 0
BBX 12 23 1 0
BITMAP
1800
0C00
0600
0300
0000
1980
1980
0000
0000
F9F0
4020
4020
4020
4020
4020
4020
4020
4020
4020
4020
4020
2040
1F80
ENDCHAR
STARTCHAR uni01DC
ENCODING 476
SWIDTH 600 0
DWIDTH 15 0
BBX 12 20 1 0
BITMAP
1800
0C00
0600
0300
0000
1980
1980
0000
0000
E0E0
2020
2020
2020
2020
2020
2020
2020
2060
10A0
0F30
ENDCHAR
STARTCHAR uni01DD
ENCODING 477
SWIDTH 600 0
DWIDTH 15 0
BBX 11 11 2 0
BITMAP
3F00
C0C0
0040
0020
0020
FFE0
8020
8020
4040
60C0
1F00
ENDCHAR
STARTCHAR uni01DE
ENCODING 478
SWIDTH 600 0
DWIDTH 15 0
BBX 13 20 1 0
BITMAP
1FC0
0000
18C0
18C0
0000
0000
3F00
0500
0880
0880
0880
1040
1040
1040
3FE0
2020
2020
4010
4010
F078
ENDCHAR
STARTCHAR uni01DF
ENCODING 479
SWIDTH 600 0
DWIDTH 15 0
BBX 11 17 2 0
BITMAP
3F80
0000
3180
3180
0000
0000
1E00
6100
0080
0080
0080
3F80
4080
8080
8080
8180
7EE0
ENDCHAR
STARTCHAR uni01E0
ENCODING 480
SWIDTH 600 0
DWIDTH 15 0
BBX 13 19 1 0
BITMAP
3F80
0000
0600
0600
0000
3F00
0500
0880
0880
0880
1040
1040
1040
3FE0
2020
2020
4010
4010
F078
ENDCHAR
STARTCHAR uni01E1
ENCODING 481
SWIDTH 600 0
DWIDTH 15 0
BBX 11 16 2 0
BITMAP
7F00
0000
0C00
0C00
0000
3E00
4100
0080
0080
3E80
4180
8080
8080
8080
4180
3EE0
ENDCHAR
STARTCHAR uni01E2
ENCODING 482
SWIDTH 600 0
DWIDTH 15 0
BBX 15 16 -1 0
BITMAP
07F0
0000
0FFE
0282
0482
0482
0488
0888
08F8
0888
1F88
1082
1082
2082
2082
F3FE
ENDCHAR
STARTCHAR uni01E3
ENCODING 483
SWIDTH 600 0
DWIDTH 15 0
BBX 15 13 0 0
BITMAP
0FE0
0000
1C70
628C
4104
0102
0102
3FFE
4100
8100
8102
8284
7C78
ENDCHAR
STARTCHAR uni01E4
ENCODING 484
SWIDTH 600 0
DWIDTH 15 0
BBX 15 14 1 0
BITMAP
0F20
30A0
6060
4020
8000
8000
8000
8000
83F0
83FE
4020
6020
3040
0F80
ENDCHAR
STARTCHAR uni01E5
ENCODING 485
SWIDTH 600 0
DWIDTH 15 0
BBX 13 16 1 -5
BITMAP
1F38
60A0
4060
8020
8020
8020
8020
8020
4060
60A0
1F20
0020
FFF8
0040
00C0
3F00
ENDCHAR
STARTCHAR Gcaron
ENCODING 486
SWIDTH 600 0
DWIDTH 15 0
BBX 12 19 1 0
BITMAP
30C0
1980
0F00
0600
0000
0F20
30A0
6060
4020
8000
8000
8000
8000
83F0
8020
4020
6020
3040
0F80
ENDCHAR
STARTCHAR gcaron
ENCODING 487
SWIDTH 600 0
DWIDTH 15 0
BBX 13 21 1 -5
BITMAP
1860
0CC0
0780
0300
0000
1F38
60A0
4060
8020
8020
8020
8020
8020
4060
60A0
1F20
0020
0020
0040
00C0
3F00
ENDCHAR
STARTCHAR uni01E8
ENCODING 488
SWIDTH 600 0
DWIDTH 15 0
BBX 13 19 1 0
BITMAP
30C0
1980
0F00
0600
0000
F8F0
2040
2080
2100
2200
2400
2C00
3200
2100
2080
2040
2040
2020
F878
ENDCHAR
STARTCHAR uni01E9
ENCODING 489
SWIDTH 600 0
DWIDTH 15 0
BBX 12 20 1 0
BITMAP
C300
6600
3C00
1800
0000
7000
1000
1000
1000
11E0
1080
1100
1200
1400
1C00
1200
1100
1080
1040
70F0
ENDCHAR
STARTCHAR uni01EA
ENCODING 490
SWIDTH 600 0
DWIDTH 15 0
BBX 13 18 1 -4
BITMAP
0F80
3060
6030
4010
8008
8008
8008
8008
8008
8008
4010
6030
3060
0F80
0200
0400
0480
0300
ENDCHAR
STARTCHAR uni01EB
ENCODING 491
SWIDTH 600 0
DWIDTH 15 0
BBX 11 15 2 -4
BITMAP
1F00
60C0
4040
8020
8020
8020
8020
8020
4040
60C0
1F00
0400
0800
0900
0600
ENDCHAR
STARTCHAR uni01EC
ENCODING 492
SWIDTH 600 0
DWIDTH 15 0
BBX 13 20 1 -4
BITMAP
1FC0
0000
0F80
3060
6030
4010
8008
8008
8008
8008
8008
8008
4010
6030
3060
0F80
0200
0400
0480
0300
ENDCHAR
STARTCHAR uni01ED
ENCODING 493
SWIDTH 600 0
DWIDTH 15 0
BBX 11 17 2 -4
BITMAP
3F80
0000
1F00
60C0
4040
8020
8020
8020
8020
8020
4040
60C0
1F00
0400
0800
0900
0600
ENDCHAR
STARTCHAR uni01F0
ENCODING 496
SWIDTH 600 0
DWIDTH 15 0
BBX 9 21 3 -5
BITMAP
6180
3300
1E00
0C00
0000
FF00
0100
0100
0100
0100
0100
0100
0100
0100
0100
0100
0100
0100
0200
0600
F800
ENDCHAR
STARTCHAR uni01F4
ENCODING 500
SWIDTH 600 0
DWIDTH 15 0
BBX 12 19 1 0
BITMAP
0180
0300
0600
0C00
0000
0F20
30A0
6060
4020
8000
8000
8000
8000
83F0
8020
4020
6020
3040
0F80
ENDCHAR
STARTCHAR uni01F5
ENCODING 501
SWIDTH 600 0
DWIDTH 15 0
BBX 13 21 1 -5
BITMAP
00C0
0180
0300
0600
0000
1F38
60A0
4060
8020
8020
8020
8020
8020
4060
60A0
1F20
0020
0020
0040
00C0
3F00
ENDCHAR
STARTCHAR uni01F8
ENCODING 504
SWIDTH 600 0
DWIDTH 15 0
BBX 14 19 0 0
BITMAP
0C00
0600
0300
0180
0000
F0FC
3010
2810
2410
2410
2210
2210
2110
2110
2090
2090
2050
2030
FC30
ENDCHAR
STARTCHAR uni01F9
ENCODING 505
SWIDTH 600 0
DWIDTH 15 0
BBX 13 16 1 0
BITMAP
3000
1800
0C00
0600
0000
E780
2840
3020
2020
2020
2020
2020
2020
2020
2020
F8F8
ENDCHAR
STARTCHAR Aringacute
ENCODING 506
SWIDTH 600 0
DWIDTH 15 0
BBX 13 24 1 0
BITMAP
00C0
0180
0300
0600
0000
0700
0880
0880
0880
0700
3F00
0500
0880
0880
0880
1040
1040
1040
3FE0
2020
2020
4010
4010
F078
ENDCHAR
STARTCHAR aringacute
ENCODING 507
SWIDTH 600 0
DWIDTH 15 0
BBX 11 22 2 0
BITMAP
0180
0300
0600
0C00
0000
0E00
1100
1100
1100
0E00
0000
1E00
6100
0080
0080
0080
3F80
4080
8080
8080
8180
7EE0
ENDCHAR
STARTCHAR AEacute
ENCODING 508
SWIDTH 600 0
DWIDTH 15 0
BBX 15 19 -1 0
BITMAP
0030
0060
00C0
0180
0000
0FFE
0282
0482
0482
0488
0888
08F8
0888
1F88
1082
1082
2082
2082
F3FE
ENDCHAR
STARTCHAR aeacute
ENCODING 509
SWIDTH 600 0
DWIDTH 15 0
BBX 15 16 0 0
BITMAP
0060
00C0
0180
0300
0000
1C70
628C
4104
0102
0102
3FFE
4100
8100
8102
8284
7C78
ENDCHAR
STARTCHAR Oslashacute
ENCODING 510
SWIDTH 600 0
DWIDTH 15 0
BBX 14 20 0 0
BITMAP
0060
00C0
0180
0300
0000
0004
07C8
1830
3030
2048
4088
4088
4108
4208
4408
4808
3010
3030
5860
8780
ENDCHAR
STARTCHAR oslashacute
ENCODING 511
SWIDTH 600 0
DWIDTH 15 0
BBX 12 17 1 0
BITMAP
00C0
0180
0300
0600
0000
0010
0FA0
3040
20A0
4110
4210
4410
4810
5010
2020
5060
8F80
ENDCHAR
STARTCHAR uni0200
ENCODING 512
SWIDTH 600 0
DWIDTH 15 0
BBX 13 19 1 0
BITMAP
6600
3300
1980
0CC0
0000
3F00
0500
0880
0880
0880
1040
1040
1040
3FE0
2020
2020
4010
4010
F078
ENDCHAR
STARTCHAR uni0201
ENCODING 513
SWIDTH 600 0
DWIDTH 15 0
BBX 11 16 2 0
BITMAP
CC00
6600
3300
1980
0000
3E00
4100
0080
0080
3E80
4180
8080
8080
8080
4180
3EE0
ENDCHAR
STARTCHAR uni0202
ENCODING 514
SWIDTH 600 0
DWIDTH 15 0
BBX 13 18 1 0
BITMAP
0F00
1980
30C0
0000
3F00
0500
0880
0880
0880
1040
1040
1040
3FE0
2020
2020
4010
4010
F078
ENDCHAR
STARTCHAR uni0203
ENCODING 515
SWIDTH 600 0
DWIDTH 15 0
BBX 11 15 2 0
BITMAP
1E00
3300
6180
0000
3E00
4100
0080
0080
3E80
4180
8080
8080
8080
4180
3EE0
ENDCHAR
STARTCHAR uni0204
ENCODING 516
SWIDTH 600 0
DWIDTH 15 0
BBX 12 19 1 0
BITMAP
6600
3300
1980
0CC0
0000
FFE0
2020
2020
2020
2200
2200
3E00
2200
2200
2010
2010
2010
2010
FFF0
ENDCHAR
STARTCHAR uni0205
ENCODING 517
SWIDTH 600 0
DWIDTH 15 0
BBX 11 16 2 0
BITMAP
CC00
6600
3300
1980
0000
1F00
60C0
4040
8020
8020
FFE0
8000
8000
4000
6060
1F80
ENDCHAR
STARTCHAR uni0206
ENCODING 518
SWIDTH 600 0
DWIDTH 15 0
BBX 12 18 1 0
BITMAP
0F00
1980
30C0
0000
FFE0
2020
2020
2020
2200
2200
3E00
2200
2200
2010
2010
2010
2010
FFF0
ENDCHAR
STARTCHAR uni0207
ENCODING 519
SWIDTH 600 0
DWIDTH 15 0
BBX 11 15 2 0
BITMAP
0F00
1980
30C0
0000
1F00
60C0
4040
8020
8020
FFE0
8000
8000
4000
6060
1F80
ENDCHAR
STARTCHAR uni0208
ENCODING 520
SWIDTH 600 0
DWIDTH 15 0
BBX 10 19 2 0
BITMAP
CC00
6600
3300
1980
0000
7FC0
0400
0400
0400
0400
0400
0400
0400
0400
0400
0400
0400
0400
7FC0
ENDCHAR
STARTCHAR uni0209
ENCODING 521
SWIDTH 600 0
DWIDTH 15 0
BBX 10 16 2 0
BITMAP
CC00
6600
3300
1980
0000
3C00
0400
0400
0400
0400
0400
0400
0400
0400
0400
7FC0
ENDCHAR
STARTCHAR uni020A
ENCODING 522
SWIDTH 600 0
DWIDTH 15 0
BBX 9 18 3 0
BITMAP
1E00
3300
6180
0000
FF80
0800
0800
0800
0800
0800
0800
0800
0800
0800
0800
0800
0800
FF80
ENDCHAR
STARTCHAR uni020B
ENCODING 523
SWIDTH 600 0
DWIDTH 15 0
BBX 9 15 3 0
BITMAP
3C00
6600
C300
0000
7800
0800
0800
0800
0800
0800
0800
0800
0800
0800
FF80
ENDCHAR
STARTCHAR uni020C
ENCODING 524
SWIDTH 600 0
DWIDTH 15 0
BBX 13 19 1 0
BITMAP
6600
3300
1980
0CC0
0000
0F80
3060
6030
4010
8008
8008
8008
8008
8008
8008
4010
6030
3060
0F80
ENDCHAR
STARTCHAR uni020D
ENCODING 525
SWIDTH 600 0
DWIDTH 15 0
BBX 11 16 2 0
BITMAP
CC00
6600
3300
1980
0000
1F00
60C0
4040
8020
8020
8020
8020
8020
4040
60C0
1F00
ENDCHAR
STARTCHAR uni020E
ENCODING 526
SWIDTH 600 0
DWIDTH 15 0
BBX 13 18 1 0
BITMAP
0780
0CC0
1860
0000
0F80
3060
6030
4010
8008
8008
8008
8008
8008
8008
4010
6030
3060
0F80
ENDCHAR
STARTCHAR uni020F
ENCODING 527
SWIDTH 600 0
DWIDTH 15 0
BBX 11 15 2 0
BITMAP
0F00
1980
30C0
0000
1F00
60C0
4040
8020
8020
8020
8020
8020
4040
60C0
1F00
ENDCHAR
STARTCHAR uni0210
ENCODING 528
SWIDTH 600 0
DWIDTH 15 0
BBX 13 19 1 0
BITMAP
CC00
6600
3300
1980
0000
FF80
2040
2020
2020
2020
2020
2040
3F80
2100
2080
2040
2040
2020
F838
ENDCHAR
STARTCHAR uni0211
ENCODING 529
SWIDTH 600 0
DWIDTH 15 0
BBX 11 16 2 0
BITMAP
CC00
6600
3300
1980
0000
71C0
1620
1800
1000
1000
1000
1000
1000
1000
1000
FF80
ENDCHAR
STARTCHAR uni0212
ENCODING 530
SWIDTH 600 0
DWIDTH 15 0
BBX 13 18 1 0
BITMAP
0F00
1980
30C0
0000
FF80
2040
2020
2020
2020
2020
2040
3F80
2100
2080
2040
2040
2020
F838
ENDCHAR
STARTCHAR uni0213
ENCODING 531
SWIDTH 600 0
DWIDTH 15 0
BBX 11 15 2 0
BITMAP
0F00
1980
30C0
0000
71C0
1620
1800
1000
1000
1000
1000
1000
1000
1000
FF80
ENDCHAR
STARTCHAR uni0214
ENCODING 532
SWIDTH 600 0
DWIDTH 15 0
BBX 12 19 1 0
BITMAP
6600
3300
1980
0CC0
0000
F9F0
4020
4020
4020
4020
4020
4020
4020
4020
4020
4020
4020
2040
1F80
ENDCHAR
STARTCHAR uni0215
ENCODING 533
SWIDTH 600 0
DWIDTH 15 0
BBX 12 16 1 0
BITMAP
6600
3300
1980
0CC0
0000
E0E0
2020
2020
2020
2020
2020
2020
2020
2060
10A0
0F30
ENDCHAR
STARTCHAR uni0216
ENCODING 534
SWIDTH 600 0
DWIDTH 15 0
BBX 12 18 1 0
BITMAP
0F00
1980
30C0
0000
F9F0
4020
4020
4020
4020
4020
4020
4020
4020
4020
4020
4020
2040
1F80
ENDCHAR
STARTCHAR uni0217
ENCODING 535
SWIDTH 600 0
DWIDTH 15 0
BBX 12 15 1 0
BITMAP
0F00
1980
30C0
0000
E0E0
2020
2020
2020
2020
2020
2020
2020
2060
10A0
0F30
ENDCHAR
STARTCHAR Scommaaccent
ENCODING 536
SWIDTH 600 0
DWIDTH 15 0
BBX 10 21 2 -7
BITMAP
1E40
6140
80C0
8040
8000
6000
1E00
0180
0040
0040
8040
C040
A080
9F00
0000
1C00
1C00
3800
3000
6000
4000
ENDCHAR
STARTCHAR scommaaccent
ENCODING 537
SWIDTH 600 0
DWIDTH 15 0
BBX 9 18 3 -7
BITMAP
3E80
4180
4080
4000
3800
0700
0080
0080
8080
C100
BE00
0000
1C00
1C00
3800
3000
6000
4000
ENDCHAR
STARTCHAR Tcommaaccent
ENCODING 538
SWIDTH 600 0
DWIDTH 15 0
BBX 11 21 2 -7
BITMAP
FFE0
8420
8420
8420
8420
0400
0400
0400
0400
0400
0400
0400
0400
3F80
0000
0E00
0E00
1C00
1800
3000
2000
ENDCHAR
STARTCHAR tcommaaccent
ENCODING 539
SWIDTH 600 0
DWIDTH 15 0
BBX 10 22 2 -7
BITMAP
2000
2000
2000
2000
FF80
2000
2000
2000
2000
2000
2000
2000
2000
10C0
0F00
0000
0E00
0E00
1C00
1800
3000
2000
ENDCHAR
STARTCHAR uni021E
ENCODING 542
SWIDTH 600 0
DWIDTH 15 0
BBX 13 19 1 0
BITMAP
1860
0CC0
0780
0300
0000
F8F8
2020
2020
2020
2020
2020
3FE0
2020
2020
2020
2020
2020
2020
F8F8
ENDCHAR
STARTCHAR uni021F
ENCODING 543
SWIDTH 600 0
DWIDTH 15 0
BBX 13 20 1 0
BITMAP
C300
6600
3C00
1800
0000
E000
2000
2000
2000
2780
2840
3020
2020
2020
2020
2020
2020
2020
2020
F8F8
ENDCHAR
STARTCHAR uni0226
ENCODING 550
SWIDTH 600 0
DWIDTH 15 0
BBX 13 17 1 0
BITMAP
0600
0600
0000
3F00
0500
0880
0880
0880
1040
1040
1040
3FE0
2020
2020
4010
4010
F078
ENDCHAR
STARTCHAR uni0227
ENCODING 551
SWIDTH 600 0
DWIDTH 15 0
BBX 11 14 2 0
BITMAP
0C00
0C00
0000
3E00
4100
0080
0080
3E80
4180
8080
8080
8080
4180
3EE0
ENDCHAR
STARTCHAR uni0228
ENCODING 552
SWIDTH 600 0
DWIDTH 15 0
BBX 12 18 1 -4
BITMAP
FFE0
2020
2020
2020
2200
2200
3E00
2200
2200
2010
2010
2010
2010
FFF0
0200
0100
0900
0600
ENDCHAR
STARTCHAR uni0229
ENCODING 553
SWIDTH 600 0
DWIDTH 15 0
BBX 11 15 2 -4
BITMAP
1F00
60C0
4040
8020
8020
FFE0
8000
8000
4000
6060
1F80
0400
0200
1200
0C00
ENDCHAR
STARTCHAR uni022A
ENCODING 554
SWIDTH 600 0
DWIDTH 15 0
BBX 13 20 1 0
BITMAP
1FC0
0000
18C0
18C0
0000
0000
0F80
3060
6030
4010
8008
8008
8008
8008
8008
8008
4010
6030
3060
0F80
ENDCHAR
STARTCHAR uni022B
ENCODING 555
SWIDTH 600 0
DWIDTH 15 0
BBX 11 17 2 0
BITMAP
3F80
0000
3180
3180
0000
0000
1F00
60C0
4040
8020
8020
8020
8020
8020
4040
60C0
1F00
ENDCHAR
STARTCHAR uni022C
ENCODING 556
SWIDTH 600 0
DWIDTH 15 0
BBX 13 20 1 0
BITMAP
1FC0
0000
0E20
1B60
11C0
0000
0F80
3060
6030
4010
8008
8008
8008
8008
8008
8008
4010
6030
3060
0F80
ENDCHAR
STARTCHAR uni022D
ENCODING 557
SWIDTH 600 0
DWIDTH 15 0
BBX 11 17 2 0
BITMAP
3F80
0000
1C40
36C0
2380
0000
1F00
60C0
4040
8020
8020
8020
8020
8020
4040
60C0
1F00
ENDCHAR
STARTCHAR uni022E
ENCODING 558
SWIDTH 600 0
DWIDTH 15 0
BBX 13 17 1 0
BITMAP
0300
0300
0000
0F80
3060
6030
4010
8008
8008
8008
8008
8008
8008
4010
6030
3060
0F80
ENDCHAR
STARTCHAR uni022F
ENCODING 559
SWIDTH 600 0
DWIDTH 15 0
BBX 11 14 2 0
BITMAP
0600
0600
0000
1F00
60C0
4040
8020
8020
8020
8020
8020
4040
60C0
1F00
ENDCHAR
STARTCHAR uni0230
ENCODING 560
SWIDTH 600 0
DWIDTH 15 0
BBX 13 19 1 0
BITMAP
1FC0
0000
0300
0300
0000
0F80
3060
6030
4010
8008
8008
8008
8008
8008
8008
4010
6030
3060
0F80
ENDCHAR
STARTCHAR uni0231
ENCODING 561
SWIDTH 600 0
DWIDTH 15 0
BBX 11 16 2 0
BITMAP
3F80
0000
0600
0600
0000
1F00
60C0
4040
8020
8020
8020
8020
8020
4040
60C0
1F00
ENDCHAR
STARTCHAR uni0232
ENCODING 562
SWIDTH 600 0
DWIDTH 15 0
BBX 13 16 1 0
BITMAP
1FC0
0000
F078
2020
1040
1040
0880
0880
0500
0200
0200
0200
0200
0200
0200
1FC0
ENDCHAR
STARTCHAR uni0233
ENCODING 563
SWIDTH 600 0
DWIDTH 15 0
BBX 12 18 1 -5
BITMAP
1FC0
0000
F0F0
4020
4020
2040
2040
2080
1080
1100
0900
0A00
0600
0400
0400
0800
0800
FE00
ENDCHAR
STARTCHAR uni0250
ENCODING 592
SWIDTH 600 0
DWIDTH 15 0
BBX 11 11 2 0
BITMAP
EF80
3040
2020
2020
2020
3040
2F80
2000
2000
1040
0F80
ENDCHAR
STARTCHAR uni0254
ENCODING 596
SWIDTH 600 0
DWIDTH 15 0
BBX 11 11 2 0
BITMAP
5F00
60C0
4040
4020
0020
0020
0020
0020
C040
60C0
1F00
ENDCHAR
STARTCHAR uni0258
ENCODING 600
SWIDTH 600 0
DWIDTH 15 0
BBX 11 11 2 0
BITMAP
1F00
60C0
4040
8020
8020
FFE0
0020
0020
0040
C0C0
3F00
ENDCHAR
STARTCHAR uni0259
ENCODING 601
SWIDTH 600 0
DWIDTH 15 0
BBX 11 11 2 0
BITMAP
3F00
C0C0
0040
0020
0020
FFE0
8020
8020
4040
60C0
1F00
ENDCHAR
STARTCHAR uni025F
ENCODING 607
SWIDTH 600 0
DWIDTH 15 0
BBX 10 15 3 -4
BITMAP
7FC0
0200
0200
0200
0200
0200
0200
0200
0200
0200
7FC0
0200
0200
8600
7C00
ENDCHAR
STARTCHAR uni0265
ENCODING 613
SWIDTH 600 0
DWIDTH 15 0
BBX 13 15 1 -4
BITMAP
F8F8
2020
2020
2020
2020
2020
2020
2020
2060
10A0
0F20
0020
0020
0020
0038
ENDCHAR
STARTCHAR uni0275
ENCODING 629
SWIDTH 600 0
DWIDTH 15 0
BBX 11 11 2 0
BITMAP
1F00
60C0
4040
8020
8020
FFE0
8020
8020
4040
60C0
1F00
ENDCHAR
STARTCHAR uni0279
ENCODING 633
SWIDTH 600 0
DWIDTH 15 0
BBX 11 11 2 0
BITMAP
3FE0
0100
0100
0100
0100
0100
0100
0100
0300
8D00
71C0
ENDCHAR
STARTCHAR uni0287
ENCODING 647
SWIDTH 600 0
DWIDTH 15 0
BBX 10 15 2 0
BITMAP
3C00
C200
0100
0100
0100
0100
0100
0100
0100
0100
7FC0
0100
0100
0100
0100
ENDCHAR
STARTCHAR uni0288
ENCODING 648
SWIDTH 600 0
DWIDTH 15 0
BBX 10 20 2 -5
BITMAP
2000
2000
2000
2000
FF80
2000
2000
2000
2000
2000
2000
2000
2000
2000
2000
2000
2000
1000
1800
07C0
ENDCHAR
STARTCHAR uni0289
ENCODING 649
SWIDTH 600 0
DWIDTH 15 0
BBX 12 11 1 0
BITMAP
E0E0
2020
2020
2020
2020
FFF0
2020
2020
2060
10A0
0F30
ENDCHAR
STARTCHAR uni028C
ENCODING 652
SWIDTH 600 0
DWIDTH 15 0
BBX 13 11 1 0
BITMAP
0200
0700
0500
0880
0880
1040
1040
1040
2020
2020
F8F8
ENDCHAR
STARTCHAR uni028D
ENCODING 653
SWIDTH 600 0
DWIDTH 15 0
BBX 13 11 1 0
BITMAP
18C0
18C0
1540
2520
2520
2520
2220
4210
4010
4010
F078
ENDCHAR
STARTCHAR uni028E
ENCODING 654
SWIDTH 600 0
DWIDTH 15 0
BBX 12 16 1 0
BITMAP
07F0
0100
0100
0200
0200
0600
0500
0900
0880
1080
1040
2040
2040
4020
4020
F0F0
ENDCHAR
STARTCHAR uni029E
ENCODING 670
SWIDTH 600 0
DWIDTH 15 0
BBX 11 15 2 -4
BITMAP
F0E0
2080
1080
0880
0480
0380
0280
0480
0880
1080
7880
0080
0080
0080
00E0
ENDCHAR
STARTCHAR uni02BB
ENCODING 699
SWIDTH 600 0
DWIDTH 15 0
BBX 5 6 5 10
BITMAP
E0
E0
70
30
18
08
ENDCHAR
STARTCHAR afii57929
ENCODING 700
SWIDTH 600 0
DWIDTH 15 0
BBX 5 6 6 10
BITMAP
38
38
70
60
C0
80
ENDCHAR
STARTCHAR afii64937
ENCODING 701
SWIDTH 600 0
DWIDTH 15 0
BBX 5 6 6 10
BITMAP
E0
E0
70
30
18
08
ENDCHAR
STARTCHAR circumflex
ENCODING 710
SWIDTH 600 0
DWIDTH 15 0
BBX 8 4 3 12
BITMAP
18
3C
66
C3
ENDCHAR
STARTCHAR caron
ENCODING 711
SWIDTH 600 0
DWIDTH 15 0
BBX 8 4 3 12
BITMAP
C3
66
3C
18
ENDCHAR
STARTCHAR uni02C8
ENCODING 712
SWIDTH 600 0
DWIDTH 15 0
BBX 3 7 6 8
BITMAP
E0
E0
E0
E0
E0
40
40
ENDCHAR
STARTCHAR macron
ENCODING 713
SWIDTH 600 0
DWIDTH 15 0
BBX 7 1 4 12
BITMAP
FE
ENDCHAR
STARTCHAR uni02CA
ENCODING 714
SWIDTH 600 0
DWIDTH 15 0
BBX 5 4 5 12
BITMAP
18
30
60
C0
ENDCHAR
STARTCHAR uni02CB
ENCODING 715
SWIDTH 600 0
DWIDTH 15 0
BBX 5 4 4 12
BITMAP
C0
60
30
18
ENDCHAR
STARTCHAR uni02CD
ENCODING 717
SWIDTH 600 0
DWIDTH 15 0
BBX 7 1 4 -2
BITMAP
FE
ENDCHAR
STARTCHAR uni02CE
ENCODING 718
SWIDTH 600 0
DWIDTH 15 0
BBX 5 4 4 -5
BITMAP
C0
60
30
18
ENDCHAR
STARTCHAR uni02CF
ENCODING 719
SWIDTH 600 0
DWIDTH 15 0
BBX 5 4 5 -5
BITMAP
18
30
60
C0
ENDCHAR
STARTCHAR breve
ENCODING 728
SWIDTH 600 0
DWIDTH 15 0
BBX 8 3 3 12
BITMAP
C3
66
3C
ENDCHAR
STARTCHAR dotaccent
ENCODING 729
SWIDTH 600 0
DWIDTH 15 0
BBX 2 2 6 12
BITMAP
C0
C0
ENDCHAR
STARTCHAR ring
ENCODING 730
SWIDTH 600 0
DWIDTH 15 0
BBX 5 5 5 11
BITMAP
70
88
88
88
70
ENDCHAR
STARTCHAR ogonek
ENCODING 731
SWIDTH 600 0
DWIDTH 15 0
BBX 4 5 6 -4
BITMAP
20
40
80
90
60
ENDCHAR
STARTCHAR tilde
ENCODING 732
SWIDTH 600 0
DWIDTH 15 0
BBX 8 3 3 11
BITMAP
71
DB
8E
ENDCHAR
STARTCHAR hungarumlaut
ENCODING 733
SWIDTH 600 0
DWIDTH 15 0
BBX 9 4 3 12
BITMAP
1980
3300
6600
CC00
ENDCHAR
STARTCHAR uni02EE
ENCODING 750
SWIDTH 600 0
DWIDTH 15 0
BBX 9 6 3 9
BITMAP
3B80
3B80
7700
6600
CC00
CC00
ENDCHAR
STARTCHAR uni037E
ENCODING 894
SWIDTH 600 0
DWIDTH 15 0
BBX 5 14 4 -3
BITMAP
38
38
38
00
00
00
00
00
38
38
70
60
C0
80
ENDCHAR
STARTCHAR tonos
ENCODING 900
SWIDTH 600 0
DWIDTH 15 0
BBX 5 4 5 12
BITMAP
18
30
60
C0
ENDCHAR
STARTCHAR dieresistonos
ENCODING 901
SWIDTH 600 0
DWIDTH 15 0
BBX 7 7 4 12
BITMAP
06
0C
18
30
00
C6
C6
ENDCHAR
STARTCHAR anoteleia
ENCODING 903
SWIDTH 600 0
DWIDTH 15 0
BBX 3 3 6 6
BITMAP
E0
E0
E0
ENDCHAR
STARTCHAR mu
ENCODING 956
SWIDTH 600 0
DWIDTH 15 0
BBX 12 16 1 -5
BITMAP
E0E0
2020
2020
2020
2020
2020
2020
2020
2060
30A0
2F30
2000
2000
2000
2000
2000
ENDCHAR
STARTCHAR uni1E00
ENCODING 7680
SWIDTH 600 0
DWIDTH 15 0
BBX 13 20 1 -6
BITMAP
3F00
0500
0880
0880
0880
1040
1040
1040
3FE0
2020
2020
4010
4010
F078
0000
0700
0880
0880
0880
0700
ENDCHAR
STARTCHAR uni1E01
ENCODING 7681
SWIDTH 600 0
DWIDTH 15 0
BBX 11 17 2 -6
BITMAP
3E00
4100
0080
0080
3E80
4180
8080
8080
8080
4180
3EE0
0000
0E00
1100
1100
1100
0E00
ENDCHAR
STARTCHAR uni1E02
ENCODING 7682
SWIDTH 600 0
DWIDTH 15 0
BBX 12 17 1 0
BITMAP
0600
0600
0000
FFC0
2020
2010
2010
2010
2020
3FC0
2020
2010
2010
2010
2010
2020
FFC0
ENDCHAR
STARTCHAR uni1E03
ENCODING 7683
SWIDTH 600 0
DWIDTH 15 0
BBX 13 18 1 0
BITMAP
1800
1800
0000
E000
2000
2000
2000
27C0
2830
3010
2008
2008
2008
2008
2008
3010
2830
E7C0
ENDCHAR
STARTCHAR uni1E04
ENCODING 7684
SWIDTH 600 0
DWIDTH 15 0
BBX 12 17 1 -3
BITMAP
FFC0
2020
2010
2010
2010
2020
3FC0
2020
2010
2010
2010
2010
2020
FFC0
0000
0600
0600
ENDCHAR
STARTCHAR uni1E05
ENCODING 7685
SWIDTH 600 0
DWIDTH 15 0
BBX 13 18 1 -3
BITMAP
E000
2000
2000
2000
27C0
2830
3010
2008
2008
2008
2008
2008
3010
2830
E7C0
0000
0600
0600
ENDCHAR
STARTCHAR uni1E06
ENCODING 7686
SWIDTH 600 0
DWIDTH 15 0
BBX 12 16 1 -2
BITMAP
FFC0
2020
2010
2010
2010
2020
3FC0
2020
2010
2010
2010
2010
2020
FFC0
0000
3F80
ENDCHAR
STARTCHAR uni1E07
ENCODING 7687
SWIDTH 600 0
DWIDTH 15 0
BBX 13 17 1 -2
BITMAP
E000
2000
2000
2000
27C0
2830
3010
2008
2008
2008
2008
2008
3010
2830
E7C0
0000
1FC0
ENDCHAR
STARTCHAR uni1E08
ENCODING 7688
SWIDTH 600 0
DWIDTH 15 0
BBX 11 23 2 -4
BITMAP
0180
0300
0600
0C00
0000
0F20
30E0
6060
4020
8000
8000
8000
8000
8000
8000
4020
6060
30C0
0F00
0400
0200
1200
0C00
ENDCHAR
STARTCHAR uni1E09
ENCODING 7689
SWIDTH 600 0
DWIDTH 15 0
BBX 11 20 2 -4
BITMAP
0180
0300
0600
0C00
0000
1F40
60C0
4040
8040
8000
8000
8000
8000
4060
60C0
1F00
0400
0200
1200
0C00
ENDCHAR
STARTCHAR uni1E0A
ENCODING 7690
SWIDTH 600 0
DWIDTH 15 0
BBX 12 17 1 0
BITMAP
0600
0600
0000
FF80
4060
4020
4010
4010
4010
4010
4010
4010
4010
4010
4020
4060
FF80
ENDCHAR
STARTCHAR uni1E0B
ENCODING 7691
SWIDTH 600 0
DWIDTH 15 0
BBX 13 18 1 0
BITMAP
00C0
00C0
0000
00E0
0020
0020
0020
1F20
60A0
4060
8020
8020
8020
8020
8020
4060
60A0
1F38
ENDCHAR
STARTCHAR uni1E0C
ENCODING 7692
SWIDTH 600 0
DWIDTH 15 0
BBX 12 17 1 -3
BITMAP
FF80
4060
4020
4010
4010
4010
4010
4010
4010
4010
4010
4020
4060
FF80
0000
0600
0600
ENDCHAR
STARTCHAR uni1E0D
ENCODING 7693
SWIDTH 600 0
DWIDTH 15 0
BBX 13 18 1 -3
BITMAP
00E0
0020
0020
0020
1F20
60A0
4060
8020
8020
8020
8020
8020
4060
60A0
1F38
0000
0300
0300
ENDCHAR
STARTCHAR uni1E0E
ENCODING 7694
SWIDTH 600 0
DWIDTH 15 0
BBX 12 16 1 -2
BITMAP
FF80
4060
4020
4010
4010
4010
4010
4010
4010
4010
4010
4020
4060
FF80
0000
3F80
ENDCHAR
STARTCHAR uni1E0F
ENCODING 7695
SWIDTH 600 0
DWIDTH 15 0
BBX 13 17 1 -2
BITMAP
00E0
0020
0020
0020
1F20
60A0
4060
8020
8020
8020
8020
8020
4060
60A0
1F38
0000
1FC0
ENDCHAR
STARTCHAR uni1E10
ENCODING 7696
SWIDTH 600 0
DWIDTH 15 0
BBX 12 18 1 -4
BITMAP
FF80
4060
4020
4010
4010
4010
4010
4010
4010
4010
4010
4020
4060
FF80
0400
0200
1200
0C00
ENDCHAR
STARTCHAR uni1E11
ENCODING 7697
SWIDTH 600 0
DWIDTH 15 0
BBX 13 19 1 -4
BITMAP
00E0
0020
0020
0020
1F20
60A0
4060
8020
8020
8020
8020
8020
4060
60A0
1F38
0200
0100
0900
0600
ENDCHAR
STARTCHAR uni1E12
ENCODING 7698
SWIDTH 600 0
DWIDTH 15 0
BBX 12 19 1 -5
BITMAP
FF80
4060
4020
4010
4010
4010
4010
4010
4010
4010
4010
4020
4060
FF80
0000
0600
0F00
1980
30C0
ENDCHAR
STARTCHAR uni1E13
ENCODING 7699
SWIDTH 600 0
DWIDTH 15 0
BBX 13 20 1 -5
BITMAP
00E0
0020
0020
0020
1F20
60A0
4060
8020
8020
8020
8020
8020
4060
60A0
1F38
0000
0300
0780
0CC0
1860
ENDCHAR
STARTCHAR uni1E14
ENCODING 7700
SWIDTH 600 0
DWIDTH 15 0
BBX 12 21 1 0
BITMAP
1800
0C00
0600
0300
0000
3F80
0000
FFE0
2020
2020
2020
2200
2200
3E00
2200
2200
2010
2010
2010
2010
FFF0
ENDCHAR
STARTCHAR uni1E15
ENCODING 7701
SWIDTH 600 0
DWIDTH 15 0
BBX 11 18 2 0
BITMAP
3000
1800
0C00
0600
0000
3F80
0000
1F00
60C0
4040
8020
8020
FFE0
8000
8000
4000
6060
1F80
ENDCHAR
STARTCHAR uni1E16
ENCODING 7702
SWIDTH 600 0
DWIDTH 15 0
BBX 12 21 1 0
BITMAP
0180
0300
0600
0C00
0000
3F80
0000
FFE0
2020
2020
2020
2200
2200
3E00
2200
2200
2010
2010
2010
2010
FFF0
ENDCHAR
STARTCHAR uni1E17
ENCODING 7703
SWIDTH 600 0
DWIDTH 15 0
BBX 11 18 2 0
BITMAP
0180
0300
0600
0C00
0000
3F80
0000
1F00
60C0
4040
8020
8020
FFE0
8000
8000
4000
6060
1F80
ENDCHAR
STARTCHAR uni1E18
ENCODING 7704
SWIDTH 600 0
DWIDTH 15 0
BBX 12 19 1 -5
BITMAP
FFE0
2020
2020
2020
2200
2200
3E00
2200
2200
2010
2010
2010
2010
FFF0
0000
0600
0F00
1980
30C0
ENDCHAR
STARTCHAR uni1E19
ENCODING 7705
SWIDTH 600 0
DWIDTH 15 0
BBX 11 16 2 -5
BITMAP
1F00
60C0
4040
8020
8020
FFE0
8000
8000
4000
6060
1F80
0000
0600
0F00
1980
30C0
ENDCHAR
STARTCHAR uni1E1A
ENCODING 7706
SWIDTH 600 0
DWIDTH 15 0
BBX 12 18 1 -4
BITMAP
FFE0
2020
2020
2020
2200
2200
3E00
2200
2200
2010
2010
2010
2010
FFF0
0000
1C40
36C0
2380
ENDCHAR
STARTCHAR uni1E1B
ENCODING 7707
SWIDTH 600 0
DWIDTH 15 0
BBX 11 15 2 -4
BITMAP
1F00
60C0
4040
8020
8020
FFE0
8000
8000
4000
6060
1F80
0000
1C40
36C0
2380
ENDCHAR
STARTCHAR uni1E1C
ENCODING 7708
SWIDTH 600 0
DWIDTH 15 0
BBX 12 22 1 -4
BITMAP
30C0
1980
0F00
0000
FFE0
2020
2020
2020
2200
2200
3E00
2200
2200
2010
2010
2010
2010
FFF0
0200
0100
0900
0600
ENDCHAR
STARTCHAR uni1E1D
ENCODING 7709
SWIDTH 600 0
DWIDTH 15 0
BBX 11 19 2 -4
BITMAP
30C0
1980
0F00
0000
1F00
60C0
4040
8020
8020
FFE0
8000
8000
4000
6060
1F80
0400
0200
1200
0C00
ENDCHAR
STARTCHAR uni1E1E
ENCODING 7710
SWIDTH 600 0
DWIDTH 15 0
BBX 11 17 2 0
BITMAP
0600
0600
0000
FFE0
2020
2020
2020
2200
2200
3E00
2200
2200
2000
2000
2000
2000
FE00
ENDCHAR
STARTCHAR uni1E1F
ENCODING 7711
SWIDTH 600 0
DWIDTH 15 0
BBX 10 18 3 0
BITMAP
0C00
0C00
0000
0F80
1840
1000
1000
FF80
1000
1000
1000
1000
1000
1000
1000
1000
1000
FF80
ENDCHAR
STARTCHAR uni1E20
ENCODING 7712
SWIDTH 600 0
DWIDTH 15 0
BBX 12 16 1 0
BITMAP
1FC0
0000
0F20
30A0
6060
4020
8000
8000
8000
8000
83F0
8020
4020
6020
3040
0F80
ENDCHAR
STARTCHAR uni1E21
ENCODING 7713
SWIDTH 600 0
DWIDTH 15 0
BBX 13 18 1 -5
BITMAP
1FC0
0000
1F38
60A0
4060
8020
8020
8020
8020
8020
4060
60A0
1F20
0020
0020
0040
00C0
3F00
ENDCHAR
STARTCHAR uni1E22
ENCODING 7714
SWIDTH 600 0
DWIDTH 15 0
BBX 13 17 1 0
BITMAP
0300
0300
0000
F8F8
2020
2020
2020
2020
2020
3FE0
2020
2020
2020
2020
2020
2020
F8F8
ENDCHAR
STARTCHAR uni1E23
ENCODING 7715
SWIDTH 600 0
DWIDTH 15 0
BBX 13 18 1 0
BITMAP
1800
1800
0000
E000
2000
2000
2000
2780
2840
3020
2020
2020
2020
2020
2020
2020
2020
F8F8
ENDCHAR
STARTCHAR uni1E24
ENCODING 7716
SWIDTH 600 0
DWIDTH 15 0
BBX 13 17 1 -3
BITMAP
F8F8
2020
2020
2020
2020
2020
3FE0
2020
2020
2020
2020
2020
2020
F8F8
0000
0300
0300
ENDCHAR
STARTCHAR uni1E25
ENCODING 7717
SWIDTH 600 0
DWIDTH 15 0
BBX 13 18 1 -3
BITMAP
E000
2000
2000
2000
2780
2840
3020
2020
2020
2020
2020
2020
2020
2020
F8F8
0000
0300
0300
ENDCHAR
STARTCHAR uni1E26
ENCODING 7718
SWIDTH 600 0
DWIDTH 15 0
BBX 13 17 1 0
BITMAP
18C0
18C0
0000
F8F8
2020
2020
2020
2020
2020
3FE0
2020
2020
2020
2020
2020
2020
F8F8
ENDCHAR
STARTCHAR uni1E27
ENCODING 7719
SWIDTH 600 0
DWIDTH 15 0
BBX 13 18 1 0
BITMAP
C600
C600
0000
E000
2000
2000
2000
2780
2840
3020
2020
2020
2020
2020
2020
2020
2020
F8F8
ENDCHAR
STARTCHAR uni1E28
ENCODING 7720
SWIDTH 600 0
DWIDTH 15 0
BBX 13 18 1 -4
BITMAP
F8F8
2020
2020
2020
2020
2020
3FE0
2020
2020
2020
2020
2020
2020
FAF8
0200
0100
0900
0600
ENDCHAR
STARTCHAR uni1E29
ENCODING 7721
SWIDTH 600 0
DWIDTH 15 0
BBX 13 19 1 -4
BITMAP
E000
2000
2000
2000
2780
2840
3020
2020
2020
2020
2020
2020
2020
2020
FAF8
0200
0100
0900
0600
ENDCHAR
STARTCHAR uni1E2A
ENCODING 7722
SWIDTH 600 0
DWIDTH 15 0
BBX 13 18 1 -4
BITMAP
F8F8
2020
2020
2020
2020
2020
3FE0
2020
2020
2020
2020
2020
2020
F8F8
0000
1860
0CC0
0780
ENDCHAR
STARTCHAR uni1E2B
ENCODING 7723
SWIDTH 600 0
DWIDTH 15 0
BBX 13 19 1 -4
BITMAP
E000
2000
2000
2000
2780
2840
3020
2020
2020
2020
2020
2020
2020
2020
F8F8
0000
1860
0CC0
0780
ENDCHAR
STARTCHAR uni1E2C
ENCODING 7724
SWIDTH 600 0
DWIDTH 15 0
BBX 9 18 3 -4
BITMAP
FF80
0800
0800
0800
0800
0800
0800
0800
0800
0800
0800
0800
0800
FF80
0000
3880
6D80
4700
ENDCHAR
STARTCHAR uni1E2D
ENCODING 7725
SWIDTH 600 0
DWIDTH 15 0
BBX 9 20 3 -4
BITMAP
0800
0800
0800
0000
0000
7800
0800
0800
0800
0800
0800
0800
0800
0800
0800
FF80
0000
3880
6D80
4700
ENDCHAR
STARTCHAR uni1E2E
ENCODING 7726
SWIDTH 600 0
DWIDTH 15 0
BBX 9 23 3 0
BITMAP
0300
0600
0C00
1800
0000
6300
6300
0000
0000
FF80
0800
0800
0800
0800
0800
0800
0800
0800
0800
0800
0800
0800
FF80
ENDCHAR
STARTCHAR uni1E2F
ENCODING 7727
SWIDTH 600 0
DWIDTH 15 0
BBX 9 20 3 0
BITMAP
0300
0600
0C00
1800
0000
6300
6300
0000
0000
7800
0800
0800
0800
0800
0800
0800
0800
0800
0800
FF80
ENDCHAR
STARTCHAR uni1E30
ENCODING 7728
SWIDTH 600 0
DWIDTH 15 0
BBX 13 19 1 0
BITMAP
0180
0300
0600
0C00
0000
F8F0
2040
2080
2100
2200
2400
2C00
3200
2100
2080
2040
2040
2020
F878
ENDCHAR
STARTCHAR uni1E31
ENCODING 7729
SWIDTH 600 0
DWIDTH 15 0
BBX 11 20 2 0
BITMAP
0C00
1800
3000
6000
0000
E000
2000
2000
2000
23C0
2100
2200
2400
2800
3800
2400
2200
2100
2080
E1E0
ENDCHAR
STARTCHAR uni1E32
ENCODING 7730
SWIDTH 600 0
DWIDTH 15 0
BBX 13 17 1 -3
BITMAP
F8F0
2040
2080
2100
2200
2400
2C00
3200
2100
2080
2040
2040
2020
F878
0000
0600
0600
ENDCHAR
STARTCHAR uni1E33
ENCODING 7731
SWIDTH 600 0
DWIDTH 15 0
BBX 11 18 2 -3
BITMAP
E000
2000
2000
2000
23C0
2100
2200
2400
2800
3800
2400
2200
2100
2080
E1E0
0000
0C00
0C00
ENDCHAR
STARTCHAR uni1E34
ENCODING 7732
SWIDTH 600 0
DWIDTH 15 0
BBX 13 16 1 -2
BITMAP
F8F0
2040
2080
2100
2200
2400
2C00
3200
2100
2080
2040
2040
2020
F878
0000
1FC0
ENDCHAR
STARTCHAR uni1E35
ENCODING 7733
SWIDTH 600 0
DWIDTH 15 0
BBX 11 17 2 -2
BITMAP
E000
2000
2000
2000
23C0
2100
2200
2400
2800
3800
2400
2200
2100
2080
E1E0
0000
3F80
ENDCHAR
STARTCHAR uni1E36
ENCODING 7734
SWIDTH 600 0
DWIDTH 15 0
BBX 12 17 1 -3
BITMAP
FE00
1000
1000
1000
1000
1000
1000
1000
1000
1010
1010
1010
1010
FFF0
0000
0600
0600
ENDCHAR
STARTCHAR uni1E37
ENCODING 7735
SWIDTH 600 0
DWIDTH 15 0
BBX 11 18 2 -3
BITMAP
7C00
0400
0400
0400
0400
0400
0400
0400
0400
0400
0400
0400
0400
0400
FFE0
0000
0600
0600
ENDCHAR
STARTCHAR uni1E38
ENCODING 7736
SWIDTH 600 0
DWIDTH 15 0
BBX 12 19 1 -3
BITMAP
7F00
0000
FE00
1000
1000
1000
1000
1000
1000
1000
1000
1010
1010
1010
1010
FFF0
0000
0600
0600
ENDCHAR
STARTCHAR uni1E39
ENCODING 7737
SWIDTH 600 0
DWIDTH 15 0
BBX 11 20 2 -3
BITMAP
7F00
0000
7C00
0400
0400
0400
0400
0400
0400
0400
0400
0400
0400
0400
0400
0400
FFE0
0000
0600
0600
ENDCHAR
STARTCHAR uni1E3A
ENCODING 7738
SWIDTH 600 0
DWIDTH 15 0
BBX 12 16 1 -2
BITMAP
FE00
1000
1000
1000
1000
1000
1000
1000
1000
1010
1010
1010
1010
FFF0
0000
1FC0
ENDCHAR
STARTCHAR uni1E3B
ENCODING 7739
SWIDTH 600 0
DWIDTH 15 0
BBX 11 17 2 -2
BITMAP
7C00
0400
0400
0400
0400
0400
0400
0400
0400
0400
0400
0400
0400
0400
FFE0
0000
3F80
ENDCHAR
STARTCHAR uni1E3C
ENCODING 7740
SWIDTH 600 0
DWIDTH 15 0
BBX 12 19 1 -5
BITMAP
FE00
1000
1000
1000
1000
1000
1000
1000
1000
1010
1010
1010
1010
FFF0
0000
0600
0F00
1980
30C0
ENDCHAR
STARTCHAR uni1E3D
ENCODING 7741
SWIDTH 600 0
DWIDTH 15 0
BBX 11 20 2 -5
BITMAP
7C00
0400
0400
0400
0400
0400
0400
0400
0400
0400
0400
0400
0400
0400
FFE0
0000
0600
0F00
1980
30C0
ENDCHAR
STARTCHAR uni1E3E
ENCODING 7742
SWIDTH 600 0
DWIDTH 15 0
BBX 13 19 1 0
BITMAP
00C0
0180
0300
0600
0000
E038
6030
6030
5050
5050
4890
4890
4510
4710
4010
4010
4010
4010
F078
ENDCHAR
STARTCHAR uni1E3F
ENCODING 7743
SWIDTH 600 0
DWIDTH 15 0
BBX 14 16 0 0
BITMAP
00C0
0180
0300
0600
0000
EE70
3188
2108
2108
2108
2108
2108
2108
2108
2108
F98C
ENDCHAR
STARTCHAR uni1E40
ENCODING 7744
SWIDTH 600 0
DWIDTH 15 0
BBX 13 17 1 0
BITMAP
0300
0300
0000
E038
6030
6030
5050
5050
4890
4890
4510
4710
4010
4010
4010
4010
F078
ENDCHAR
STARTCHAR uni1E41
ENCODING 7745
SWIDTH 600 0
DWIDTH 15 0
BBX 14 14 0 0
BITMAP
0300
0300
0000
EE70
3188
2108
2108
2108
2108
2108
2108
2108
2108
F98C
ENDCHAR
STARTCHAR uni1E42
ENCODING 7746
SWIDTH 600 0
DWIDTH 15 0
BBX 13 17 1 -3
BITMAP
E038
6030
6030
5050
5050
4890
4890
4510
4710
4010
4010
4010
4010
F078
0000
0300
0300
ENDCHAR
STARTCHAR uni1E43
ENCODING 7747
SWIDTH 600 0
DWIDTH 15 0
BBX 14 14 0 -3
BITMAP
EE70
3188
2108
2108
2108
2108
2108
2108
2108
2108
F98C
0000
0300
0300
ENDCHAR
STARTCHAR uni1E44
ENCODING 7748
SWIDTH 600 0
DWIDTH 15 0
BBX 14 17 0 0
BITMAP
0300
0300
0000
F0FC
3010
2810
2410
2410
2210
2210
2110
2110
2090
2090
2050
2030
FC30
ENDCHAR
STARTCHAR uni1E45
ENCODING 7749
SWIDTH 600 0
DWIDTH 15 0
BBX 13 14 1 0
BITMAP
0600
0600
0000
E780
2840
3020
2020
2020
2020
2020
2020
2020
2020
F8F8
ENDCHAR
STARTCHAR uni1E46
ENCODING 7750
SWIDTH 600 0
DWIDTH 15 0
BBX 14 17 0 -3
BITMAP
F0FC
3010
2810
2410
2410
2210
2210
2110
2110
2090
2090
2050
2030
FC30
0000
0300
0300
ENDCHAR
STARTCHAR uni1E47
ENCODING 7751
SWIDTH 600 0
DWIDTH 15 0
BBX 13 14 1 -3
BITMAP
E780
2840
3020
2020
2020
2020
2020
2020
2020
2020
F8F8
0000
0300
0300
ENDCHAR
STARTCHAR uni1E48
ENCODING 7752
SWIDTH 600 0
DWIDTH 15 0
BBX 14 16 0 -2
BITMAP
F0FC
3010
2810
2410
2410
2210
2210
2110
2110
2090
2090
2050
2030
FC30
0000
1FC0
ENDCHAR
STARTCHAR uni1E49
ENCODING 7753
SWIDTH 600 0
DWIDTH 15 0
BBX 13 13 1 -2
BITMAP
E780
2840
3020
2020
2020
2020
2020
2020
2020
2020
F8F8
0000
1FC0
ENDCHAR
STARTCHAR uni1E4A
ENCODING 7754
SWIDTH 600 0
DWIDTH 15 0
BBX 14 19 0 -5
BITMAP
F0FC
3010
2810
2410
2410
2210
2210
2110
2110
2090
2090
2050
2030
FC30
0000
0300
0780
0CC0
1860
ENDCHAR
STARTCHAR uni1E4B
ENCODING 7755
SWIDTH 600 0
DWIDTH 15 0
BBX 13 16 1 -5
BITMAP
E780
2840
3020
2020
2020
2020
2020
2020
2020
2020
F8F8
0000
0300
0780
0CC0
1860
ENDCHAR
STARTCHAR uni1E4C
ENCODING 7756
SWIDTH 600 0
DWIDTH 15 0
BBX 13 23 1 0
BITMAP
00C0
0180
0300
0600
0000
0E20
1B60
11C0
0000
0F80
3060
6030
4010
8008
8008
8008
8008
8008
8008
4010
6030
3060
0F80
ENDCHAR
STARTCHAR uni1E4D
ENCODING 7757
SWIDTH 600 0
DWIDTH 15 0
BBX 11 20 2 0
BITMAP
0180
0300
0600
0C00
0000
1C40
36C0
2380
0000
1F00
60C0
4040
8020
8020
8020
8020
8020
4040
60C0
1F00
ENDCHAR
STARTCHAR uni1E4E
ENCODING 7758
SWIDTH 600 0
DWIDTH 15 0
BBX 13 21 1 0
BITMAP
18C0
18C0
0000
0E20
1B60
11C0
0000
0F80
3060
6030
4010
8008
8008
8008
8008
8008
8008
4010
6030
3060
0F80
ENDCHAR
STARTCHAR uni1E4F
ENCODING 7759
SWIDTH 600 0
DWIDTH 15 0
BBX 11 18 2 0
BITMAP
3180
3180
0000
1C40
36C0
2380
0000
1F00
60C0
4040
8020
8020
8020
8020
8020
4040
60C0
1F00
ENDCHAR
STARTCHAR uni1E50
ENCODING 7760
SWIDTH 600 0
DWIDTH 15 0
BBX 13 21 1 0
BITMAP
1800
0C00
0600
0300
0000
1FC0
0000
0F80
3060
6030
4010
8008
8008
8008
8008
8008
8008
4010
6030
3060
0F80
ENDCHAR
STARTCHAR uni1E51
ENCODING 7761
SWIDTH 600 0
DWIDTH 15 0
BBX 11 18 2 0
BITMAP
3000
1800
0C00
0600
0000
3F80
0000
1F00
60C0
4040
8020
8020
8020
8020
8020
4040
60C0
1F00
ENDCHAR
STARTCHAR uni1E52
ENCODING 7762
SWIDTH 600 0
DWIDTH 15 0
BBX 13 21 1 0
BITMAP
00C0
0180
0300
0600
0000
1FC0
0000
0F80
3060
6030
4010
8008
8008
8008
8008
8008
8008
4010
6030
3060
0F80
ENDCHAR
STARTCHAR uni1E53
ENCODING 7763
SWIDTH 600 0
DWIDTH 15 0
BBX 11 18 2 0
BITMAP
0180
0300
0600
0C00
0000
3F80
0000
1F00
60C0
4040
8020
8020
8020
8020
8020
4040
60C0
1F00
ENDCHAR
STARTCHAR uni1E54
ENCODING 7764
SWIDTH 600 0
DWIDTH 15 0
BBX 11 19 2 0
BITMAP
0300
0600
0C00
1800
0000
FF80
2040
2020
2020
2020
2020
2040
3F80
2000
2000
2000
2000
2000
FE00
ENDCHAR
STARTCHAR uni1E55
ENCODING 7765
SWIDTH 600 0
DWIDTH 15 0
BBX 13 21 1 -5
BITMAP
0180
0300
0600
0C00
0000
E7C0
2830
3010
2008
2008
2008
2008
2008
3010
2830
27C0
2000
2000
2000
2000
FC00
ENDCHAR
STARTCHAR uni1E56
ENCODING 7766
SWIDTH 600 0
DWIDTH 15 0
BBX 11 17 2 0
BITMAP
0C00
0C00
0000
FF80
2040
2020
2020
2020
2020
2040
3F80
2000
2000
2000
2000
2000
FE00
ENDCHAR
STARTCHAR uni1E57
ENCODING 7767
SWIDTH 600 0
DWIDTH 15 0
BBX 13 19 1 -5
BITMAP
0600
0600
0000
E7C0
2830
3010
2008
2008
2008
2008
2008
3010
2830
27C0
2000
2000
2000
2000
FC00
ENDCHAR
STARTCHAR uni1E58
ENCODING 7768
SWIDTH 600 0
DWIDTH 15 0
BBX 13 17 1 0
BITMAP
0600
0600
0000
FF80
2040
2020
2020
2020
2020
2040
3F80
2100
2080
2040
2040
2020
F838
ENDCHAR
STARTCHAR uni1E59
ENCODING 7769
SWIDTH 600 0
DWIDTH 15 0
BBX 11 14 2 0
BITMAP
0600
0600
0000
71C0
1620
1800
1000
1000
1000
1000
1000
1000
1000
FF80
ENDCHAR
STARTCHAR uni1E5A
ENCODING 7770
SWIDTH 600 0
DWIDTH 15 0
BBX 13 17 1 -3
BITMAP
FF80
2040
2020
2020
2020
2020
2040
3F80
2100
2080
2040
2040
2020
F838
0000
0600
0600
ENDCHAR
STARTCHAR uni1E5B
ENCODING 7771
SWIDTH 600 0
DWIDTH 15 0
BBX 11 14 2 -3
BITMAP
71C0
1620
1800
1000
1000
1000
1000
1000
1000
1000
FF80
0000
0C00
0C00
ENDCHAR
STARTCHAR uni1E5C
ENCODING 7772
SWIDTH 600 0
DWIDTH 15 0
BBX 13 19 1 -3
BITMAP
3F80
0000
FF80
2040
2020
2020
2020
2020
2040
3F80
2100
2080
2040
2040
2020
F838
0000
0600
0600
ENDCHAR
STARTCHAR uni1E5D
ENCODING 7773
SWIDTH 600 0
DWIDTH 15 0
BBX 11 16 2 -3
BITMAP
3F80
0000
71C0
1620
1800
1000
1000
1000
1000
1000
1000
1000
FF80
0000
0C00
0C00
ENDCHAR
STARTCHAR uni1E5E
ENCODING 7774
SWIDTH 600 0
DWIDTH 15 0
BBX 13 16 1 -2
BITMAP
FF80
2040
2020
2020
2020
2020
2040
3F80
2100
2080
2040
2040
2020
F838
0000
1FC0
ENDCHAR
STARTCHAR uni1E5F
ENCODING 7775
SWIDTH 600 0
DWIDTH 15 0
BBX 11 13 2 -2
BITMAP
71C0
1620
1800
1000
1000
1000
1000
1000
1000
1000
FF80
0000
7F00
ENDCHAR
STARTCHAR uni1E60
ENCODING 7776
SWIDTH 600 0
DWIDTH 15 0
BBX 10 17 2 0
BITMAP
0C00
0C00
0000
1E40
6140
80C0
8040
8000
6000
1E00
0180
0040
0040
8040
C040
A080
9F00
ENDCHAR
STARTCHAR uni1E61
ENCODING 7777
SWIDTH 600 0
DWIDTH 15 0
BBX 9 14 3 0
BITMAP
0C00
0C00
0000
3E80
4180
4080
4000
3800
0700
0080
0080
8080
C100
BE00
ENDCHAR
STARTCHAR uni1E62
ENCODING 7778
SWIDTH 600 0
DWIDTH 15 0
BBX 10 17 2 -3
BITMAP
1E40
6140
80C0
8040
8000
6000
1E00
0180
0040
0040
8040
C040
A080
9F00
0000
0C00
0C00
ENDCHAR
STARTCHAR uni1E63
ENCODING 7779
SWIDTH 600 0
DWIDTH 15 0
BBX 9 14 3 -3
BITMAP
3E80
4180
4080
4000
3800
0700
0080
0080
8080
C100
BE00
0000
1800
1800
ENDCHAR
STARTCHAR uni1E64
ENCODING 7780
SWIDTH 600 0
DWIDTH 15 0
BBX 10 22 2 0
BITMAP
0600
0600
0000
0180
0300
0600
0C00
0000
1E40
6140
80C0
8040
8000
6000
1E00
0180
0040
0040
8040
C040
A080
9F00
ENDCHAR
STARTCHAR uni1E65
ENCODING 7781
SWIDTH 600 0
DWIDTH 15 0
BBX 9 19 3 0
BITMAP
0C00
0C00
0000
0300
0600
0C00
1800
0000
3E80
4180
4080
4000
3800
0700
0080
0080
8080
C100
BE00
ENDCHAR
STARTCHAR uni1E66
ENCODING 7782
SWIDTH 600 0
DWIDTH 15 0
BBX 10 22 2 0
BITMAP
0C00
0C00
0000
6180
3300
1E00
0C00
0000
1E40
61C0
80C0
8040
8000
6000
1E00
0180
0040
0040
8040
C040
E080
9F00
ENDCHAR
STARTCHAR uni1E67
ENCODING 7783
SWIDTH 600 0
DWIDTH 15 0
BBX 9 19 3 0
BITMAP
1800
1800
0000
C300
6600
3C00
1800
0000
3E80
4180
4080
4000
3C00
0300
0080
0080
8080
C100
BE00
ENDCHAR
STARTCHAR uni1E68
ENCODING 7784
SWIDTH 600 0
DWIDTH 15 0
BBX 10 20 2 -3
BITMAP
0C00
0C00
0000
1E40
6140
80C0
8040
8000
6000
1E00
0180
0040
0040
8040
C040
A080
9F00
0000
0C00
0C00
ENDCHAR
STARTCHAR uni1E69
ENCODING 7785
SWIDTH 600 0
DWIDTH 15 0
BBX 9 17 3 -3
BITMAP
0C00
0C00
0000
3E80
4180
4080
4000
3800
0700
0080
0080
8080
C100
BE00
0000
1800
1800
ENDCHAR
STARTCHAR uni1E6A
ENCODING 7786
SWIDTH 600 0
DWIDTH 15 0
BBX 11 17 2 0
BITMAP
0600
0600
0000
FFE0
8420
8420
8420
8420
0400
0400
0400
0400
0400
0400
0400
0400
3F80
ENDCHAR
STARTCHAR uni1E6B
ENCODING 7787
SWIDTH 600 0
DWIDTH 15 0
BBX 10 18 2 0
BITMAP
3000
3000
0000
2000
2000
2000
2000
FF80
2000
2000
2000
2000
2000
2000
2000
2000
10C0
0F00
ENDCHAR
STARTCHAR uni1E6C
ENCODING 7788
SWIDTH 600 0
DWIDTH 15 0
BBX 11 17 2 -3
BITMAP
FFE0
8420
8420
8420
8420
0400
0400
0400
0400
0400
0400
0400
0400
3F80
0000
0600
0600
ENDCHAR
STARTCHAR uni1E6D
ENCODING 7789
SWIDTH 600 0
DWIDTH 15 0
BBX 10 18 2 -3
BITMAP
2000
2000
2000
2000
FF80
2000
2000
2000
2000
2000
2000
2000
2000
10C0
0F00
0000
0C00
0C00
ENDCHAR
STARTCHAR uni1E6E
ENCODING 7790
SWIDTH 600 0
DWIDTH 15 0
BBX 11 16 2 -2
BITMAP
FFE0
8420
8420
8420
8420
0400
0400
0400
0400
0400
0400
0400
0400
3F80
0000
3F80
ENDCHAR
STARTCHAR uni1E6F
ENCODING 7791
SWIDTH 600 0
DWIDTH 15 0
BBX 10 17 2 -2
BITMAP
2000
2000
2000
2000
FF80
2000
2000
2000
2000
2000
2000
2000
2000
10C0
0F00
0000
3F80
ENDCHAR
STARTCHAR uni1E70
ENCODING 7792
SWIDTH 600 0
DWIDTH 15 0
BBX 11 19 2 -5
BITMAP
FFE0
8420
8420
8420
8420
0400
0400
0400
0400
0400
0400
0400
0400
3F80
0000
0600
0F00
1980
30C0
ENDCHAR
STARTCHAR uni1E71
ENCODING 7793
SWIDTH 600 0
DWIDTH 15 0
BBX 10 20 2 -5
BITMAP
2000
2000
2000
2000
FF80
2000
2000
2000
2000
2000
2000
2000
2000
10C0
0F00
0000
0C00
1E00
3300
6180
ENDCHAR
STARTCHAR uni1E72
ENCODING 7794
SWIDTH 600 0
DWIDTH 15 0
BBX 12 17 1 -3
BITMAP
F9F0
4020
4020
4020
4020
4020
4020
4020
4020
4020
4020
4020
2040
1F80
0000
18C0
18C0
ENDCHAR
STARTCHAR uni1E73
ENCODING 7795
SWIDTH 600 0
DWIDTH 15 0
BBX 12 14 1 -3
BITMAP
E0E0
2020
2020
2020
2020
2020
2020
2020
2060
10A0
0F30
0000
0C60
0C60
ENDCHAR
STARTCHAR uni1E74
ENCODING 7796
SWIDTH 600 0
DWIDTH 15 0
BBX 12 18 1 -4
BITMAP
F9F0
4020
4020
4020
4020
4020
4020
4020
4020
4020
4020
4020
2040
1F80
0000
1C40
36C0
2380
ENDCHAR
STARTCHAR uni1E75
ENCODING 7797
SWIDTH 600 0
DWIDTH 15 0
BBX 12 15 1 -4
BITMAP
E0E0
2020
2020
2020
2020
2020
2020
2020
2060
10A0
0F30
0000
0E20
1B60
11C0
ENDCHAR
STARTCHAR uni1E76
ENCODING 7798
SWIDTH 600 0
DWIDTH 15 0
BBX 12 19 1 -5
BITMAP
F9F0
4020
4020
4020
4020
4020
4020
4020
4020
4020
4020
4020
2040
1F80
0000
0600
0F00
1980
30C0
ENDCHAR
STARTCHAR uni1E77
ENCODING 7799
SWIDTH 600 0
DWIDTH 15 0
BBX 12 16 1 -5
BITMAP
E0E0
2020
2020
2020
2020
2020
2020
2020
2060
10A0
0F30
0000
0300
0780
0CC0
1860
ENDCHAR
STARTCHAR uni1E78
ENCODING 7800
SWIDTH 600 0
DWIDTH 15 0
BBX 12 23 1 0
BITMAP
0180
0300
0600
0C00
0000
1C40
36C0
2380
0000
F9F0
4020
4020
4020
4020
4020
4020
4020
4020
4020
4020
4020
2040
1F80
ENDCHAR
STARTCHAR uni1E79
ENCODING 7801
SWIDTH 600 0
DWIDTH 15 0
BBX 12 20 1 0
BITMAP
0180
0300
0600
0C00
0000
1C40
36C0
2380
0000
E0E0
2020
2020
2020
2020
2020
2020
2020
2060
10A0
0F30
ENDCHAR
STARTCHAR uni1E7A
ENCODING 7802
SWIDTH 600 0
DWIDTH 15 0
BBX 12 19 1 0
BITMAP
18C0
18C0
0000
1FC0
0000
F9F0
4020
4020
4020
4020
4020
4020
4020
4020
4020
4020
4020
2040
1F80
ENDCHAR
STARTCHAR uni1E7B
ENCODING 7803
SWIDTH 600 0
DWIDTH 15 0
BBX 12 16 1 0
BITMAP
3180
3180
0000
3F80
0000
E0E0
2020
2020
2020
2020
2020
2020
2020
2060
10A0
0F30
ENDCHAR
STARTCHAR uni1E7C
ENCODING 7804
SWIDTH 600 0
DWIDTH 15 0
BBX 13 18 1 0
BITMAP
1C40
36C0
2380
0000
F8F8
4010
4010
2020
2020
1040
1040
1040
0880
0880
0880
0500
0700
0200
ENDCHAR
STARTCHAR uni1E7D
ENCODING 7805
SWIDTH 600 0
DWIDTH 15 0
BBX 13 15 1 0
BITMAP
1C40
36C0
2380
0000
F8F8
2020
2020
1040
1040
1040
0880
0880
0500
0700
0200
ENDCHAR
STARTCHAR uni1E7E
ENCODING 7806
SWIDTH 600 0
DWIDTH 15 0
BBX 13 17 1 -3
BITMAP
F8F8
4010
4010
2020
2020
1040
1040
1040
0880
0880
0880
0500
0700
0200
0000
0300
0300
ENDCHAR
STARTCHAR uni1E7F
ENCODING 7807
SWIDTH 600 0
DWIDTH 15 0
BBX 13 14 1 -3
BITMAP
F8F8
2020
2020
1040
1040
1040
0880
0880
0500
0700
0200
0000
0300
0300
ENDCHAR
STARTCHAR Wgrave
ENCODING 7808
SWIDTH 600 0
DWIDTH 15 0
BBX 13 19 1 0
BITMAP
1800
0C00
0600
0300
0000
F8F8
4010
4010
4210
4210
4510
4510
2520
28A0
28A0
28A0
3060
3060
3060
ENDCHAR
STARTCHAR wgrave
ENCODING 7809
SWIDTH 600 0
DWIDTH 15 0
BBX 13 16 1 0
BITMAP
1800
0C00
0600
0300
0000
F078
4010
4010
4210
2220
2520
2520
2520
1540
18C0
18C0
ENDCHAR
STARTCHAR Wacute
ENCODING 7810
SWIDTH 600 0
DWIDTH 15 0
BBX 13 19 1 0
BITMAP
00C0
0180
0300
0600
0000
F8F8
4010
4010
4210
4210
4510
4510
2520
28A0
28A0
28A0
3060
3060
3060
ENDCHAR
STARTCHAR wacute
ENCODING 7811
SWIDTH 600 0
DWIDTH 15 0
BBX 13 16 1 0
BITMAP
00C0
0180
0300
0600
0000
F078
4010
4010
4210
2220
2520
2520
2520
1540
18C0
18C0
ENDCHAR
STARTCHAR Wdieresis
ENCODING 7812
SWIDTH 600 0
DWIDTH 15 0
BBX 13 17 1 0
BITMAP
18C0
18C0
0000
F8F8
4010
4010
4210
4210
4510
4510
2520
28A0
28A0
28A0
3060
3060
3060
ENDCHAR
STARTCHAR wdieresis
ENCODING 7813
SWIDTH 600 0
DWIDTH 15 0
BBX 13 14 1 0
BITMAP
18C0
18C0
0000
F078
4010
4010
4210
2220
2520
2520
2520
1540
18C0
18C0
ENDCHAR
STARTCHAR uni1E86
ENCODING 7814
SWIDTH 600 0
DWIDTH 15 0
BBX 13 17 1 0
BITMAP
0300
0300
0000
F8F8
4010
4010
4210
4210
4510
4510
2520
28A0
28A0
28A0
3060
3060
3060
ENDCHAR
STARTCHAR uni1E87
ENCODING 7815
SWIDTH 600 0
DWIDTH 15 0
BBX 13 14 1 0
BITMAP
0300
0300
0000
F078
4010
4010
4210
2220
2520
2520
2520
1540
18C0
18C0
ENDCHAR
STARTCHAR uni1E88
ENCODING 7816
SWIDTH 600 0
DWIDTH 15 0
BBX 13 17 1 -3
BITMAP
F8F8
4010
4010
4210
4210
4510
4510
2520
28A0
28A0
28A0
3060
3060
3060
0000
0300
0300
ENDCHAR
STARTCHAR uni1E89
ENCODING 7817
SWIDTH 600 0
DWIDTH 15 0
BBX 13 14 1 -3
BITMAP
F078
4010
4010
4210
2220
2520
2520
2520
1540
18C0
18C0
0000
0300
0300
ENDCHAR
STARTCHAR uni1E8A
ENCODING 7818
SWIDTH 600 0
DWIDTH 15 0
BBX 13 17 1 0
BITMAP
0300
0300
0000
F8F8
2020
1040
1040
0880
0500
0200
0500
0880
0880
1040
2020
2020
F8F8
ENDCHAR
STARTCHAR uni1E8B
ENCODING 7819
SWIDTH 600 0
DWIDTH 15 0
BBX 11 14 2 0
BITMAP
0600
0600
0000
F1E0
4040
2080
1100
0A00
0400
0A00
1100
2080
4040
F1E0
ENDCHAR
STARTCHAR uni1E8C
ENCODING 7820
SWIDTH 600 0
DWIDTH 15 0
BBX 13 17 1 0
BITMAP
18C0
18C0
0000
F8F8
2020
1040
1040
0880
0500
0200
0500
0880
0880
1040
2020
2020
F8F8
ENDCHAR
STARTCHAR uni1E8D
ENCODING 7821
SWIDTH 600 0
DWIDTH 15 0
BBX 11 14 2 0
BITMAP
3180
3180
0000
F1E0
4040
2080
1100
0A00
0400
0A00
1100
2080
4040
F1E0
ENDCHAR
STARTCHAR uni1E8E
ENCODING 7822
SWIDTH 600 0
DWIDTH 15 0
BBX 13 17 1 0
BITMAP
0300
0300
0000
F078
2020
1040
1040
0880
0880
0500
0200
0200
0200
0200
0200
0200
1FC0
ENDCHAR
STARTCHAR uni1E8F
ENCODING 7823
SWIDTH 600 0
DWIDTH 15 0
BBX 12 19 1 -5
BITMAP
0600
0600
0000
F0F0
4020
4020
2040
2040
2080
1080
1100
0900
0A00
0600
0400
0400
0800
0800
FE00
ENDCHAR
STARTCHAR uni1E90
ENCODING 7824
SWIDTH 600 0
DWIDTH 15 0
BBX 10 19 2 0
BITMAP
0C00
1E00
3300
6180
0000
FFC0
8040
8080
8100
8200
0200
0400
0800
1000
1040
2040
4040
8040
FFC0
ENDCHAR
STARTCHAR uni1E91
ENCODING 7825
SWIDTH 600 0
DWIDTH 15 0
BBX 9 16 3 0
BITMAP
1800
3C00
6600
C300
0000
FF80
8080
8100
0200
0400
0800
1000
2000
4080
8080
FF80
ENDCHAR
STARTCHAR uni1E92
ENCODING 7826
SWIDTH 600 0
DWIDTH 15 0
BBX 10 17 2 -3
BITMAP
FFC0
8040
8080
8100
8200
0200
0400
0800
1000
1040
2040
4040
8040
FFC0
0000
0C00
0C00
ENDCHAR
STARTCHAR uni1E93
ENCODING 7827
SWIDTH 600 0
DWIDTH 15 0
BBX 9 14 3 -3
BITMAP
FF80
8080
8100
0200
0400
0800
1000
2000
4080
8080
FF80
0000
0C00
0C00
ENDCHAR
STARTCHAR uni1E94
ENCODING 7828
SWIDTH 600 0
DWIDTH 15 0
BBX 10 16 2 -2
BITMAP
FFC0
8040
8080
8100
8200
0200
0400
0800
1000
1040
2040
4040
8040
FFC0
0000
3F80
ENDCHAR
STARTCHAR uni1E95
ENCODING 7829
SWIDTH 600 0
DWIDTH 15 0
BBX 9 13 3 -2
BITMAP
FF80
8080
8100
0200
0400
0800
1000
2000
4080
8080
FF80
0000
7F00
ENDCHAR
STARTCHAR uni1E96
ENCODING 7830
SWIDTH 600 0
DWIDTH 15 0
BBX 13 17 1 -2
BITMAP
E000
2000
2000
2000
2780
2840
3020
2020
2020
2020
2020
2020
2020
2020
F8F8
0000
1FC0
ENDCHAR
STARTCHAR uni1E97
ENCODING 7831
SWIDTH 600 0
DWIDTH 15 0
BBX 10 18 2 0
BITMAP
C600
C600
0000
2000
2000
2000
2000
FF80
2000
2000
2000
2000
2000
2000
2000
2000
10C0
0F00
ENDCHAR
STARTCHAR uni1E98
ENCODING 7832
SWIDTH 600 0
DWIDTH 15 0
BBX 13 17 1 0
BITMAP
0700
0880
0880
0880
0700
0000
F078
4010
4010
4210
2220
2520
2520
2520
1540
18C0
18C0
ENDCHAR
STARTCHAR uni1E99
ENCODING 7833
SWIDTH 600 0
DWIDTH 15 0
BBX 12 22 1 -5
BITMAP
0700
0880
0880
0880
0700
0000
F0F0
4020
4020
2040
2040
2080
1080
1100
0900
0A00
0600
0400
0400
0800
0800
FE00
ENDCHAR
STARTCHAR uni1EA0
ENCODING 7840
SWIDTH 600 0
DWIDTH 15 0
BBX 13 17 1 -3
BITMAP
3F00
0500
0880
0880
0880
1040
1040
1040
3FE0
2020
2020
4010
4010
F078
0000
0300
0300
ENDCHAR
STARTCHAR uni1EA1
ENCODING 7841
SWIDTH 600 0
DWIDTH 15 0
BBX 11 14 2 -3
BITMAP
3E00
4100
0080
0080
3E80
4180
8080
8080
8080
4180
3EE0
0000
0600
0600
ENDCHAR
STARTCHAR uni1EA4
ENCODING 7844
SWIDTH 600 0
DWIDTH 15 0
BBX 13 24 1 0
BITMAP
0180
0300
0600
0C00
0000
0600
0F00
1980
30C0
0000
3F00
0500
0880
0880
0880
1040
1040
1040
3FE0
2020
2020
4010
4010
F078
ENDCHAR
STARTCHAR uni1EA5
ENCODING 7845
SWIDTH 600 0
DWIDTH 15 0
BBX 11 21 2 0
BITMAP
0300
0600
0C00
1800
0000
0C00
1E00
3300
6180
0000
1E00
6100
0080
0080
0080
3F80
4080
8080
8080
8180
7EE0
ENDCHAR
STARTCHAR uni1EA6
ENCODING 7846
SWIDTH 600 0
DWIDTH 15 0
BBX 13 24 1 0
BITMAP
1800
0C00
0600
0300
0000
0600
0F00
1980
30C0
0000
3F00
0500
0880
0880
0880
1040
1040
1040
3FE0
2020
2020
4010
4010
F078
ENDCHAR
STARTCHAR uni1EA7
ENCODING 7847
SWIDTH 600 0
DWIDTH 15 0
BBX 11 21 2 0
BITMAP
3000
1800
0C00
0600
0000
0C00
1E00
3300
6180
0000
1E00
6100
0080
0080
0080
3F80
4080
8080
8080
8180
7EE0
ENDCHAR
STARTCHAR uni1EAA
ENCODING 7850
SWIDTH 600 0
DWIDTH 15 0
BBX 13 23 1 0
BITMAP
1C40
36C0
2380
0000
0600
0F00
1980
30C0
0000
3F00
0500
0880
0880
0880
1040
1040
1040
3FE0
2020
2020
4010
4010
F078
ENDCHAR
STARTCHAR uni1EAB
ENCODING 7851
SWIDTH 600 0
DWIDTH 15 0
BBX 11 20 2 0
BITMAP
3880
6D80
4700
0000
0C00
1E00
3300
6180
0000
1E00
6100
0080
0080
0080
3F80
4080
8080
8080
8180
7EE0
ENDCHAR
STARTCHAR uni1EAC
ENCODING 7852
SWIDTH 600 0
DWIDTH 15 0
BBX 13 22 1 -3
BITMAP
0600
0F00
1980
30C0
0000
3F00
0500
0880
0880
0880
1040
1040
1040
3FE0
2020
2020
4010
4010
F078
0000
0300
0300
ENDCHAR
STARTCHAR uni1EAD
ENCODING 7853
SWIDTH 600 0
DWIDTH 15 0
BBX 11 19 2 -3
BITMAP
0C00
1E00
3300
6180
0000
3E00
4100
0080
0080
3E80
4180
8080
8080
8080
4180
3EE0
0000
0600
0600
ENDCHAR
STARTCHAR uni1EAE
ENCODING 7854
SWIDTH 600 0
DWIDTH 15 0
BBX 13 23 1 0
BITMAP
0180
0300
0600
0C00
0000
30C0
1980
0F00
0000
3F00
0500
0880
0880
0880
1040
1040
1040
3FE0
2020
2020
4010
4010
F078
ENDCHAR
STARTCHAR uni1EAF
ENCODING 7855
SWIDTH 600 0
DWIDTH 15 0
BBX 11 20 2 0
BITMAP
0300
0600
0C00
1800
0000
6180
3300
1E00
0000
3E00
4100
0080
0080
3E80
4180
8080
8080
8080
4180
3EE0
ENDCHAR
STARTCHAR uni1EB0
ENCODING 7856
SWIDTH 600 0
DWIDTH 15 0
BBX 13 23 1 0
BITMAP
1800
0C00
0600
0300
0000
30C0
1980
0F00
0000
3F00
0500
0880
0880
0880
1040
1040
1040
3FE0
2020
2020
4010
4010
F078
ENDCHAR
STARTCHAR uni1EB1
ENCODING 7857
SWIDTH 600 0
DWIDTH 15 0
BBX 11 20 2 0
BITMAP
3000
1800
0C00
0600
0000
6180
3300
1E00
0000
3E00
4100
0080
0080
3E80
4180
8080
8080
8080
4180
3EE0
ENDCHAR
STARTCHAR uni1EB4
ENCODING 7860
SWIDTH 600 0
DWIDTH 15 0
BBX 13 22 1 0
BITMAP
1C40
36C0
2380
0000
30C0
1980
0F00
0000
3F00
0500
0880
0880
0880
1040
1040
1040
3FE0
2020
2020
4010
4010
F078
ENDCHAR
STARTCHAR uni1EB5
ENCODING 7861
SWIDTH 600 0
DWIDTH 15 0
BBX 11 19 2 0
BITMAP
3880
6D80
4700
0000
6180
3300
1E00
0000
3E00
4100
0080
0080
3E80
4180
8080
8080
8080
4180
3EE0
ENDCHAR
STARTCHAR uni1EB6
ENCODING 7862
SWIDTH 600 0
DWIDTH 15 0
BBX 13 21 1 -3
BITMAP
30C0
1980
0F00
0000
3F00
0500
0880
0880
0880
1040
1040
1040
3FE0
2020
2020
4010
4010
F078
0000
0300
0300
ENDCHAR
STARTCHAR uni1EB7
ENCODING 7863
SWIDTH 600 0
DWIDTH 15 0
BBX 11 18 2 -3
BITMAP
6180
3300
1E00
0000
3E00
4100
0080
0080
3E80
4180
8080
8080
8080
4180
3EE0
0000
0600
0600
ENDCHAR
STARTCHAR uni1EB8
ENCODING 7864
SWIDTH 600 0
DWIDTH 15 0
BBX 12 17 1 -3
BITMAP
FFE0
2020
2020
2020
2200
2200
3E00
2200
2200
2010
2010
2010
2010
FFF0
0000
0600
0600
ENDCHAR
STARTCHAR uni1EB9
ENCODING 7865
SWIDTH 600 0
DWIDTH 15 0
BBX 11 14 2 -3
BITMAP
1F00
60C0
4040
8020
8020
FFE0
8000
8000
4000
6060
1F80
0000
0600
0600
ENDCHAR
STARTCHAR uni1EBC
ENCODING 7868
SWIDTH 600 0
DWIDTH 15 0
BBX 12 18 1 0
BITMAP
1C40
36C0
2380
0000
FFE0
2020
2020
2020
2200
2200
3E00
2200
2200
2010
2010
2010
2010
FFF0
ENDCHAR
STARTCHAR uni1EBD
ENCODING 7869
SWIDTH 600 0
DWIDTH 15 0
BBX 11 15 2 0
BITMAP
3880
6D80
4700
0000
1F00
60C0
4040
8020
8020
FFE0
8000
8000
4000
6060
1F80
ENDCHAR
STARTCHAR uni1EBE
ENCODING 7870
SWIDTH 600 0
DWIDTH 15 0
BBX 12 24 1 0
BITMAP
0180
0300
0600
0C00
0000
0600
0F00
1980
30C0
0000
FFE0
2020
2020
2020
2200
2200
3E00
2200
2200
2010
2010
2010
2010
FFF0
ENDCHAR
STARTCHAR uni1EBF
ENCODING 7871
SWIDTH 600 0
DWIDTH 15 0
BBX 11 21 2 0
BITMAP
0300
0600
0C00
1800
0000
0C00
1E00
3300
6180
0000
1F00
60C0
4040
8020
8020
FFE0
8000
8000
4000
6060
1F80
ENDCHAR
STARTCHAR uni1EC0
ENCODING 7872
SWIDTH 600 0
DWIDTH 15 0
BBX 12 24 1 0
BITMAP
1800
0C00
0600
0300
0000
0600
0F00
1980
30C0
0000
FFE0
2020
2020
2020
2200
2200
3E00
2200
2200
2010
2010
2010
2010
FFF0
ENDCHAR
STARTCHAR uni1EC1
ENCODING 7873
SWIDTH 600 0
DWIDTH 15 0
BBX 11 21 2 0
BITMAP
3000
1800
0C00
0600
0000
0C00
1E00
3300
6180
0000
1F00
60C0
4040
8020
8020
FFE0
8000
8000
4000
6060
1F80
ENDCHAR
STARTCHAR uni1EC4
ENCODING 7876
SWIDTH 600 0
DWIDTH 15 0
BBX 12 23 1 0
BITMAP
1C40
36C0
2380
0000
0600
0F00
1980
30C0
0000
FFE0
2020
2020
2020
2200
2200
3E00
2200
2200
2010
2010
2010
2010
FFF0
ENDCHAR
STARTCHAR uni1EC5
ENCODING 7877
SWIDTH 600 0
DWIDTH 15 0
BBX 11 20 2 0
BITMAP
3880
6D80
4700
0000
0C00
1E00
3300
6180
0000
1F00
60C0
4040
8020
8020
FFE0
8000
8000
4000
6060
1F80
ENDCHAR
STARTCHAR uni1EC6
ENCODING 7878
SWIDTH 600 0
DWIDTH 15 0
BBX 12 22 1 -3
BITMAP
0600
0F00
1980
30C0
0000
FFE0
2020
2020
2020
2200
2200
3E00
2200
2200
2010
2010
2010
2010
FFF0
0000
0600
0600
ENDCHAR
STARTCHAR uni1EC7
ENCODING 7879
SWIDTH 600 0
DWIDTH 15 0
BBX 11 19 2 -3
BITMAP
0600
0F00
1980
30C0
0000
1F00
60C0
4040
8020
8020
FFE0
8000
8000
4000
6060
1F80
0000
0600
0600
ENDCHAR
STARTCHAR uni1ECA
ENCODING 7882
SWIDTH 600 0
DWIDTH 15 0
BBX 9 17 3 -3
BITMAP
FF80
0800
0800
0800
0800
0800
0800
0800
0800
0800
0800
0800
0800
FF80
0000
0C00
0C00
ENDCHAR
STARTCHAR uni1ECB
ENCODING 7883
SWIDTH 600 0
DWIDTH 15 0
BBX 9 19 3 -3
BITMAP
0800
0800
0800
0000
0000
7800
0800
0800
0800
0800
0800
0800
0800
0800
0800
FF80
0000
0C00
0C00
ENDCHAR
STARTCHAR uni1ECC
ENCODING 7884
SWIDTH 600 0
DWIDTH 15 0
BBX 13 17 1 -3
BITMAP
0F80
3060
6030
4010
8008
8008
8008
8008
8008
8008
4010
6030
3060
0F80
0000
0300
0300
ENDCHAR
STARTCHAR uni1ECD
ENCODING 7885
SWIDTH 600 0
DWIDTH 15 0
BBX 11 14 2 -3
BITMAP
1F00
60C0
4040
8020
8020
8020
8020
8020
4040
60C0
1F00
0000
0600
0600
ENDCHAR
STARTCHAR uni1ED0
ENCODING 7888
SWIDTH 600 0
DWIDTH 15 0
BBX 13 24 1 0
BITMAP
00C0
0180
0300
0600
0000
0300
0780
0CC0
1860
0000
0F80
3060
6030
4010
8008
8008
8008
8008
8008
8008
4010
6030
3060
0F80
ENDCHAR
STARTCHAR uni1ED1
ENCODING 7889
SWIDTH 600 0
DWIDTH 15 0
BBX 11 21 2 0
BITMAP
0300
0600
0C00
1800
0000
0C00
1E00
3300
6180
0000
1F00
60C0
4040
8020
8020
8020
8020
8020
4040
60C0
1F00
ENDCHAR
STARTCHAR uni1ED2
ENCODING 7890
SWIDTH 600 0
DWIDTH 15 0
BBX 13 24 1 0
BITMAP
0C00
0600
0300
0180
0000
0300
0780
0CC0
1860
0000
0F80
3060
6030
4010
8008
8008
8008
8008
8008
8008
4010
6030
3060
0F80
ENDCHAR
STARTCHAR uni1ED3
ENCODING 7891
SWIDTH 600 0
DWIDTH 15 0
BBX 11 21 2 0
BITMAP
3000
1800
0C00
0600
0000
0C00
1E00
3300
6180
0000
1F00
60C0
4040
8020
8020
8020
8020
8020
4040
60C0
1F00
ENDCHAR
STARTCHAR uni1ED6
ENCODING 7894
SWIDTH 600 0
DWIDTH 15 0
BBX 13 23 1 0
BITMAP
0E20
1B60
11C0
0000
0300
0780
0CC0
1860
0000
0F80
3060
6030
4010
8008
8008
8008
8008
8008
8008
4010
6030
3060
0F80
ENDCHAR
STARTCHAR uni1ED7
ENCODING 7895
SWIDTH 600 0
DWIDTH 15 0
BBX 11 20 2 0
BITMAP
3880
6D80
4700
0000
0C00
1E00
3300
6180
0000
1F00
60C0
4040
8020
8020
8020
8020
8020
4040
60C0
1F00
ENDCHAR
STARTCHAR uni1ED8
ENCODING 7896
SWIDTH 600 0
DWIDTH 15 0
BBX 13 22 1 -3
BITMAP
0300
0780
0CC0
1860
0000
0F80
3060
6030
4010
8008
8008
8008
8008
8008
8008
4010
6030
3060
0F80
0000
0300
0300
ENDCHAR
STARTCHAR uni1ED9
ENCODING 7897
SWIDTH 600 0
DWIDTH 15 0
BBX 11 19 2 -3
BITMAP
0600
0F00
1980
30C0
0000
1F00
60C0
4040
8020
8020
8020
8020
8020
4040
60C0
1F00
0000
0600
0600
ENDCHAR
STARTCHAR uni1EDA
ENCODING 7898
SWIDTH 600 0
DWIDTH 15 0
BBX 17 19 1 0
BITMAP
001800
003000
006000
00C000
000000
0F8380
306380
603700
401600
800C00
800800
800800
800800
800800
800800
401000
603000
306000
0F8000
ENDCHAR
STARTCHAR uni1EDB
ENCODING 7899
SWIDTH 600 0
DWIDTH 15 0
BBX 15 16 2 0
BITMAP
0030
0060
00C0
0180
0000
1F0E
60CE
405C
8038
8030
8020
8020
8020
4040
60C0
1F00
ENDCHAR
STARTCHAR uni1EDC
ENCODING 7900
SWIDTH 600 0
DWIDTH 15 0
BBX 17 19 1 0
BITMAP
030000
018000
00C000
006000
000000
0F8380
306380
603700
401600
800C00
800800
800800
800800
800800
800800
401000
603000
306000
0F8000
ENDCHAR
STARTCHAR uni1EDD
ENCODING 7901
SWIDTH 600 0
DWIDTH 15 0
BBX 15 16 2 0
BITMAP
0600
0300
0180
00C0
0000
1F0E
60CE
405C
8038
8030
8020
8020
8020
4040
60C0
1F00
ENDCHAR
STARTCHAR uni1EE0
ENCODING 7904
SWIDTH 600 0
DWIDTH 15 0
BBX 17 18 1 0
BITMAP
038800
06D800
047000
000000
0F8380
306380
603700
401600
800C00
800800
800800
800800
800800
800800
401000
603000
306000
0F8000
ENDCHAR
STARTCHAR uni1EE1
ENCODING 7905
SWIDTH 600 0
DWIDTH 15 0
BBX 15 15 2 0
BITMAP
0710
0DB0
08E0
0000
1F0E
60CE
405C
8038
8030
8020
8020
8020
4040
60C0
1F00
ENDCHAR
STARTCHAR uni1EE2
ENCODING 7906
SWIDTH 600 0
DWIDTH 15 0
BBX 17 17 1 -3
BITMAP
0F8380
306380
603700
401600
800C00
800800
800800
800800
800800
800800
401000
603000
306000
0F8000
000000
030000
030000
ENDCHAR
STARTCHAR uni1EE3
ENCODING 7907
SWIDTH 600 0
DWIDTH 15 0
BBX 15 14 2 -3
BITMAP
1F0E
60CE
405C
8038
8030
8020
8020
8020
4040
60C0
1F00
0000
0600
0600
ENDCHAR
STARTCHAR uni1EE4
ENCODING 7908
SWIDTH 600 0
DWIDTH 15 0
BBX 12 17 1 -3
BITMAP
F9F0
4020
4020
4020
4020
4020
4020
4020
4020
4020
4020
4020
2040
1F80
0000
0600
0600
ENDCHAR
STARTCHAR uni1EE5
ENCODING 7909
SWIDTH 600 0
DWIDTH 15 0
BBX 12 14 1 -3
BITMAP
E0E0
2020
2020
2020
2020
2020
2020
2020
2060
10A0
0F30
0000
0300
0300
ENDCHAR
STARTCHAR uni1EE8
ENCODING 7912
SWIDTH 600 0
DWIDTH 15 0
BBX 16 19 1 0
BITMAP
0030
0060
00C0
0180
0000
F9F7
4027
402E
402C
4038
4030
4020
4020
4020
4020
4020
4020
2040
1F80
ENDCHAR
STARTCHAR uni1EE9
ENCODING 7913
SWIDTH 600 0
DWIDTH 15 0
BBX 16 16 1 0
BITMAP
0030
0060
00C0
0180
0000
E0E7
2027
202E
202C
2038
2030
2020
2020
2060
10A0
0F30
ENDCHAR
STARTCHAR uni1EEA
ENCODING 7914
SWIDTH 600 0
DWIDTH 15 0
BBX 16 19 1 0
BITMAP
0300
0180
00C0
0060
0000
F9F7
4027
402E
402C
4038
4030
4020
4020
4020
4020
4020
4020
2040
1F80
ENDCHAR
STARTCHAR uni1EEB
ENCODING 7915
SWIDTH 600 0
DWIDTH 15 0
BBX 16 16 1 0
BITMAP
0300
0180
00C0
0060
0000
E0E7
2027
202E
202C
2038
2030
2020
2020
2060
10A0
0F30
ENDCHAR
STARTCHAR uni1EEE
ENCODING 7918
SWIDTH 600 0
DWIDTH 15 0
BBX 16 18 1 0
BITMAP
0388
06D8
0470
0000
F9F7
4027
402E
402C
4038
4030
4020
4020
4020
4020
4020
4020
2040
1F80
ENDCHAR
STARTCHAR uni1EEF
ENCODING 7919
SWIDTH 600 0
DWIDTH 15 0
BBX 16 15 1 0
BITMAP
0388
06D8
0470
0000
E0E7
2027
202E
202C
2038
2030
2020
2020
2060
10A0
0F30
ENDCHAR
STARTCHAR uni1EF0
ENCODING 7920
SWIDTH 600 0
DWIDTH 15 0
BBX 16 17 1 -3
BITMAP
F9F7
4027
402E
402C
4038
4030
4020
4020
4020
4020
4020
4020
2040
1F80
0000
0300
0300
ENDCHAR
STARTCHAR uni1EF1
ENCODING 7921
SWIDTH 600 0
DWIDTH 15 0
BBX 16 14 1 -3
BITMAP
E0E7
2027
202E
202C
2038
2030
2020
2020
2060
10A0
0F30
0000
0180
0180
ENDCHAR
STARTCHAR Ygrave
ENCODING 7922
SWIDTH 600 0
DWIDTH 15 0
BBX 13 19 1 0
BITMAP
1800
0C00
0600
0300
0000
F078
2020
1040
1040
0880
0880
0500
0200
0200
0200
0200
0200
0200
1FC0
ENDCHAR
STARTCHAR ygrave
ENCODING 7923
SWIDTH 600 0
DWIDTH 15 0
BBX 12 21 1 -5
BITMAP
1800
0C00
0600
0300
0000
F0F0
4020
4020
2040
2040
2080
1080
1100
0900
0A00
0600
0400
0400
0800
0800
FE00
ENDCHAR
STARTCHAR uni1EF4
ENCODING 7924
SWIDTH 600 0
DWIDTH 15 0
BBX 13 17 1 -3
BITMAP
F078
2020
1040
1040
0880
0880
0500
0200
0200
0200
0200
0200
0200
1FC0
0000
0300
0300
ENDCHAR
STARTCHAR uni1EF5
ENCODING 7925
SWIDTH 600 0
DWIDTH 15 0
BBX 12 19 1 -8
BITMAP
F0F0
4020
4020
2040
2040
2080
1080
1100
0900
0A00
0600
0400
0400
0800
0800
FE00
0000
0C00
0C00
ENDCHAR
STARTCHAR uni1EF8
ENCODING 7928
SWIDTH 600 0
DWIDTH 15 0
BBX 13 18 1 0
BITMAP
1C40
36C0
2380
0000
F078
2020
1040
1040
0880
0880
0500
0200
0200
0200
0200
0200
0200
1FC0
ENDCHAR
STARTCHAR uni1EF9
ENCODING 7929
SWIDTH 600 0
DWIDTH 15 0
BBX 12 20 1 -5
BITMAP
1C40
36C0
2380
0000
F0F0
4020
4020
2040
2040
2080
1080
1100
0900
0A00
0600
0400
0400
0800
0800
FE00
ENDCHAR
STARTCHAR uni2000
ENCODING 8192
SWIDTH 600 0
DWIDTH 15 0
BBX 1 1 0 0
BITMAP
00
ENDCHAR
STARTCHAR uni2001
ENCODING 8193
SWIDTH 600 0
DWIDTH 15 0
BBX 1 1 0 0
BITMAP
00
ENDCHAR
STARTCHAR uni2002
ENCODING 8194
SWIDTH 600 0
DWIDTH 15 0
BBX 1 1 0 0
BITMAP
00
ENDCHAR
STARTCHAR uni2003
ENCODING 8195
SWIDTH 600 0
DWIDTH 15 0
BBX 1 1 0 0
BITMAP
00
ENDCHAR
STARTCHAR uni2004
ENCODING 8196
SWIDTH 600 0
DWIDTH 15 0
BBX 1 1 0 0
BITMAP
00
ENDCHAR
STARTCHAR uni2005
ENCODING 8197
SWIDTH 600 0
DWIDTH 15 0
BBX 1 1 0 0
BITMAP
00
ENDCHAR
STARTCHAR uni2006
ENCODING 8198
SWIDTH 600 0
DWIDTH 15 0
BBX 1 1 0 0
BITMAP
00
ENDCHAR
STARTCHAR uni2007
ENCODING 8199
SWIDTH 600 0
DWIDTH 15 0
BBX 1 1 0 0
BITMAP
00
ENDCHAR
STARTCHAR uni2008
ENCODING 8200
SWIDTH 600 0
DWIDTH 15 0
BBX 1 1 0 0
BITMAP
00
ENDCHAR
STARTCHAR uni2009
ENCODING 8201
SWIDTH 600 0
DWIDTH 15 0
BBX 1 1 0 0
BITMAP
00
ENDCHAR
STARTCHAR uni200A
ENCODING 8202
SWIDTH 600 0
DWIDTH 15 0
BBX 1 1 0 0
BITMAP
00
ENDCHAR
STARTCHAR uni2010
ENCODING 8208
SWIDTH 600 0
DWIDTH 15 0
BBX 10 1 2 7
BITMAP
FFC0
ENDCHAR
STARTCHAR uni2011
ENCODING 8209
SWIDTH 600 0
DWIDTH 15 0
BBX 10 1 2 7
BITMAP
FFC0
ENDCHAR
STARTCHAR figuredash
ENCODING 8210
SWIDTH 600 0
DWIDTH 15 0
BBX 12 1 1 7
BITMAP
FFF0
ENDCHAR
STARTCHAR endash
ENCODING 8211
SWIDTH 600 0
DWIDTH 15 0
BBX 12 1 1 7
BITMAP
FFF0
ENDCHAR
STARTCHAR emdash
ENCODING 8212
SWIDTH 600 0
DWIDTH 15 0
BBX 15 1 0 7
BITMAP
FFFE
ENDCHAR
STARTCHAR afii00208
ENCODING 8213
SWIDTH 600 0
DWIDTH 15 0
BBX 15 1 0 7
BITMAP
FFFE
ENDCHAR
STARTCHAR quoteleft
ENCODING 8216
SWIDTH 600 0
DWIDTH 15 0
BBX 5 6 5 10
BITMAP
E0
E0
70
30
18
08
ENDCHAR
STARTCHAR quoteright
ENCODING 8217
SWIDTH 600 0
DWIDTH 15 0
BBX 5 6 6 10
BITMAP
38
38
70
60
C0
80
ENDCHAR
STARTCHAR quotesinglbase
ENCODING 8218
SWIDTH 600 0
DWIDTH 15 0
BBX 5 6 4 -3
BITMAP
38
38
70
60
C0
80
ENDCHAR
STARTCHAR quotereversed
ENCODING 8219
SWIDTH 600 0
DWIDTH 15 0
BBX 5 6 6 10
BITMAP
E0
E0
70
30
18
08
ENDCHAR
STARTCHAR quotedblleft
ENCODING 8220
SWIDTH 600 0
DWIDTH 15 0
BBX 9 6 3 9
BITMAP
EE00
EE00
7700
3300
1980
1980
ENDCHAR
STARTCHAR quotedblright
ENCODING 8221
SWIDTH 600 0
DWIDTH 15 0
BBX 9 6 3 9
BITMAP
3B80
3B80
7700
6600
CC00
CC00
ENDCHAR
STARTCHAR quotedblbase
ENCODING 8222
SWIDTH 600 0
DWIDTH 15 0
BBX 8 6 3 -3
BITMAP
33
33
66
66
CC
88
ENDCHAR
STARTCHAR uni201F
ENCODING 8223
SWIDTH 600 0
DWIDTH 15 0
BBX 9 6 3 9
BITMAP
EE00
EE00
7700
3300
1980
1980
ENDCHAR
STARTCHAR dagger
ENCODING 8224
SWIDTH 600 0
DWIDTH 15 0
BBX 9 18 3 -2
BITMAP
0800
0800
0800
0800
0800
FF80
0800
0800
0800
0800
0800
0800
0800
0800
0800
0800
0800
0800
ENDCHAR
STARTCHAR daggerdbl
ENCODING 8225
SWIDTH 600 0
DWIDTH 15 0
BBX 9 18 3 -2
BITMAP
0800
0800
0800
0800
0800
FF80
0800
0800
0800
0800
0800
0800
FF80
0800
0800
0800
0800
0800
ENDCHAR
STARTCHAR bullet
ENCODING 8226
SWIDTH 600 0
DWIDTH 15 0
BBX 6 6 4 5
BITMAP
78
FC
FC
FC
FC
78
ENDCHAR
STARTCHAR ellipsis
ENCODING 8230
SWIDTH 600 0
DWIDTH 15 0
BBX 12 2 1 0
BITMAP
C630
C630
ENDCHAR
STARTCHAR perthousand
ENCODING 8240
SWIDTH 600 0
DWIDTH 15 0
BBX 13 16 1 0
BITMAP
7000
8800
8800
8800
7000
0070
0380
1C00
E000
0000
0000
3870
4488
4488
4488
3870
ENDCHAR
STARTCHAR guilsinglleft
ENCODING 8249
SWIDTH 600 0
DWIDTH 15 0
BBX 7 11 3 0
BITMAP
06
0C
18
30
60
C0
60
30
18
0C
06
ENDCHAR
STARTCHAR guilsinglright
ENCODING 8250
SWIDTH 600 0
DWIDTH 15 0
BBX 7 11 5 0
BITMAP
C0
60
30
18
0C
06
0C
18
30
60
C0
ENDCHAR
STARTCHAR uni203D
ENCODING 8253
SWIDTH 600 0
DWIDTH 15 0
BBX 8 16 3 0
BITMAP
18
18
7C
9A
99
19
19
19
12
1C
10
10
00
00
18
18
ENDCHAR
STARTCHAR fraction
ENCODING 8260
SWIDTH 600 0
DWIDTH 15 0
BBX 13 7 1 4
BITMAP
0018
0070
01C0
0700
1C00
7000
C000
ENDCHAR
STARTCHAR oneinferior
ENCODING 8321
SWIDTH 600 0
DWIDTH 15 0
BBX 7 9 4 -5
BITMAP
30
D0
10
10
10
10
10
10
FE
ENDCHAR
STARTCHAR twoinferior
ENCODING 8322
SWIDTH 600 0
DWIDTH 15 0
BBX 6 9 4 -5
BITMAP
38
44
84
04
08
10
20
44
FC
ENDCHAR
STARTCHAR threeinferior
ENCODING 8323
SWIDTH 600 0
DWIDTH 15 0
BBX 6 9 4 -5
BITMAP
78
84
04
08
38
04
04
84
78
ENDCHAR
STARTCHAR uni20A5
ENCODING 8357
SWIDTH 600 0
DWIDTH 15 0
BBX 14 18 0 -3
BITMAP
0010
0010
0020
0020
EE70
31C8
2188
2188
2108
2108
2308
2308
2508
2508
F98C
0800
1000
1000
ENDCHAR
STARTCHAR uni20A6
ENCODING 8358
SWIDTH 600 0
DWIDTH 15 0
BBX 14 14 0 0
BITMAP
F0FC
3010
2810
2410
2410
7FF8
2210
2110
7FF8
2090
2090
2050
2030
FC30
ENDCHAR
STARTCHAR uni20A9
ENCODING 8361
SWIDTH 600 0
DWIDTH 15 0
BBX 13 14 1 0
BITMAP
F8F8
4010
4010
4210
4210
7FF8
4510
2520
7FF8
28A0
28A0
3060
3060
3060
ENDCHAR
STARTCHAR Euro
ENCODING 8364
SWIDTH 600 0
DWIDTH 15 0
BBX 15 14 -2 0
BITMAP
00F2
030A
0606
0402
0800
FFF0
0800
0800
FFF0
0800
0402
0606
030C
00F0
ENDCHAR
STARTCHAR uni20AD
ENCODING 8365
SWIDTH 600 0
DWIDTH 15 0
BBX 13 14 1 0
BITMAP
F8F0
2040
2080
2100
2200
2400
FFF8
3200
2100
2080
2040
2040
2020
F878
ENDCHAR
STARTCHAR trademark
ENCODING 8482
SWIDTH 600 0
DWIDTH 15 0
BBX 14 7 0 7
BITMAP
FF1C
AB18
22A8
22A8
2248
2248
771C
ENDCHAR
STARTCHAR uni212A
ENCODING 8490
SWIDTH 600 0
DWIDTH 15 0
BBX 13 14 1 0
BITMAP
F8F0
2040
2080
2100
2200
2400
2C00
3200
2100
2080
2040
2040
2020
F878
ENDCHAR
STARTCHAR uni212B
ENCODING 8491
SWIDTH 600 0
DWIDTH 15 0
BBX 13 19 1 0
BITMAP
0700
0880
0880
0880
0700
3F00
0500
0880
0880
0880
1040
1040
1040
3FE0
2020
2020
4010
4010
F078
ENDCHAR
STARTCHAR uni2132
ENCODING 8498
SWIDTH 600 0
DWIDTH 15 0
BBX 11 14 2 0
BITMAP
0FE0
0080
0080
0080
0080
0880
0880
0F80
0880
0880
8080
8080
8080
FFE0
ENDCHAR
STARTCHAR universal
ENCODING 8704
SWIDTH 600 0
DWIDTH 15 0
BBX 13 14 1 0
BITMAP
F078
4010
4010
2020
2020
3FE0
1040
1040
1040
0880
0880
0880
0500
3F00
ENDCHAR
STARTCHAR existential
ENCODING 8707
SWIDTH 600 0
DWIDTH 15 0
BBX 12 14 1 0
BITMAP
7FF0
4040
4040
4040
0440
0440
07C0
0440
0440
8040
8040
8040
8040
FFF0
ENDCHAR
STARTCHAR uni2204
ENCODING 8708
SWIDTH 600 0
DWIDTH 15 0
BBX 12 18 1 -2
BITMAP
0020
0020
7FF0
4040
40C0
40C0
0540
0540
07C0
0640
0440
8440
8840
8840
9040
FFF0
2000
2000
ENDCHAR
STARTCHAR minus
ENCODING 8722
SWIDTH 600 0
DWIDTH 15 0
BBX 11 1 2 7
BITMAP
FFE0
ENDCHAR
STARTCHAR fraction
ENCODING 8725
SWIDTH 600 0
DWIDTH 15 0
BBX 13 7 1 4
BITMAP
0018
0070
01C0
0700
1C00
7000
C000
ENDCHAR
STARTCHAR periodcentered
ENCODING 8729
SWIDTH 600 0
DWIDTH 15 0
BBX 3 3 6 6
BITMAP
E0
E0
E0
ENDCHAR
STARTCHAR uni2236
ENCODING 8758
SWIDTH 600 0
DWIDTH 15 0
BBX 3 11 6 0
BITMAP
E0
E0
E0
00
00
00
00
00
E0
E0
E0
ENDCHAR
STARTCHAR uni2259
ENCODING 8793
SWIDTH 600 0
DWIDTH 15 0
BBX 12 9 1 5
BITMAP
0600
0F00
1980
30C0
0000
FFF0
0000
0000
FFF0
ENDCHAR
STARTCHAR uni225A
ENCODING 8794
SWIDTH 600 0
DWIDTH 15 0
BBX 12 9 1 5
BITMAP
30C0
1980
0F00
0600
0000
FFF0
0000
0000
FFF0
ENDCHAR
STARTCHAR notequal
ENCODING 8800
SWIDTH 600 0
DWIDTH 15 0
BBX 12 18 1 -2
BITMAP
0020
0020
0040
0040
0080
0080
0100
FFF0
0200
0200
FFF0
0400
0800
0800
1000
1000
2000
2000
ENDCHAR
STARTCHAR equivalence
ENCODING 8801
SWIDTH 600 0
DWIDTH 15 0
BBX 12 5 0 5
BITMAP
FFF0
0000
FFF0
0000
FFF0
ENDCHAR
STARTCHAR uni2262
ENCODING 8802
SWIDTH 600 0
DWIDTH 15 0
BBX 12 18 0 -1
BITMAP
0020
0020
0040
0040
0080
0080
0100
FFF0
0200
FFF0
0400
FFF0
0800
0800
1000
1000
2000
2000
ENDCHAR
STARTCHAR lessequal
ENCODING 8804
SWIDTH 600 0
DWIDTH 15 0
BBX 11 13 1 0
BITMAP
0060
0180
0600
1800
6000
C000
6000
1800
0600
0180
0060
0000
FFE0
ENDCHAR
STARTCHAR greaterequal
ENCODING 8805
SWIDTH 600 0
DWIDTH 15 0
BBX 11 13 2 0
BITMAP
C000
3000
0C00
0300
00C0
0060
00C0
0300
0C00
3000
C000
0000
FFE0
ENDCHAR
STARTCHAR uni226E
ENCODING 8814
SWIDTH 600 0
DWIDTH 15 0
BBX 11 18 1 -1
BITMAP
0040
0040
0080
0080
0160
0180
0600
1A00
6400
C400
6800
1800
1600
1180
2060
2000
4000
4000
ENDCHAR
STARTCHAR uni226F
ENCODING 8815
SWIDTH 600 0
DWIDTH 15 0
BBX 11 18 2 -1
BITMAP
0040
0040
0080
0080
C100
3100
0E00
0300
04C0
0460
08C0
0B00
1C00
3000
E000
2000
4000
4000
ENDCHAR
STARTCHAR uni2270
ENCODING 8816
SWIDTH 600 0
DWIDTH 15 0
BBX 11 18 1 -2
BITMAP
0040
0040
0080
00E0
0180
0700
1A00
6200
C400
6400
1800
0E00
1180
1060
2000
FFE0
4000
4000
ENDCHAR
STARTCHAR uni2271
ENCODING 8817
SWIDTH 600 0
DWIDTH 15 0
BBX 11 18 2 -2
BITMAP
0040
0040
0080
C080
3100
0D00
0300
02C0
0460
04C0
0B00
0C00
3000
D000
2000
FFE0
4000
4000
ENDCHAR
STARTCHAR SF100000
ENCODING 9472
SWIDTH 600 0
DWIDTH 15 0
BBX 15 1 0 6
BITMAP
FFFE
ENDCHAR
STARTCHAR uni2501
ENCODING 9473
SWIDTH 600 0
DWIDTH 15 0
BBX 15 3 0 5
BITMAP
FFFE
FFFE
FFFE
ENDCHAR
STARTCHAR SF110000
ENCODING 9474
SWIDTH 600 0
DWIDTH 15 0
BBX 1 22 7 -5
BITMAP
80
80
80
80
80
80
80
80
80
80
80
80
80
80
80
80
80
80
80
80
80
80
ENDCHAR
STARTCHAR uni2503
ENCODING 9475
SWIDTH 600 0
DWIDTH 15 0
BBX 3 22 6 -5
BITMAP
E0
E0
E0
E0
E0
E0
E0
E0
E0
E0
E0
E0
E0
E0
E0
E0
E0
E0
E0
E0
E0
E0
ENDCHAR
STARTCHAR SF010000
ENCODING 9484
SWIDTH 600 0
DWIDTH 15 0
BBX 8 12 7 -5
BITMAP
FF
80
80
80
80
80
80
80
80
80
80
80
ENDCHAR
STARTCHAR uni250D
ENCODING 9485
SWIDTH 600 0
DWIDTH 15 0
BBX 9 13 6 -5
BITMAP
FF80
FF80
FF80
4000
4000
4000
4000
4000
4000
4000
4000
4000
4000
ENDCHAR
STARTCHAR uni250E
ENCODING 9486
SWIDTH 600 0
DWIDTH 15 0
BBX 9 13 6 -5
BITMAP
E000
FF80
E000
E000
E000
E000
E000
E000
E000
E000
E000
E000
E000
ENDCHAR
STARTCHAR uni250F
ENCODING 9487
SWIDTH 600 0
DWIDTH 15 0
BBX 9 13 6 -5
BITMAP
FF80
FF80
FF80
E000
E000
E000
E000
E000
E000
E000
E000
E000
E000
ENDCHAR
STARTCHAR SF030000
ENCODING 9488
SWIDTH 600 0
DWIDTH 15 0
BBX 8 12 0 -5
BITMAP
FF
01
01
01
01
01
01
01
01
01
01
01
ENDCHAR
STARTCHAR uni2511
ENCODING 9489
SWIDTH 600 0
DWIDTH 15 0
BBX 9 13 0 -5
BITMAP
FF80
FF80
FF80
0100
0100
0100
0100
0100
0100
0100
0100
0100
0100
ENDCHAR
STARTCHAR uni2512
ENCODING 9490
SWIDTH 600 0
DWIDTH 15 0
BBX 9 13 0 -5
BITMAP
0380
FF80
0380
0380
0380
0380
0380
0380
0380
0380
0380
0380
0380
ENDCHAR
STARTCHAR uni2513
ENCODING 9491
SWIDTH 600 0
DWIDTH 15 0
BBX 9 13 0 -5
BITMAP
FF80
FF80
FF80
0380
0380
0380
0380
0380
0380
0380
0380
0380
0380
ENDCHAR
STARTCHAR SF020000
ENCODING 9492
SWIDTH 600 0
DWIDTH 15 0
BBX 8 11 7 6
BITMAP
80
80
80
80
80
80
80
80
80
80
FF
ENDCHAR
STARTCHAR uni2515
ENCODING 9493
SWIDTH 600 0
DWIDTH 15 0
BBX 9 12 6 5
BITMAP
4000
4000
4000
4000
4000
4000
4000
4000
4000
FF80
FF80
FF80
ENDCHAR
STARTCHAR uni2516
ENCODING 9494
SWIDTH 600 0
DWIDTH 15 0
BBX 9 12 6 5
BITMAP
E000
E000
E000
E000
E000
E000
E000
E000
E000
E000
FF80
E000
ENDCHAR
STARTCHAR uni2517
ENCODING 9495
SWIDTH 600 0
DWIDTH 15 0
BBX 9 12 6 5
BITMAP
E000
E000
E000
E000
E000
E000
E000
E000
E000
FF80
FF80
FF80
ENDCHAR
STARTCHAR SF040000
ENCODING 9496
SWIDTH 600 0
DWIDTH 15 0
BBX 8 11 0 6
BITMAP
01
01
01
01
01
01
01
01
01
01
FF
ENDCHAR
STARTCHAR uni2519
ENCODING 9497
SWIDTH 600 0
DWIDTH 15 0
BBX 9 12 0 5
BITMAP
0100
0100
0100
0100
0100
0100
0100
0100
0100
FF80
FF80
FF80
ENDCHAR
STARTCHAR uni251A
ENCODING 9498
SWIDTH 600 0
DWIDTH 15 0
BBX 9 12 0 5
BITMAP
0380
0380
0380
0380
0380
0380
0380
0380
0380
0380
FF80
0380
ENDCHAR
STARTCHAR uni251B
ENCODING 9499
SWIDTH 600 0
DWIDTH 15 0
BBX 9 12 0 5
BITMAP
0380
0380
0380
0380
0380
0380
0380
0380
0380
FF80
FF80
FF80
ENDCHAR
STARTCHAR SF080000
ENCODING 9500
SWIDTH 600 0
DWIDTH 15 0
BBX 8 22 7 -5
BITMAP
80
80
80
80
80
80
80
80
80
80
FF
80
80
80
80
80
80
80
80
80
80
80
ENDCHAR
STARTCHAR uni251D
ENCODING 9501
SWIDTH 600 0
DWIDTH 15 0
BBX 9 22 6 -5
BITMAP
4000
4000
4000
4000
4000
4000
4000
4000
4000
FF80
FF80
FF80
4000
4000
4000
4000
4000
4000
4000
4000
4000
4000
ENDCHAR
STARTCHAR uni251E
ENCODING 9502
SWIDTH 600 0
DWIDTH 15 0
BBX 9 22 6 -5
BITMAP
E000
E000
E000
E000
E000
E000
E000
E000
E000
E000
FF80
E000
4000
4000
4000
4000
4000
4000
4000
4000
4000
4000
ENDCHAR
STARTCHAR uni251F
ENCODING 9503
SWIDTH 600 0
DWIDTH 15 0
BBX 9 22 6 -5
BITMAP
4000
4000
4000
4000
4000
4000
4000
4000
4000
E000
FF80
E000
E000
E000
E000
E000
E000
E000
E000
E000
E000
E000
ENDCHAR
STARTCHAR uni2520
ENCODING 9504
SWIDTH 600 0
DWIDTH 15 0
BBX 9 22 6 -5
BITMAP
E000
E000
E000
E000
E000
E000
E000
E000
E000
E000
FF80
E000
E000
E000
E000
E000
E000
E000
E000
E000
E000
E000
ENDCHAR
STARTCHAR uni2521
ENCODING 9505
SWIDTH 600 0
DWIDTH 15 0
BBX 9 22 6 -5
BITMAP
E000
E000
E000
E000
E000
E000
E000
E000
E000
FF80
FF80
FF80
4000
4000
4000
4000
4000
4000
4000
4000
4000
4000
ENDCHAR
STARTCHAR uni2522
ENCODING 9506
SWIDTH 600 0
DWIDTH 15 0
BBX 9 22 6 -5
BITMAP
4000
4000
4000
4000
4000
4000
4000
4000
4000
FF80
FF80
FF80
E000
E000
E000
E000
E000
E000
E000
E000
E000
E000
ENDCHAR
STARTCHAR uni2523
ENCODING 9507
SWIDTH 600 0
DWIDTH 15 0
BBX 9 22 6 -5
BITMAP
E000
E000
E000
E000
E000
E000
E000
E000
E000
FF80
FF80
FF80
E000
E000
E000
E000
E000
E000
E000
E000
E000
E000
ENDCHAR
STARTCHAR SF090000
ENCODING 9508
SWIDTH 600 0
DWIDTH 15 0
BBX 8 22 0 -5
BITMAP
01
01
01
01
01
01
01
01
01
01
FF
01
01
01
01
01
01
01
01
01
01
01
ENDCHAR
STARTCHAR uni2525
ENCODING 9509
SWIDTH 600 0
DWIDTH 15 0
BBX 9 22 0 -5
BITMAP
0100
0100
0100
0100
0100
0100
0100
0100
0100
FF80
FF80
FF80
0100
0100
0100
0100
0100
0100
0100
0100
0100
0100
ENDCHAR
STARTCHAR uni2526
ENCODING 9510
SWIDTH 600 0
DWIDTH 15 0
BBX 9 22 0 -5
BITMAP
0380
0380
0380
0380
0380
0380
0380
0380
0380
0380
FF80
0380
0100
0100
0100
0100
0100
0100
0100
0100
0100
0100
ENDCHAR
STARTCHAR uni2527
ENCODING 9511
SWIDTH 600 0
DWIDTH 15 0
BBX 9 22 0 -5
BITMAP
0100
0100
0100
0100
0100
0100
0100
0100
0100
0380
FF80
0380
0380
0380
0380
0380
0380
0380
0380
0380
0380
0380
ENDCHAR
STARTCHAR uni2528
ENCODING 9512
SWIDTH 600 0
DWIDTH 15 0
BBX 9 22 0 -5
BITMAP
0380
0380
0380
0380
0380
0380
0380
0380
0380
0380
FF80
0380
0380
0380
0380
0380
0380
0380
0380
0380
0380
0380
ENDCHAR
STARTCHAR uni2529
ENCODING 9513
SWIDTH 600 0
DWIDTH 15 0
BBX 9 22 0 -5
BITMAP
0380
0380
0380
0380
0380
0380
0380
0380
0380
FF80
FF80
FF80
0100
0100
0100
0100
0100
0100
0100
0100
0100
0100
ENDCHAR
STARTCHAR uni252A
ENCODING 9514
SWIDTH 600 0
DWIDTH 15 0
BBX 9 22 0 -5
BITMAP
0100
0100
0100
0100
0100
0100
0100
0100
0100
FF80
FF80
FF80
0380
0380
0380
0380
0380
0380
0380
0380
0380
0380
ENDCHAR
STARTCHAR uni252B
ENCODING 9515
SWIDTH 600 0
DWIDTH 15 0
BBX 9 22 0 -5
BITMAP
0380
0380
0380
0380
0380
0380
0380
0380
0380
FF80
FF80
FF80
0380
0380
0380
0380
0380
0380
0380
0380
0380
0380
ENDCHAR
STARTCHAR SF060000
ENCODING 9516
SWIDTH 600 0
DWIDTH 15 0
BBX 15 12 0 -5
BITMAP
FFFE
0100
0100
0100
0100
0100
0100
0100
0100
0100
0100
0100
ENDCHAR
STARTCHAR uni252D
ENCODING 9517
SWIDTH 600 0
DWIDTH 15 0
BBX 15 13 0 -5
BITMAP
FF80
FFFE
FF80
0100
0100
0100
0100
0100
0100
0100
0100
0100
0100
ENDCHAR
STARTCHAR uni252E
ENCODING 9518
SWIDTH 600 0
DWIDTH 15 0
BBX 15 13 0 -5
BITMAP
03FE
FFFE
03FE
0100
0100
0100
0100
0100
0100
0100
0100
0100
0100
ENDCHAR
STARTCHAR uni252F
ENCODING 9519
SWIDTH 600 0
DWIDTH 15 0
BBX 15 13 0 -5
BITMAP
FFFE
FFFE
FFFE
0100
0100
0100
0100
0100
0100
0100
0100
0100
0100
ENDCHAR
STARTCHAR uni2530
ENCODING 9520
SWIDTH 600 0
DWIDTH 15 0
BBX 15 13 0 -5
BITMAP
0380
FFFE
0380
0380
0380
0380
0380
0380
0380
0380
0380
0380
0380
ENDCHAR
STARTCHAR uni2531
ENCODING 9521
SWIDTH 600 0
DWIDTH 15 0
BBX 15 13 0 -5
BITMAP
FF80
FFFE
FF80
0380
0380
0380
0380
0380
0380
0380
0380
0380
0380
ENDCHAR
STARTCHAR uni2532
ENCODING 9522
SWIDTH 600 0
DWIDTH 15 0
BBX 15 13 0 -5
BITMAP
03FE
FFFE
03FE
0380
0380
0380
0380
0380
0380
0380
0380
0380
0380
ENDCHAR
STARTCHAR uni2533
ENCODING 9523
SWIDTH 600 0
DWIDTH 15 0
BBX 15 13 0 -5
BITMAP
FFFE
FFFE
FFFE
0380
0380
0380
0380
0380
0380
0380
0380
0380
0380
ENDCHAR
STARTCHAR SF070000
ENCODING 9524
SWIDTH 600 0
DWIDTH 15 0
BBX 15 11 0 6
BITMAP
0100
0100
0100
0100
0100
0100
0100
0100
0100
0100
FFFE
ENDCHAR
STARTCHAR uni2535
ENCODING 9525
SWIDTH 600 0
DWIDTH 15 0
BBX 15 12 0 5
BITMAP
0100
0100
0100
0100
0100
0100
0100
0100
0100
FF80
FFFE
FF80
ENDCHAR
STARTCHAR uni2536
ENCODING 9526
SWIDTH 600 0
DWIDTH 15 0
BBX 15 12 0 5
BITMAP
0100
0100
0100
0100
0100
0100
0100
0100
0100
03FE
FFFE
03FE
ENDCHAR
STARTCHAR uni2537
ENCODING 9527
SWIDTH 600 0
DWIDTH 15 0
BBX 15 12 0 5
BITMAP
0100
0100
0100
0100
0100
0100
0100
0100
0100
FFFE
FFFE
FFFE
ENDCHAR
STARTCHAR uni2538
ENCODING 9528
SWIDTH 600 0
DWIDTH 15 0
BBX 15 12 0 5
BITMAP
0380
0380
0380
0380
0380
0380
0380
0380
0380
0380
FFFE
0380
ENDCHAR
STARTCHAR uni2539
ENCODING 9529
SWIDTH 600 0
DWIDTH 15 0
BBX 15 12 0 5
BITMAP
0380
0380
0380
0380
0380
0380
0380
0380
0380
FF80
FFFE
FF80
ENDCHAR
STARTCHAR uni253A
ENCODING 9530
SWIDTH 600 0
DWIDTH 15 0
BBX 15 12 0 5
BITMAP
0380
0380
0380
0380
0380
0380
0380
0380
0380
03FE
FFFE
03FE
ENDCHAR
STARTCHAR uni253B
ENCODING 9531
SWIDTH 600 0
DWIDTH 15 0
BBX 15 12 0 5
BITMAP
0380
0380
0380
0380
0380
0380
0380
0380
0380
FFFE
FFFE
FFFE
ENDCHAR
STARTCHAR SF050000
ENCODING 9532
SWIDTH 600 0
DWIDTH 15 0
BBX 15 22 0 -5
BITMAP
0100
0100
0100
0100
0100
0100
0100
0100
0100
0100
FFFE
0100
0100
0100
0100
0100
0100
0100
0100
0100
0100
0100
ENDCHAR
STARTCHAR uni253D
ENCODING 9533
SWIDTH 600 0
DWIDTH 15 0
BBX 15 22 0 -5
BITMAP
0100
0100
0100
0100
0100
0100
0100
0100
0100
FF80
FFFE
FF80
0100
0100
0100
0100
0100
0100
0100
0100
0100
0100
ENDCHAR
STARTCHAR uni253E
ENCODING 9534
SWIDTH 600 0
DWIDTH 15 0
BBX 15 22 0 -5
BITMAP
0100
0100
0100
0100
0100
0100
0100
0100
0100
03FE
FFFE
03FE
0100
0100
0100
0100
0100
0100
0100
0100
0100
0100
ENDCHAR
STARTCHAR uni253F
ENCODING 9535
SWIDTH 600 0
DWIDTH 15 0
BBX 15 22 0 -5
BITMAP
0100
0100
0100
0100
0100
0100
0100
0100
0100
FFFE
FFFE
FFFE
0100
0100
0100
0100
0100
0100
0100
0100
0100
0100
ENDCHAR
STARTCHAR uni2540
ENCODING 9536
SWIDTH 600 0
DWIDTH 15 0
BBX 15 22 0 -5
BITMAP
0380
0380
0380
0380
0380
0380
0380
0380
0380
0380
FFFE
0380
0100
0100
0100
0100
0100
0100
0100
0100
0100
0100
ENDCHAR
STARTCHAR uni2541
ENCODING 9537
SWIDTH 600 0
DWIDTH 15 0
BBX 15 22 0 -5
BITMAP
0100
0100
0100
0100
0100
0100
0100
0100
0100
0380
FFFE
0380
0380
0380
0380
0380
0380
0380
0380
0380
0380
0380
ENDCHAR
STARTCHAR uni2542
ENCODING 9538
SWIDTH 600 0
DWIDTH 15 0
BBX 15 22 0 -5
BITMAP
0380
0380
0380
0380
0380
0380
0380
0380
0380
0380
FFFE
0380
0380
0380
0380
0380
0380
0380
0380
0380
0380
0380
ENDCHAR
STARTCHAR uni2543
ENCODING 9539
SWIDTH 600 0
DWIDTH 15 0
BBX 15 22 0 -5
BITMAP
0380
0380
0380
0380
0380
0380
0380
0380
0380
FF80
FFFE
FF80
0100
0100
0100
0100
0100
0100
0100
0100
0100
0100
ENDCHAR
STARTCHAR uni2544
ENCODING 9540
SWIDTH 600 0
DWIDTH 15 0
BBX 15 22 0 -5
BITMAP
0380
0380
0380
0380
0380
0380
0380
0380
0380
03FE
FFFE
03FE
0100
0100
0100
0100
0100
0100
0100
0100
0100
0100
ENDCHAR
STARTCHAR uni2545
ENCODING 9541
SWIDTH 600 0
DWIDTH 15 0
BBX 15 22 0 -5
BITMAP
0100
0100
0100
0100
0100
0100
0100
0100
0100
FF80
FFFE
FF80
0380
0380
0380
0380
0380
0380
0380
0380
0380
0380
ENDCHAR
STARTCHAR uni2546
ENCODING 9542
SWIDTH 600 0
DWIDTH 15 0
BBX 15 22 0 -5
BITMAP
0100
0100
0100
0100
0100
0100
0100
0100
0100
03FE
FFFE
03FE
0380
0380
0380
0380
0380
0380
0380
0380
0380
0380
ENDCHAR
STARTCHAR uni2547
ENCODING 9543
SWIDTH 600 0
DWIDTH 15 0
BBX 15 22 0 -5
BITMAP
0380
0380
0380
0380
0380
0380
0380
0380
0380
FFFE
FFFE
FFFE
0100
0100
0100
0100
0100
0100
0100
0100
0100
0100
ENDCHAR
STARTCHAR uni2548
ENCODING 9544
SWIDTH 600 0
DWIDTH 15 0
BBX 15 22 0 -5
BITMAP
0100
0100
0100
0100
0100
0100
0100
0100
0100
FFFE
FFFE
FFFE
0380
0380
0380
0380
0380
0380
0380
0380
0380
0380
ENDCHAR
STARTCHAR uni2549
ENCODING 9545
SWIDTH 600 0
DWIDTH 15 0
BBX 15 22 0 -5
BITMAP
0380
0380
0380
0380
0380
0380
0380
0380
0380
FF80
FFFE
FF80
0380
0380
0380
0380
0380
0380
0380
0380
0380
0380
ENDCHAR
STARTCHAR uni254A
ENCODING 9546
SWIDTH 600 0
DWIDTH 15 0
BBX 15 22 0 -5
BITMAP
0380
0380
0380
0380
0380
0380
0380
0380
0380
03FE
FFFE
03FE
0380
0380
0380
0380
0380
0380
0380
0380
0380
0380
ENDCHAR
STARTCHAR uni254B
ENCODING 9547
SWIDTH 600 0
DWIDTH 15 0
BBX 15 22 0 -5
BITMAP
0380
0380
0380
0380
0380
0380
0380
0380
0380
FFFE
FFFE
FFFE
0380
0380
0380
0380
0380
0380
0380
0380
0380
0380
ENDCHAR
STARTCHAR uni254C
ENCODING 9548
SWIDTH 600 0
DWIDTH 15 0
BBX 15 22 0 -5
BITMAP
0000
0000
0000
0000
0000
0000
0000
0000
0000
0000
FEFE
0000
0000
0000
0000
0000
0000
0000
0000
0000
0000
0000
ENDCHAR
STARTCHAR uni254D
ENCODING 9549
SWIDTH 600 0
DWIDTH 15 0
BBX 15 22 0 -5
BITMAP
0000
0000
0000
0000
0000
0000
0000
0000
0000
FEFE
FEFE
FEFE
0000
0000
0000
0000
0000
0000
0000
0000
0000
0000
ENDCHAR
STARTCHAR uni254E
ENCODING 9550
SWIDTH 600 0
DWIDTH 15 0
BBX 15 22 0 -5
BITMAP
0100
0100
0100
0100
0100
0100
0100
0100
0100
0100
0000
0100
0100
0100
0100
0100
0100
0100
0100
0100
0100
0100
ENDCHAR
STARTCHAR uni254F
ENCODING 9551
SWIDTH 600 0
DWIDTH 15 0
BBX 15 22 0 -5
BITMAP
0380
0380
0380
0380
0380
0380
0380
0380
0380
0380
0000
0380
0380
0380
0380
0380
0380
0380
0380
0380
0380
0380
ENDCHAR
STARTCHAR SF430000
ENCODING 9552
SWIDTH 600 0
DWIDTH 15 0
BBX 15 3 0 5
BITMAP
FFFE
0000
FFFE
ENDCHAR
STARTCHAR SF240000
ENCODING 9553
SWIDTH 600 0
DWIDTH 15 0
BBX 3 22 6 -5
BITMAP
A0
A0
A0
A0
A0
A0
A0
A0
A0
A0
A0
A0
A0
A0
A0
A0
A0
A0
A0
A0
A0
A0
ENDCHAR
STARTCHAR SF390000
ENCODING 9556
SWIDTH 600 0
DWIDTH 15 0
BBX 9 13 6 -5
BITMAP
FF80
8000
BF80
A000
A000
A000
A000
A000
A000
A000
A000
A000
A000
ENDCHAR
STARTCHAR SF250000
ENCODING 9559
SWIDTH 600 0
DWIDTH 15 0
BBX 9 13 0 -5
BITMAP
FF80
0080
FE80
0280
0280
0280
0280
0280
0280
0280
0280
0280
0280
ENDCHAR
STARTCHAR SF380000
ENCODING 9562
SWIDTH 600 0
DWIDTH 15 0
BBX 9 12 6 5
BITMAP
A000
A000
A000
A000
A000
A000
A000
A000
A000
BF80
8000
FF80
ENDCHAR
STARTCHAR SF260000
ENCODING 9565
SWIDTH 600 0
DWIDTH 15 0
BBX 9 12 0 5
BITMAP
0280
0280
0280
0280
0280
0280
0280
0280
0280
FE80
0080
FF80
ENDCHAR
STARTCHAR SF420000
ENCODING 9568
SWIDTH 600 0
DWIDTH 15 0
BBX 9 22 6 -5
BITMAP
A000
A000
A000
A000
A000
A000
A000
A000
A000
BF80
8000
BF80
A000
A000
A000
A000
A000
A000
A000
A000
A000
A000
ENDCHAR
STARTCHAR SF230000
ENCODING 9571
SWIDTH 600 0
DWIDTH 15 0
BBX 9 22 0 -5
BITMAP
0280
0280
0280
0280
0280
0280
0280
0280
0280
FE80
0080
FE80
0280
0280
0280
0280
0280
0280
0280
0280
0280
0280
ENDCHAR
STARTCHAR SF410000
ENCODING 9574
SWIDTH 600 0
DWIDTH 15 0
BBX 15 13 0 -5
BITMAP
FFFE
0000
FEFE
0280
0280
0280
0280
0280
0280
0280
0280
0280
0280
ENDCHAR
STARTCHAR SF400000
ENCODING 9577
SWIDTH 600 0
DWIDTH 15 0
BBX 15 12 0 5
BITMAP
0280
0280
0280
0280
0280
0280
0280
0280
0280
FEFE
0000
FFFE
ENDCHAR
STARTCHAR SF540000
ENCODING 9578
SWIDTH 600 0
DWIDTH 15 0
BBX 15 22 0 -5
BITMAP
0100
0100
0100
0100
0100
0100
0100
0100
0100
FFFE
0100
FFFE
0100
0100
0100
0100
0100
0100
0100
0100
0100
0100
ENDCHAR
STARTCHAR SF530000
ENCODING 9579
SWIDTH 600 0
DWIDTH 15 0
BBX 15 22 0 -5
BITMAP
0280
0280
0280
0280
0280
0280
0280
0280
0280
0280
FFFE
0280
0280
0280
0280
0280
0280
0280
0280
0280
0280
0280
ENDCHAR
STARTCHAR SF440000
ENCODING 9580
SWIDTH 600 0
DWIDTH 15 0
BBX 15 22 0 -5
BITMAP
0280
0280
0280
0280
0280
0280
0280
0280
0280
FEFE
0000
FEFE
0280
0280
0280
0280
0280
0280
0280
0280
0280
0280
ENDCHAR
STARTCHAR uni2574
ENCODING 9588
SWIDTH 600 0
DWIDTH 15 0
BBX 8 1 0 6
BITMAP
FF
ENDCHAR
STARTCHAR uni2575
ENCODING 9589
SWIDTH 600 0
DWIDTH 15 0
BBX 1 11 7 6
BITMAP
80
80
80
80
80
80
80
80
80
80
80
ENDCHAR
STARTCHAR uni2576
ENCODING 9590
SWIDTH 600 0
DWIDTH 15 0
BBX 8 1 7 6
BITMAP
FF
ENDCHAR
STARTCHAR uni2577
ENCODING 9591
SWIDTH 600 0
DWIDTH 15 0
BBX 1 12 7 -5
BITMAP
80
80
80
80
80
80
80
80
80
80
80
80
ENDCHAR
STARTCHAR uni2578
ENCODING 9592
SWIDTH 600 0
DWIDTH 15 0
BBX 9 3 0 5
BITMAP
FF80
FF80
FF80
ENDCHAR
STARTCHAR uni2579
ENCODING 9593
SWIDTH 600 0
DWIDTH 15 0
BBX 3 12 6 5
BITMAP
E0
E0
E0
E0
E0
E0
E0
E0
E0
E0
E0
E0
ENDCHAR
STARTCHAR uni257A
ENCODING 9594
SWIDTH 600 0
DWIDTH 15 0
BBX 9 3 6 5
BITMAP
FF80
FF80
FF80
ENDCHAR
STARTCHAR uni257B
ENCODING 9595
SWIDTH 600 0
DWIDTH 15 0
BBX 3 13 6 -5
BITMAP
E0
E0
E0
E0
E0
E0
E0
E0
E0
E0
E0
E0
E0
ENDCHAR
STARTCHAR uni257C
ENCODING 9596
SWIDTH 600 0
DWIDTH 15 0
BBX 15 3 0 5
BITMAP
03FE
FFFE
03FE
ENDCHAR
STARTCHAR uni257D
ENCODING 9597
SWIDTH 600 0
DWIDTH 15 0
BBX 3 22 6 -5
BITMAP
40
40
40
40
40
40
40
40
40
E0
E0
E0
E0
E0
E0
E0
E0
E0
E0
E0
E0
E0
ENDCHAR
STARTCHAR uni257E
ENCODING 9598
SWIDTH 600 0
DWIDTH 15 0
BBX 15 3 0 5
BITMAP
FF80
FFFE
FF80
ENDCHAR
STARTCHAR uni257F
ENCODING 9599
SWIDTH 600 0
DWIDTH 15 0
BBX 3 22 6 -5
BITMAP
E0
E0
E0
E0
E0
E0
E0
E0
E0
E0
E0
E0
40
40
40
40
40
40
40
40
40
40
ENDCHAR
STARTCHAR upblock
ENCODING 9600
SWIDTH 600 0
DWIDTH 15 0
BBX 15 23 0 -5
BITMAP
FFFE
FFFE
FFFE
FFFE
FFFE
FFFE
FFFE
FFFE
FFFE
FFFE
FFFE
0000
0000
0000
0000
0000
0000
0000
0000
0000
0000
0000
0000
ENDCHAR
STARTCHAR uni2581
ENCODING 9601
SWIDTH 600 0
DWIDTH 15 0
BBX 15 3 0 -5
BITMAP
FFFE
FFFE
FFFE
ENDCHAR
STARTCHAR uni2582
ENCODING 9602
SWIDTH 600 0
DWIDTH 15 0
BBX 15 6 0 -5
BITMAP
FFFE
FFFE
FFFE
FFFE
FFFE
FFFE
ENDCHAR
STARTCHAR uni2583
ENCODING 9603
SWIDTH 600 0
DWIDTH 15 0
BBX 15 9 0 -5
BITMAP
FFFE
FFFE
FFFE
FFFE
FFFE
FFFE
FFFE
FFFE
FFFE
ENDCHAR
STARTCHAR dnblock
ENCODING 9604
SWIDTH 600 0
DWIDTH 15 0
BBX 15 12 0 -5
BITMAP
FFFE
FFFE
FFFE
FFFE
FFFE
FFFE
FFFE
FFFE
FFFE
FFFE
FFFE
FFFE
ENDCHAR
STARTCHAR uni2585
ENCODING 9605
SWIDTH 600 0
DWIDTH 15 0
BBX 15 14 0 -5
BITMAP
FFFE
FFFE
FFFE
FFFE
FFFE
FFFE
FFFE
FFFE
FFFE
FFFE
FFFE
FFFE
FFFE
FFFE
ENDCHAR
STARTCHAR uni2586
ENCODING 9606
SWIDTH 600 0
DWIDTH 15 0
BBX 15 17 0 -5
BITMAP
FFFE
FFFE
FFFE
FFFE
FFFE
FFFE
FFFE
FFFE
FFFE
FFFE
FFFE
FFFE
FFFE
FFFE
FFFE
FFFE
FFFE
ENDCHAR
STARTCHAR uni2587
ENCODING 9607
SWIDTH 600 0
DWIDTH 15 0
BBX 15 20 0 -5
BITMAP
FFFE
FFFE
FFFE
FFFE
FFFE
FFFE
FFFE
FFFE
FFFE
FFFE
FFFE
FFFE
FFFE
FFFE
FFFE
FFFE
FFFE
FFFE
FFFE
FFFE
ENDCHAR
STARTCHAR block
ENCODING 9608
SWIDTH 600 0
DWIDTH 15 0
BBX 15 23 0 -5
BITMAP
FFFE
FFFE
FFFE
FFFE
FFFE
FFFE
FFFE
FFFE
FFFE
FFFE
FFFE
FFFE
FFFE
FFFE
FFFE
FFFE
FFFE
FFFE
FFFE
FFFE
FFFE
FFFE
FFFE
ENDCHAR
STARTCHAR uni2589
ENCODING 9609
SWIDTH 600 0
DWIDTH 15 0
BBX 13 23 0 -5
BITMAP
FFF8
FFF8
FFF8
FFF8
FFF8
FFF8
FFF8
FFF8
FFF8
FFF8
FFF8
FFF8
FFF8
FFF8
FFF8
FFF8
FFF8
FFF8
FFF8
FFF8
FFF8
FFF8
FFF8
ENDCHAR
STARTCHAR uni258A
ENCODING 9610
SWIDTH 600 0
DWIDTH 15 0
BBX 11 23 0 -5
BITMAP
FFE0
FFE0
FFE0
FFE0
FFE0
FFE0
FFE0
FFE0
FFE0
FFE0
FFE0
FFE0
FFE0
FFE0
FFE0
FFE0
FFE0
FFE0
FFE0
FFE0
FFE0
FFE0
FFE0
ENDCHAR
STARTCHAR uni258B
ENCODING 9611
SWIDTH 600 0
DWIDTH 15 0
BBX 9 23 0 -5
BITMAP
FF80
FF80
FF80
FF80
FF80
FF80
FF80
FF80
FF80
FF80
FF80
FF80
FF80
FF80
FF80
FF80
FF80
FF80
FF80
FF80
FF80
FF80
FF80
ENDCHAR
STARTCHAR lfblock
ENCODING 9612
SWIDTH 600 0
DWIDTH 15 0
BBX 8 23 0 -5
BITMAP
FF
FF
FF
FF
FF
FF
FF
FF
FF
FF
FF
FF
FF
FF
FF
FF
FF
FF
FF
FF
FF
FF
FF
ENDCHAR
STARTCHAR uni258D
ENCODING 9613
SWIDTH 600 0
DWIDTH 15 0
BBX 6 23 0 -5
BITMAP
FC
FC
FC
FC
FC
FC
FC
FC
FC
FC
FC
FC
FC
FC
FC
FC
FC
FC
FC
FC
FC
FC
FC
ENDCHAR
STARTCHAR uni258E
ENCODING 9614
SWIDTH 600 0
DWIDTH 15 0
BBX 4 23 0 -5
BITMAP
F0
F0
F0
F0
F0
F0
F0
F0
F0
F0
F0
F0
F0
F0
F0
F0
F0
F0
F0
F0
F0
F0
F0
ENDCHAR
STARTCHAR uni258F
ENCODING 9615
SWIDTH 600 0
DWIDTH 15 0
BBX 2 23 0 -5
BITMAP
C0
C0
C0
C0
C0
C0
C0
C0
C0
C0
C0
C0
C0
C0
C0
C0
C0
C0
C0
C0
C0
C0
C0
ENDCHAR
STARTCHAR rtblock
ENCODING 9616
SWIDTH 600 0
DWIDTH 15 0
BBX 15 23 0 -5
BITMAP
00FE
00FE
00FE
00FE
00FE
00FE
00FE
00FE
00FE
00FE
00FE
00FE
00FE
00FE
00FE
00FE
00FE
00FE
00FE
00FE
00FE
00FE
00FE
ENDCHAR
STARTCHAR ltshade
ENCODING 9617
SWIDTH 600 0
DWIDTH 15 0
BBX 15 23 0 -5
BITMAP
0000
5554
0000
AAAA
0000
5554
0000
AAAA
0000
5554
0000
AAAA
0000
5554
0000
AAAA
0000
5554
0000
AAAA
0000
5554
0000
ENDCHAR
STARTCHAR shade
ENCODING 9618
SWIDTH 600 0
DWIDTH 15 0
BBX 15 23 0 -5
BITMAP
5554
AAAA
5554
AAAA
5554
AAAA
5554
AAAA
5554
AAAA
5554
AAAA
5554
AAAA
5554
AAAA
5554
AAAA
5554
AAAA
5554
AAAA
5554
ENDCHAR
STARTCHAR dkshade
ENCODING 9619
SWIDTH 600 0
DWIDTH 15 0
BBX 15 23 0 -5
BITMAP
FFFE
AAAA
FFFE
5554
FFFE
AAAA
FFFE
5554
FFFE
AAAA
FFFE
5554
FFFE
AAAA
FFFE
5554
FFFE
AAAA
FFFE
5554
FFFE
AAAA
FFFE
ENDCHAR
STARTCHAR uni2594
ENCODING 9620
SWIDTH 600 0
DWIDTH 15 0
BBX 15 23 0 -5
BITMAP
FFFE
FFFE
FFFE
0000
0000
0000
0000
0000
0000
0000
0000
0000
0000
0000
0000
0000
0000
0000
0000
0000
0000
0000
0000
ENDCHAR
STARTCHAR uni2595
ENCODING 9621
SWIDTH 600 0
DWIDTH 15 0
BBX 15 23 0 -5
BITMAP
001E
001E
001E
001E
001E
001E
001E
001E
001E
001E
001E
001E
001E
001E
001E
001E
001E
001E
001E
001E
001E
001E
001E
ENDCHAR
STARTCHAR fi
ENCODING -1
SWIDTH 600 0
DWIDTH 15 0
BBX 14 16 0 0
BITMAP
0720
0820
1020
1000
1000
FEE0
1020
1020
1020
1020
1020
1020
1020
1020
1020
FEFC
ENDCHAR
STARTCHAR fl
ENCODING -1
SWIDTH 600 0
DWIDTH 15 0
BBX 14 16 0 0
BITMAP
07E0
0820
1020
1020
1020
FE20
1020
1020
1020
1020
1020
1020
1020
1020
1020
FEFC
ENDCHAR
ENDFONT
